<?xml version="1.0" encoding="UTF-8" standalone="no"?>
<!DOCTYPE svg PUBLIC "-//W3C//DTD SVG 1.1//EN"
 "http://www.w3.org/Graphics/SVG/1.1/DTD/svg11.dtd">
<!-- Generated by graphviz version 2.38.0 (20140413.2041)
 -->
<!-- Title: ejercicio1 Pages: 1 -->
<svg width="422pt" height="299pt"
 viewBox="0.00 0.00 422.00 299.00" xmlns="http://www.w3.org/2000/svg" xmlns:xlink="http://www.w3.org/1999/xlink">
<g id="graph0" class="graph" transform="scale(1 1) rotate(0) translate(4 295)">
<title>ejercicio1</title>
<polygon fill="white" stroke="none" points="-4,4 -4,-295 418,-295 418,4 -4,4"/>
<!-- A -->
<g id="node1" class="node"><title>A</title>
<path fill="lightgray" stroke="lightgray" stroke-width="2" d="M102,-206C102,-206 70,-206 70,-206 64,-206 58,-200 58,-194 58,-194 58,-182 58,-182 58,-176 64,-170 70,-170 70,-170 102,-170 102,-170 108,-170 114,-176 114,-182 114,-182 114,-194 114,-194 114,-200 108,-206 102,-206"/>
<text text-anchor="middle" x="86" y="-184.3" font-family="Nimbus" font-size="14.00">Pedro</text>
</g>
<!-- C -->
<g id="node2" class="node"><title>C</title>
<path fill="lightgray" stroke="lightgray" stroke-width="2" d="M109.5,-121C109.5,-121 62.5,-121 62.5,-121 56.5,-121 50.5,-115 50.5,-109 50.5,-109 50.5,-97 50.5,-97 50.5,-91 56.5,-85 62.5,-85 62.5,-85 109.5,-85 109.5,-85 115.5,-85 121.5,-91 121.5,-97 121.5,-97 121.5,-109 121.5,-109 121.5,-115 115.5,-121 109.5,-121"/>
<text text-anchor="middle" x="86" y="-99.3" font-family="Nimbus" font-size="14.00">Persona</text>
</g>
<!-- A&#45;&gt;C -->
<g id="edge1" class="edge"><title>A&#45;&gt;C</title>
<path fill="none" stroke="black" d="M86,-169.802C86,-158.674 86,-143.945 86,-131.244"/>
<polygon fill="black" stroke="black" points="89.5001,-131.176 86,-121.176 82.5001,-131.176 89.5001,-131.176"/>
<text text-anchor="middle" x="121" y="-142.4" font-family="Nimbus" font-size="12.00">instancia&#45;de</text>
</g>
<!-- E -->
<g id="node3" class="node"><title>E</title>
<path fill="lightgray" stroke="lightgray" stroke-width="2" d="M68,-36C68,-36 12,-36 12,-36 6,-36 0,-30 0,-24 0,-24 0,-12 0,-12 0,-6 6,-0 12,-0 12,-0 68,-0 68,-0 74,-0 80,-6 80,-12 80,-12 80,-24 80,-24 80,-30 74,-36 68,-36"/>
<text text-anchor="middle" x="40" y="-14.3" font-family="Nimbus" font-size="14.00">Mamífero</text>
</g>
<!-- C&#45;&gt;E -->
<g id="edge2" class="edge"><title>C&#45;&gt;E</title>
<path fill="none" stroke="black" d="M56.0108,-84.7741C49.9944,-79.8435 44.4638,-73.8992 41,-67 37.9076,-60.8406 36.7086,-53.6524 36.5024,-46.7426"/>
<polygon fill="black" stroke="black" points="40.0158,-46.4173 36.8663,-36.3014 33.02,-46.1734 40.0158,-46.4173"/>
<text text-anchor="middle" x="76" y="-57.4" font-family="Nimbus" font-size="12.00">subclase&#45;de</text>
</g>
<!-- D -->
<g id="node4" class="node"><title>D</title>
<path fill="lightgray" stroke="lightgray" stroke-width="2" d="M148,-36C148,-36 118,-36 118,-36 112,-36 106,-30 106,-24 106,-24 106,-12 106,-12 106,-6 112,-0 118,-0 118,-0 148,-0 148,-0 154,-0 160,-6 160,-12 160,-12 160,-24 160,-24 160,-30 154,-36 148,-36"/>
<text text-anchor="middle" x="133" y="-14.3" font-family="Nimbus" font-size="14.00">Nariz</text>
</g>
<!-- C&#45;&gt;D -->
<g id="edge3" class="edge"><title>C&#45;&gt;D</title>
<path fill="none" stroke="black" d="M99.1368,-84.9883C103.177,-79.4062 107.482,-73.0739 111,-67 114.917,-60.2377 118.665,-52.6563 121.922,-45.5512"/>
<polygon fill="black" stroke="black" points="125.179,-46.84 126.029,-36.2793 118.779,-44.005 125.179,-46.84"/>
<text text-anchor="middle" x="132" y="-57.4" font-family="Nimbus" font-size="12.00">tiene</text>
</g>
<!-- F -->
<g id="node5" class="node"><title>F</title>
<path fill="lightgray" stroke="lightgray" stroke-width="2" d="M230,-291C230,-291 164,-291 164,-291 158,-291 152,-285 152,-279 152,-279 152,-267 152,-267 152,-261 158,-255 164,-255 164,-255 230,-255 230,-255 236,-255 242,-261 242,-267 242,-267 242,-279 242,-279 242,-285 236,-291 230,-291"/>
<text text-anchor="middle" x="197" y="-269.3" font-family="Nimbus" font-size="14.00">Estudiar_1</text>
</g>
<!-- F&#45;&gt;A -->
<g id="edge4" class="edge"><title>F&#45;&gt;A</title>
<path fill="none" stroke="black" d="M174.001,-254.802C157.629,-242.561 135.432,-225.963 117.428,-212.5"/>
<polygon fill="black" stroke="black" points="119.074,-209.361 108.97,-206.176 114.883,-214.967 119.074,-209.361"/>
<text text-anchor="middle" x="169" y="-227.4" font-family="Nimbus" font-size="12.00">agente</text>
</g>
<!-- B -->
<g id="node6" class="node"><title>B</title>
<path fill="lightgray" stroke="lightgray" stroke-width="2" d="M249.5,-206C249.5,-206 144.5,-206 144.5,-206 138.5,-206 132.5,-200 132.5,-194 132.5,-194 132.5,-182 132.5,-182 132.5,-176 138.5,-170 144.5,-170 144.5,-170 249.5,-170 249.5,-170 255.5,-170 261.5,-176 261.5,-182 261.5,-182 261.5,-194 261.5,-194 261.5,-200 255.5,-206 249.5,-206"/>
<text text-anchor="middle" x="197" y="-184.3" font-family="Nimbus" font-size="14.00">Ciencia de datos</text>
</g>
<!-- F&#45;&gt;B -->
<g id="edge5" class="edge"><title>F&#45;&gt;B</title>
<path fill="none" stroke="black" d="M197,-254.802C197,-243.674 197,-228.945 197,-216.244"/>
<polygon fill="black" stroke="black" points="200.5,-216.176 197,-206.176 193.5,-216.176 200.5,-216.176"/>
<text text-anchor="middle" x="215.5" y="-227.4" font-family="Nimbus" font-size="12.00">objeto</text>
</g>
<!-- G -->
<g id="node8" class="node"><title>G</title>
<path fill="lightgray" stroke="lightgray" stroke-width="2" d="M396.5,-206C396.5,-206 291.5,-206 291.5,-206 285.5,-206 279.5,-200 279.5,-194 279.5,-194 279.5,-182 279.5,-182 279.5,-176 285.5,-170 291.5,-170 291.5,-170 396.5,-170 396.5,-170 402.5,-170 408.5,-176 408.5,-182 408.5,-182 408.5,-194 408.5,-194 408.5,-200 402.5,-206 396.5,-206"/>
<text text-anchor="middle" x="344" y="-184.3" font-family="Nimbus" font-size="14.00">Suceso_Estudiar</text>
</g>
<!-- F&#45;&gt;G -->
<g id="edge8" class="edge"><title>F&#45;&gt;G</title>
<path fill="none" stroke="black" d="M227.458,-254.802C249.904,-242.129 280.618,-224.787 304.88,-211.088"/>
<polygon fill="black" stroke="black" points="306.845,-213.998 313.832,-206.033 303.404,-207.902 306.845,-213.998"/>
<text text-anchor="middle" x="315" y="-227.4" font-family="Nimbus" font-size="12.00">instancia&#45;de</text>
</g>
<!-- I -->
<g id="node7" class="node"><title>I</title>
<path fill="lightgray" stroke="lightgray" stroke-width="2" d="M231,-121C231,-121 163,-121 163,-121 157,-121 151,-115 151,-109 151,-109 151,-97 151,-97 151,-91 157,-85 163,-85 163,-85 231,-85 231,-85 237,-85 243,-91 243,-97 243,-97 243,-109 243,-109 243,-115 237,-121 231,-121"/>
<text text-anchor="middle" x="197" y="-99.3" font-family="Nimbus" font-size="14.00">Asignatura</text>
</g>
<!-- B&#45;&gt;I -->
<g id="edge6" class="edge"><title>B&#45;&gt;I</title>
<path fill="none" stroke="black" d="M197,-169.802C197,-158.674 197,-143.945 197,-131.244"/>
<polygon fill="black" stroke="black" points="200.5,-131.176 197,-121.176 193.5,-131.176 200.5,-131.176"/>
<text text-anchor="middle" x="232" y="-142.4" font-family="Nimbus" font-size="12.00">instancia&#45;de</text>
</g>
<!-- H -->
<g id="node9" class="node"><title>H</title>
<path fill="lightgray" stroke="lightgray" stroke-width="2" d="M364.5,-121C364.5,-121 323.5,-121 323.5,-121 317.5,-121 311.5,-115 311.5,-109 311.5,-109 311.5,-97 311.5,-97 311.5,-91 317.5,-85 323.5,-85 323.5,-85 364.5,-85 364.5,-85 370.5,-85 376.5,-91 376.5,-97 376.5,-97 376.5,-109 376.5,-109 376.5,-115 370.5,-121 364.5,-121"/>
<text text-anchor="middle" x="344" y="-99.3" font-family="Nimbus" font-size="14.00">Suceso</text>
</g>
<!-- G&#45;&gt;H -->
<g id="edge7" class="edge"><title>G&#45;&gt;H</title>
<path fill="none" stroke="black" d="M344,-169.802C344,-158.674 344,-143.945 344,-131.244"/>
<polygon fill="black" stroke="black" points="347.5,-131.176 344,-121.176 340.5,-131.176 347.5,-131.176"/>
<text text-anchor="middle" x="379" y="-142.4" font-family="Nimbus" font-size="12.00">subclase&#45;de</text>
</g>
</g>
</svg>
