<?xml version="1.0" encoding="UTF-8" standalone="no"?>
<!DOCTYPE svg PUBLIC "-//W3C//DTD SVG 1.1//EN"
 "http://www.w3.org/Graphics/SVG/1.1/DTD/svg11.dtd">
<!-- Generated by graphviz version 2.38.0 (20140413.2041)
 -->
<!-- Title: ejercicio2 Pages: 1 -->
<svg width="343pt" height="214pt"
 viewBox="0.00 0.00 343.00 214.00" xmlns="http://www.w3.org/2000/svg" xmlns:xlink="http://www.w3.org/1999/xlink">
<g id="graph0" class="graph" transform="scale(1 1) rotate(0) translate(4 210)">
<title>ejercicio2</title>
<polygon fill="white" stroke="none" points="-4,4 -4,-210 339,-210 339,4 -4,4"/>
<!-- D -->
<g id="node1" class="node"><title>D</title>
<path fill="lightgray" stroke="lightgray" stroke-width="2" d="M152.5,-206C152.5,-206 117.5,-206 117.5,-206 111.5,-206 105.5,-200 105.5,-194 105.5,-194 105.5,-182 105.5,-182 105.5,-176 111.5,-170 117.5,-170 117.5,-170 152.5,-170 152.5,-170 158.5,-170 164.5,-176 164.5,-182 164.5,-182 164.5,-194 164.5,-194 164.5,-200 158.5,-206 152.5,-206"/>
<text text-anchor="middle" x="135" y="-184.3" font-family="Nimbus" font-size="14.00">Dar_1</text>
</g>
<!-- A -->
<g id="node2" class="node"><title>A</title>
<path fill="lightgray" stroke="lightgray" stroke-width="2" d="M42,-121C42,-121 12,-121 12,-121 6,-121 0,-115 0,-109 0,-109 0,-97 0,-97 0,-91 6,-85 12,-85 12,-85 42,-85 42,-85 48,-85 54,-91 54,-97 54,-97 54,-109 54,-109 54,-115 48,-121 42,-121"/>
<text text-anchor="middle" x="27" y="-99.3" font-family="Nimbus" font-size="14.00">Juan</text>
</g>
<!-- D&#45;&gt;A -->
<g id="edge1" class="edge"><title>D&#45;&gt;A</title>
<path fill="none" stroke="black" d="M105.376,-175.657C92.2167,-169.778 77.0207,-161.769 65,-152 57.1253,-145.601 49.8392,-137.299 43.7978,-129.403"/>
<polygon fill="black" stroke="black" points="46.4745,-127.133 37.7618,-121.105 40.8135,-131.251 46.4745,-127.133"/>
<text text-anchor="middle" x="85" y="-142.4" font-family="Nimbus" font-size="12.00">agente</text>
</g>
<!-- B -->
<g id="node3" class="node"><title>B</title>
<path fill="lightgray" stroke="lightgray" stroke-width="2" d="M114,-121C114,-121 84,-121 84,-121 78,-121 72,-115 72,-109 72,-109 72,-97 72,-97 72,-91 78,-85 84,-85 84,-85 114,-85 114,-85 120,-85 126,-91 126,-97 126,-97 126,-109 126,-109 126,-115 120,-121 114,-121"/>
<text text-anchor="middle" x="99" y="-99.3" font-family="Nimbus" font-size="14.00">libro</text>
</g>
<!-- D&#45;&gt;B -->
<g id="edge2" class="edge"><title>D&#45;&gt;B</title>
<path fill="none" stroke="black" d="M122.815,-169.727C119.31,-164.236 115.707,-158.022 113,-152 110.035,-145.404 107.517,-138.017 105.469,-131.053"/>
<polygon fill="black" stroke="black" points="108.815,-130.021 102.808,-121.294 102.062,-131.863 108.815,-130.021"/>
<text text-anchor="middle" x="131.5" y="-142.4" font-family="Nimbus" font-size="12.00">objeto</text>
</g>
<!-- C -->
<g id="node4" class="node"><title>C</title>
<path fill="lightgray" stroke="lightgray" stroke-width="2" d="M187.5,-121C187.5,-121 156.5,-121 156.5,-121 150.5,-121 144.5,-115 144.5,-109 144.5,-109 144.5,-97 144.5,-97 144.5,-91 150.5,-85 156.5,-85 156.5,-85 187.5,-85 187.5,-85 193.5,-85 199.5,-91 199.5,-97 199.5,-97 199.5,-109 199.5,-109 199.5,-115 193.5,-121 187.5,-121"/>
<text text-anchor="middle" x="172" y="-99.3" font-family="Nimbus" font-size="14.00">Maria</text>
</g>
<!-- D&#45;&gt;C -->
<g id="edge3" class="edge"><title>D&#45;&gt;C</title>
<path fill="none" stroke="black" d="M142.666,-169.802C147.727,-158.451 154.457,-143.354 160.194,-130.484"/>
<polygon fill="black" stroke="black" points="163.469,-131.734 164.343,-121.176 157.075,-128.884 163.469,-131.734"/>
<text text-anchor="middle" x="174" y="-142.4" font-family="Nimbus" font-size="12.00">sujeto</text>
</g>
<!-- E -->
<g id="node5" class="node"><title>E</title>
<path fill="lightgray" stroke="lightgray" stroke-width="2" d="M300.5,-121C300.5,-121 229.5,-121 229.5,-121 223.5,-121 217.5,-115 217.5,-109 217.5,-109 217.5,-97 217.5,-97 217.5,-91 223.5,-85 229.5,-85 229.5,-85 300.5,-85 300.5,-85 306.5,-85 312.5,-91 312.5,-97 312.5,-97 312.5,-109 312.5,-109 312.5,-115 306.5,-121 300.5,-121"/>
<text text-anchor="middle" x="265" y="-99.3" font-family="Nimbus" font-size="14.00">Suceso_dar</text>
</g>
<!-- D&#45;&gt;E -->
<g id="edge4" class="edge"><title>D&#45;&gt;E</title>
<path fill="none" stroke="black" d="M164.783,-170.598C174.812,-164.894 185.993,-158.335 196,-152 208.282,-144.225 221.452,-135.234 232.961,-127.149"/>
<polygon fill="black" stroke="black" points="235.255,-129.814 241.395,-121.179 231.21,-124.1 235.255,-129.814"/>
<text text-anchor="middle" x="250" y="-142.4" font-family="Nimbus" font-size="12.00">instancia&#45;de</text>
</g>
<!-- F -->
<g id="node6" class="node"><title>F</title>
<path fill="lightgray" stroke="lightgray" stroke-width="2" d="M285.5,-36C285.5,-36 244.5,-36 244.5,-36 238.5,-36 232.5,-30 232.5,-24 232.5,-24 232.5,-12 232.5,-12 232.5,-6 238.5,-0 244.5,-0 244.5,-0 285.5,-0 285.5,-0 291.5,-0 297.5,-6 297.5,-12 297.5,-12 297.5,-24 297.5,-24 297.5,-30 291.5,-36 285.5,-36"/>
<text text-anchor="middle" x="265" y="-14.3" font-family="Nimbus" font-size="14.00">Suceso</text>
</g>
<!-- E&#45;&gt;F -->
<g id="edge5" class="edge"><title>E&#45;&gt;F</title>
<path fill="none" stroke="black" d="M265,-84.8023C265,-73.6736 265,-58.9448 265,-46.2439"/>
<polygon fill="black" stroke="black" points="268.5,-46.1756 265,-36.1756 261.5,-46.1757 268.5,-46.1756"/>
<text text-anchor="middle" x="300" y="-57.4" font-family="Nimbus" font-size="12.00">subclase&#45;de</text>
</g>
</g>
</svg>
