<?xml version="1.0" encoding="UTF-8" standalone="no"?>
<!DOCTYPE svg PUBLIC "-//W3C//DTD SVG 1.1//EN"
 "http://www.w3.org/Graphics/SVG/1.1/DTD/svg11.dtd">
<!-- Generated by graphviz version 2.43.0 (0)
 -->
<!-- Title: ejemplo Pages: 1 -->
<svg width="628pt" height="322pt"
 viewBox="0.00 0.00 628.00 322.00" xmlns="http://www.w3.org/2000/svg" xmlns:xlink="http://www.w3.org/1999/xlink">
<g id="graph0" class="graph" transform="scale(1 1) rotate(0) translate(4 318)">
<title>ejemplo</title>
<polygon fill="white" stroke="transparent" points="-4,4 -4,-318 624,-318 624,4 -4,4"/>
<!-- A -->
<g id="node1" class="node">
<title>A</title>
<path fill="lightgray" stroke="lightgray" stroke-width="2" d="M234,-314C234,-314 200,-314 200,-314 194,-314 188,-308 188,-302 188,-302 188,-290 188,-290 188,-284 194,-278 200,-278 200,-278 234,-278 234,-278 240,-278 246,-284 246,-290 246,-290 246,-302 246,-302 246,-308 240,-314 234,-314"/>
<text text-anchor="middle" x="217" y="-292.3" font-family="Nimbus" font-size="14.00">saber1</text>
</g>
<!-- B -->
<g id="node2" class="node">
<title>B</title>
<path fill="lightgray" stroke="lightgray" stroke-width="2" d="M86,-175C86,-175 12,-175 12,-175 6,-175 0,-169 0,-163 0,-163 0,-151 0,-151 0,-145 6,-139 12,-139 12,-139 86,-139 86,-139 92,-139 98,-145 98,-151 98,-151 98,-163 98,-163 98,-169 92,-175 86,-175"/>
<text text-anchor="middle" x="49" y="-153.3" font-family="Nimbus" font-size="14.00">SucesoSaber</text>
</g>
<!-- A&#45;&gt;B -->
<g id="edge1" class="edge">
<title>A&#45;&gt;B</title>
<path fill="none" stroke="black" d="M187.83,-294.96C158.07,-293.35 112.33,-286.33 84,-260 63.16,-240.64 54.73,-208.33 51.32,-185.26"/>
<polygon fill="black" stroke="black" points="54.76,-184.57 50.05,-175.09 47.81,-185.44 54.76,-184.57"/>
<text text-anchor="middle" x="118.5" y="-250.4" font-family="Nimbus" font-size="12.00">instancia_de</text>
</g>
<!-- D -->
<g id="node4" class="node">
<title>D</title>
<path fill="lightgray" stroke="lightgray" stroke-width="2" d="M154,-229C154,-229 124,-229 124,-229 118,-229 112,-223 112,-217 112,-217 112,-205 112,-205 112,-199 118,-193 124,-193 124,-193 154,-193 154,-193 160,-193 166,-199 166,-205 166,-205 166,-217 166,-217 166,-223 160,-229 154,-229"/>
<text text-anchor="middle" x="139" y="-207.3" font-family="Nimbus" font-size="14.00">activa</text>
</g>
<!-- A&#45;&gt;D -->
<g id="edge3" class="edge">
<title>A&#45;&gt;D</title>
<path fill="none" stroke="black" d="M187.8,-278.9C179.78,-273.58 171.51,-267.17 165,-260 159.27,-253.69 154.35,-245.88 150.38,-238.41"/>
<polygon fill="black" stroke="black" points="153.44,-236.69 145.88,-229.27 147.16,-239.78 153.44,-236.69"/>
<text text-anchor="middle" x="189.5" y="-250.4" font-family="Nimbus" font-size="12.00">voz_mod</text>
</g>
<!-- E -->
<g id="node5" class="node">
<title>E</title>
<path fill="lightgray" stroke="lightgray" stroke-width="2" d="M241.5,-229C241.5,-229 196.5,-229 196.5,-229 190.5,-229 184.5,-223 184.5,-217 184.5,-217 184.5,-205 184.5,-205 184.5,-199 190.5,-193 196.5,-193 196.5,-193 241.5,-193 241.5,-193 247.5,-193 253.5,-199 253.5,-205 253.5,-205 253.5,-217 253.5,-217 253.5,-223 247.5,-229 241.5,-229"/>
<text text-anchor="middle" x="219" y="-207.3" font-family="Nimbus" font-size="14.00">presente</text>
</g>
<!-- A&#45;&gt;E -->
<g id="edge4" class="edge">
<title>A&#45;&gt;E</title>
<path fill="none" stroke="black" d="M217.33,-277.67C217.51,-268.54 217.75,-257.17 218,-247 218.06,-244.45 218.13,-241.79 218.2,-239.13"/>
<polygon fill="black" stroke="black" points="221.7,-239.18 218.49,-229.09 214.71,-238.99 221.7,-239.18"/>
<text text-anchor="middle" x="251.5" y="-250.4" font-family="Nimbus" font-size="12.00">tiempo_mod</text>
</g>
<!-- F -->
<g id="node6" class="node">
<title>F</title>
<path fill="lightgray" stroke="lightgray" stroke-width="2" d="M322,-229C322,-229 292,-229 292,-229 286,-229 280,-223 280,-217 280,-217 280,-205 280,-205 280,-199 286,-193 292,-193 292,-193 322,-193 322,-193 328,-193 334,-199 334,-205 334,-205 334,-217 334,-217 334,-223 328,-229 322,-229"/>
<text text-anchor="middle" x="307" y="-207.3" font-family="Nimbus" font-size="14.00">luis</text>
</g>
<!-- A&#45;&gt;F -->
<g id="edge5" class="edge">
<title>A&#45;&gt;F</title>
<path fill="none" stroke="black" d="M246.22,-285.04C259.4,-279.37 274.36,-271.14 285,-260 290.79,-253.94 295.25,-246.09 298.59,-238.5"/>
<polygon fill="black" stroke="black" points="301.85,-239.76 302.24,-229.18 295.34,-237.21 301.85,-239.76"/>
<text text-anchor="middle" x="312.5" y="-250.4" font-family="Nimbus" font-size="12.00">agente</text>
</g>
<!-- H -->
<g id="node7" class="node">
<title>H</title>
<path fill="lightgray" stroke="lightgray" stroke-width="2" d="M394,-229C394,-229 364,-229 364,-229 358,-229 352,-223 352,-217 352,-217 352,-205 352,-205 352,-199 358,-193 364,-193 364,-193 394,-193 394,-193 400,-193 406,-199 406,-205 406,-205 406,-217 406,-217 406,-223 400,-229 394,-229"/>
<text text-anchor="middle" x="379" y="-207.3" font-family="Nimbus" font-size="14.00">ver1</text>
</g>
<!-- A&#45;&gt;H -->
<g id="edge14" class="edge">
<title>A&#45;&gt;H</title>
<path fill="none" stroke="black" d="M246.46,-290.8C271.5,-286.21 307.64,-277.1 335,-260 344.59,-254.01 353.4,-245.37 360.58,-237.07"/>
<polygon fill="black" stroke="black" points="363.31,-239.26 366.94,-229.31 357.89,-234.83 363.31,-239.26"/>
<text text-anchor="middle" x="367" y="-250.4" font-family="Nimbus" font-size="12.00">objeto</text>
</g>
<!-- C -->
<g id="node3" class="node">
<title>C</title>
<path fill="lightgray" stroke="lightgray" stroke-width="2" d="M100,-36C100,-36 62,-36 62,-36 56,-36 50,-30 50,-24 50,-24 50,-12 50,-12 50,-6 56,0 62,0 62,0 100,0 100,0 106,0 112,-6 112,-12 112,-12 112,-24 112,-24 112,-30 106,-36 100,-36"/>
<text text-anchor="middle" x="81" y="-14.3" font-family="Nimbus" font-size="14.00">Suceso</text>
</g>
<!-- B&#45;&gt;C -->
<g id="edge2" class="edge">
<title>B&#45;&gt;C</title>
<path fill="none" stroke="black" d="M50.16,-138.89C51.38,-124.4 53.74,-103.14 58,-85 61.12,-71.71 65.94,-57.36 70.36,-45.44"/>
<polygon fill="black" stroke="black" points="73.64,-46.67 73.94,-36.08 67.1,-44.17 73.64,-46.67"/>
<text text-anchor="middle" x="92.5" y="-99.9" font-family="Nimbus" font-size="12.00">subclase_de</text>
</g>
<!-- G -->
<g id="node8" class="node">
<title>G</title>
<path fill="lightgray" stroke="lightgray" stroke-width="2" d="M206,-121C206,-121 148,-121 148,-121 142,-121 136,-115 136,-109 136,-109 136,-97 136,-97 136,-91 142,-85 148,-85 148,-85 206,-85 206,-85 212,-85 218,-91 218,-97 218,-97 218,-109 218,-109 218,-115 212,-121 206,-121"/>
<text text-anchor="middle" x="177" y="-99.3" font-family="Nimbus" font-size="14.00">SucesoVer</text>
</g>
<!-- H&#45;&gt;G -->
<g id="edge6" class="edge">
<title>H&#45;&gt;G</title>
<path fill="none" stroke="black" d="M351.82,-196.11C348.89,-194.93 345.92,-193.86 343,-193 286.23,-176.16 258.85,-209.88 211,-175 196.64,-164.53 188.1,-146.39 183.17,-131.06"/>
<polygon fill="black" stroke="black" points="186.41,-129.69 180.3,-121.03 179.68,-131.61 186.41,-129.69"/>
<text text-anchor="middle" x="245.5" y="-153.9" font-family="Nimbus" font-size="12.00">instancia_de</text>
</g>
<!-- I -->
<g id="node9" class="node">
<title>I</title>
<path fill="lightgray" stroke="lightgray" stroke-width="2" d="M281,-121C281,-121 251,-121 251,-121 245,-121 239,-115 239,-109 239,-109 239,-97 239,-97 239,-91 245,-85 251,-85 251,-85 281,-85 281,-85 287,-85 293,-91 293,-97 293,-97 293,-109 293,-109 293,-115 287,-121 281,-121"/>
<text text-anchor="middle" x="266" y="-99.3" font-family="Nimbus" font-size="14.00">pepe</text>
</g>
<!-- H&#45;&gt;I -->
<g id="edge8" class="edge">
<title>H&#45;&gt;I</title>
<path fill="none" stroke="black" d="M351.66,-197.2C336.43,-189.74 319.29,-180.71 313,-175 299.08,-162.37 287.39,-144.77 279.15,-130.26"/>
<polygon fill="black" stroke="black" points="282.11,-128.35 274.25,-121.24 275.96,-131.7 282.11,-128.35"/>
<text text-anchor="middle" x="331.5" y="-153.9" font-family="Nimbus" font-size="12.00">agente</text>
</g>
<!-- J -->
<g id="node10" class="node">
<title>J</title>
<path fill="lightgray" stroke="lightgray" stroke-width="2" d="M362.5,-121C362.5,-121 323.5,-121 323.5,-121 317.5,-121 311.5,-115 311.5,-109 311.5,-109 311.5,-97 311.5,-97 311.5,-91 317.5,-85 323.5,-85 323.5,-85 362.5,-85 362.5,-85 368.5,-85 374.5,-91 374.5,-97 374.5,-97 374.5,-109 374.5,-109 374.5,-115 368.5,-121 362.5,-121"/>
<text text-anchor="middle" x="343" y="-99.3" font-family="Nimbus" font-size="14.00">elPrado</text>
</g>
<!-- H&#45;&gt;J -->
<g id="edge9" class="edge">
<title>H&#45;&gt;J</title>
<path fill="none" stroke="black" d="M372.51,-192.96C370.38,-187.27 368.04,-180.88 366,-175 361,-160.61 355.74,-144.46 351.52,-131.21"/>
<polygon fill="black" stroke="black" points="354.73,-129.76 348.37,-121.28 348.06,-131.87 354.73,-129.76"/>
<text text-anchor="middle" x="383" y="-153.9" font-family="Nimbus" font-size="12.00">objeto</text>
</g>
<!-- L -->
<g id="node12" class="node">
<title>L</title>
<path fill="lightgray" stroke="lightgray" stroke-width="2" d="M439.5,-121C439.5,-121 404.5,-121 404.5,-121 398.5,-121 392.5,-115 392.5,-109 392.5,-109 392.5,-97 392.5,-97 392.5,-91 398.5,-85 404.5,-85 404.5,-85 439.5,-85 439.5,-85 445.5,-85 451.5,-91 451.5,-97 451.5,-97 451.5,-109 451.5,-109 451.5,-115 445.5,-121 439.5,-121"/>
<text text-anchor="middle" x="422" y="-99.3" font-family="Nimbus" font-size="14.00">madrid</text>
</g>
<!-- H&#45;&gt;L -->
<g id="edge11" class="edge">
<title>H&#45;&gt;L</title>
<path fill="none" stroke="black" d="M390.32,-193C393.73,-187.42 397.28,-181.08 400,-175 406.34,-160.82 411.58,-144.29 415.35,-130.74"/>
<polygon fill="black" stroke="black" points="418.74,-131.62 417.95,-121.06 411.98,-129.81 418.74,-131.62"/>
<text text-anchor="middle" x="426" y="-153.9" font-family="Nimbus" font-size="12.00">lugar</text>
</g>
<!-- M -->
<g id="node13" class="node">
<title>M</title>
<path fill="lightgray" stroke="lightgray" stroke-width="2" d="M518.5,-121C518.5,-121 481.5,-121 481.5,-121 475.5,-121 469.5,-115 469.5,-109 469.5,-109 469.5,-97 469.5,-97 469.5,-91 475.5,-85 481.5,-85 481.5,-85 518.5,-85 518.5,-85 524.5,-85 530.5,-91 530.5,-97 530.5,-97 530.5,-109 530.5,-109 530.5,-115 524.5,-121 518.5,-121"/>
<text text-anchor="middle" x="500" y="-99.3" font-family="Nimbus" font-size="14.00">pasado</text>
</g>
<!-- H&#45;&gt;M -->
<g id="edge12" class="edge">
<title>H&#45;&gt;M</title>
<path fill="none" stroke="black" d="M406.16,-198.47C418.45,-192.5 432.71,-184.48 444,-175 459.43,-162.04 473.47,-144.23 483.63,-129.69"/>
<polygon fill="black" stroke="black" points="486.72,-131.37 489.43,-121.13 480.92,-127.44 486.72,-131.37"/>
<text text-anchor="middle" x="508.5" y="-153.9" font-family="Nimbus" font-size="12.00">tiempo_mod</text>
</g>
<!-- N -->
<g id="node14" class="node">
<title>N</title>
<path fill="lightgray" stroke="lightgray" stroke-width="2" d="M598,-121C598,-121 568,-121 568,-121 562,-121 556,-115 556,-109 556,-109 556,-97 556,-97 556,-91 562,-85 568,-85 568,-85 598,-85 598,-85 604,-85 610,-91 610,-97 610,-97 610,-109 610,-109 610,-115 604,-121 598,-121"/>
<text text-anchor="middle" x="583" y="-99.3" font-family="Nimbus" font-size="14.00">activa</text>
</g>
<!-- H&#45;&gt;N -->
<g id="edge13" class="edge">
<title>H&#45;&gt;N</title>
<path fill="none" stroke="black" d="M406.04,-207.16C447.51,-202.34 524.28,-191.46 546,-175 560.45,-164.05 569.78,-145.83 575.46,-130.59"/>
<polygon fill="black" stroke="black" points="578.77,-131.7 578.68,-121.11 572.15,-129.45 578.77,-131.7"/>
<text text-anchor="middle" x="595.5" y="-153.9" font-family="Nimbus" font-size="12.00">voz_mod</text>
</g>
<!-- G&#45;&gt;C -->
<g id="edge7" class="edge">
<title>G&#45;&gt;C</title>
<path fill="none" stroke="black" d="M157.11,-84.8C143.08,-72.67 124.1,-56.26 108.61,-42.87"/>
<polygon fill="black" stroke="black" points="110.72,-40.07 100.87,-36.18 106.14,-45.36 110.72,-40.07"/>
<text text-anchor="middle" x="169.5" y="-57.4" font-family="Nimbus" font-size="12.00">subclase_de</text>
</g>
<!-- K -->
<g id="node11" class="node">
<title>K</title>
<path fill="lightgray" stroke="lightgray" stroke-width="2" d="M360,-36C360,-36 326,-36 326,-36 320,-36 314,-30 314,-24 314,-24 314,-12 314,-12 314,-6 320,0 326,0 326,0 360,0 360,0 366,0 372,-6 372,-12 372,-12 372,-24 372,-24 372,-30 366,-36 360,-36"/>
<text text-anchor="middle" x="343" y="-14.3" font-family="Nimbus" font-size="14.00">Museo</text>
</g>
<!-- J&#45;&gt;K -->
<g id="edge10" class="edge">
<title>J&#45;&gt;K</title>
<path fill="none" stroke="black" d="M343,-84.8C343,-73.67 343,-58.94 343,-46.24"/>
<polygon fill="black" stroke="black" points="346.5,-46.18 343,-36.18 339.5,-46.18 346.5,-46.18"/>
<text text-anchor="middle" x="377.5" y="-57.4" font-family="Nimbus" font-size="12.00">instancia_de</text>
</g>
</g>
</svg>
