<?xml version="1.0" encoding="UTF-8" standalone="no"?>
<!DOCTYPE svg PUBLIC "-//W3C//DTD SVG 1.1//EN"
 "http://www.w3.org/Graphics/SVG/1.1/DTD/svg11.dtd">
<!-- Generated by graphviz version 2.38.0 (20140413.2041)
 -->
<!-- Title: ejemplo Pages: 1 -->
<svg width="353pt" height="315pt"
 viewBox="0.00 0.00 353.00 315.00" xmlns="http://www.w3.org/2000/svg" xmlns:xlink="http://www.w3.org/1999/xlink">
<g id="graph0" class="graph" transform="scale(1 1) rotate(0) translate(4 311)">
<title>ejemplo</title>
<polygon fill="white" stroke="none" points="-4,4 -4,-311 349,-311 349,4 -4,4"/>
<g id="clust1" class="cluster"><title>cluster_1</title>
<polygon fill="none" stroke="black" points="231,-8 231,-145 319,-145 319,-8 231,-8"/>
</g>
<!-- A -->
<g id="node1" class="node"><title>A</title>
<path fill="lightgray" stroke="lightgray" stroke-width="2" d="M182,-307C182,-307 152,-307 152,-307 146,-307 140,-301 140,-295 140,-295 140,-283 140,-283 140,-277 146,-271 152,-271 152,-271 182,-271 182,-271 188,-271 194,-277 194,-283 194,-283 194,-295 194,-295 194,-301 188,-307 182,-307"/>
<text text-anchor="middle" x="167" y="-285.3" font-family="Nimbus" font-size="14.00">pepe</text>
</g>
<!-- B -->
<g id="node2" class="node"><title>B</title>
<path fill="lightgray" stroke="lightgray" stroke-width="2" d="M82,-222C82,-222 12,-222 12,-222 6,-222 -7.10543e-15,-216 -7.10543e-15,-210 -7.10543e-15,-210 -7.10543e-15,-198 -7.10543e-15,-198 -7.10543e-15,-192 6,-186 12,-186 12,-186 82,-186 82,-186 88,-186 94,-192 94,-198 94,-198 94,-210 94,-210 94,-216 88,-222 82,-222"/>
<text text-anchor="middle" x="47" y="-200.3" font-family="Nimbus" font-size="14.00">informático</text>
</g>
<!-- A&#45;&gt;B -->
<g id="edge1" class="edge"><title>A&#45;&gt;B</title>
<path fill="none" stroke="black" d="M139.898,-273.312C129.41,-267.34 117.441,-260.164 107,-253 96.1726,-245.57 84.8006,-236.757 74.9036,-228.723"/>
<polygon fill="black" stroke="black" points="76.9275,-225.856 66.9814,-222.205 72.48,-231.261 76.9275,-225.856"/>
<text text-anchor="middle" x="135" y="-243.4" font-family="Nimbus" font-size="12.00">profesión</text>
</g>
<!-- C -->
<g id="node3" class="node"><title>C</title>
<path fill="lightgray" stroke="lightgray" stroke-width="2" d="M210,-222C210,-222 124,-222 124,-222 118,-222 112,-216 112,-210 112,-210 112,-198 112,-198 112,-192 118,-186 124,-186 124,-186 210,-186 210,-186 216,-186 222,-192 222,-198 222,-198 222,-210 222,-210 222,-216 216,-222 210,-222"/>
<text text-anchor="middle" x="167" y="-200.3" font-family="Nimbus" font-size="14.00">edad&#45;de&#45;pepe</text>
</g>
<!-- A&#45;&gt;C -->
<g id="edge2" class="edge"><title>A&#45;&gt;C</title>
<path fill="none" stroke="black" d="M167,-270.802C167,-259.674 167,-244.945 167,-232.244"/>
<polygon fill="black" stroke="black" points="170.5,-232.176 167,-222.176 163.5,-232.176 170.5,-232.176"/>
<text text-anchor="middle" x="181.5" y="-243.4" font-family="Nimbus" font-size="12.00">edad</text>
</g>
<!-- E -->
<g id="node5" class="node"><title>E</title>
<path fill="lightgray" stroke="lightgray" stroke-width="2" d="M297.5,-222C297.5,-222 252.5,-222 252.5,-222 246.5,-222 240.5,-216 240.5,-210 240.5,-210 240.5,-198 240.5,-198 240.5,-192 246.5,-186 252.5,-186 252.5,-186 297.5,-186 297.5,-186 303.5,-186 309.5,-192 309.5,-198 309.5,-198 309.5,-210 309.5,-210 309.5,-216 303.5,-222 297.5,-222"/>
<text text-anchor="middle" x="275" y="-200.3" font-family="Nimbus" font-size="14.00">hombre</text>
</g>
<!-- A&#45;&gt;E -->
<g id="edge4" class="edge"><title>A&#45;&gt;E</title>
<path fill="none" stroke="black" d="M189.378,-270.802C205.307,-258.561 226.904,-241.963 244.422,-228.5"/>
<polygon fill="black" stroke="black" points="246.855,-231.044 252.651,-222.176 242.589,-225.494 246.855,-231.044"/>
<text text-anchor="middle" x="253" y="-243.4" font-family="Nimbus" font-size="12.00">instancia</text>
</g>
<!-- D -->
<g id="node4" class="node"><title>D</title>
<path fill="lightgray" stroke="lightgray" stroke-width="2" d="M182,-137C182,-137 152,-137 152,-137 146,-137 140,-131 140,-125 140,-125 140,-113 140,-113 140,-107 146,-101 152,-101 152,-101 182,-101 182,-101 188,-101 194,-107 194,-113 194,-113 194,-125 194,-125 194,-131 188,-137 182,-137"/>
<text text-anchor="middle" x="167" y="-115.3" font-family="Nimbus" font-size="14.00">37</text>
</g>
<!-- C&#45;&gt;D -->
<g id="edge3" class="edge"><title>C&#45;&gt;D</title>
<path fill="none" stroke="black" d="M167,-185.802C167,-174.674 167,-159.945 167,-147.244"/>
<polygon fill="black" stroke="black" points="170.5,-147.176 167,-137.176 163.5,-147.176 170.5,-147.176"/>
<text text-anchor="middle" x="181.5" y="-158.4" font-family="Nimbus" font-size="12.00">valor</text>
</g>
<!-- F -->
<g id="node6" class="node"><title>F</title>
<path fill="lightgray" stroke="lightgray" stroke-width="2" d="M298.5,-137C298.5,-137 251.5,-137 251.5,-137 245.5,-137 239.5,-131 239.5,-125 239.5,-125 239.5,-113 239.5,-113 239.5,-107 245.5,-101 251.5,-101 251.5,-101 298.5,-101 298.5,-101 304.5,-101 310.5,-107 310.5,-113 310.5,-113 310.5,-125 310.5,-125 310.5,-131 304.5,-137 298.5,-137"/>
<text text-anchor="middle" x="275" y="-115.3" font-family="Nimbus" font-size="14.00">persona</text>
</g>
<!-- E&#45;&gt;F -->
<g id="edge5" class="edge"><title>E&#45;&gt;F</title>
<path fill="none" stroke="black" d="M275,-185.802C275,-174.674 275,-159.945 275,-147.244"/>
<polygon fill="black" stroke="black" points="278.5,-147.176 275,-137.176 271.5,-147.176 278.5,-147.176"/>
<text text-anchor="middle" x="310" y="-158.4" font-family="Nimbus" font-size="12.00">subclase&#45;de</text>
</g>
<!-- G -->
<g id="node7" class="node"><title>G</title>
<path fill="lightgray" stroke="lightgray" stroke-width="2" d="M295.5,-52C295.5,-52 254.5,-52 254.5,-52 248.5,-52 242.5,-46 242.5,-40 242.5,-40 242.5,-28 242.5,-28 242.5,-22 248.5,-16 254.5,-16 254.5,-16 295.5,-16 295.5,-16 301.5,-16 307.5,-22 307.5,-28 307.5,-28 307.5,-40 307.5,-40 307.5,-46 301.5,-52 295.5,-52"/>
<text text-anchor="middle" x="275" y="-30.3" font-family="Nimbus" font-size="14.00">cabeza</text>
</g>
<!-- F&#45;&gt;G -->
<g id="edge6" class="edge"><title>F&#45;&gt;G</title>
<path fill="none" stroke="black" d="M275,-100.802C275,-89.6736 275,-74.9448 275,-62.2439"/>
<polygon fill="black" stroke="black" points="278.5,-62.1756 275,-52.1756 271.5,-62.1757 278.5,-62.1756"/>
<text text-anchor="middle" x="289" y="-73.4" font-family="Nimbus" font-size="12.00">tiene</text>
</g>
</g>
</svg>
