<?xml version="1.0" encoding="UTF-8" standalone="no"?>
<!DOCTYPE svg PUBLIC "-//W3C//DTD SVG 1.1//EN"
 "http://www.w3.org/Graphics/SVG/1.1/DTD/svg11.dtd">
<!-- Generated by graphviz version 2.38.0 (20140413.2041)
 -->
<!-- Title: ejemplo Pages: 1 -->
<svg width="436pt" height="331pt"
 viewBox="0.00 0.00 436.00 331.00" xmlns="http://www.w3.org/2000/svg" xmlns:xlink="http://www.w3.org/1999/xlink">
<g id="graph0" class="graph" transform="scale(1 1) rotate(0) translate(4 327)">
<title>ejemplo</title>
<polygon fill="white" stroke="none" points="-4,4 -4,-327 432,-327 432,4 -4,4"/>
<g id="clust1" class="cluster"><title>cluster_1</title>
<polygon fill="none" stroke="black" points="8,-8 8,-315 334,-315 334,-8 8,-8"/>
</g>
<g id="clust2" class="cluster"><title>cluster_2</title>
<polygon fill="none" stroke="black" points="342,-178 342,-230 420,-230 420,-178 342,-178"/>
</g>
<!-- A -->
<g id="node1" class="node"><title>A</title>
<path fill="lightgray" stroke="lightgray" stroke-width="2" d="M234,-307C234,-307 204,-307 204,-307 198,-307 192,-301 192,-295 192,-295 192,-283 192,-283 192,-277 198,-271 204,-271 204,-271 234,-271 234,-271 240,-271 246,-277 246,-283 246,-283 246,-295 246,-295 246,-301 240,-307 234,-307"/>
<text text-anchor="middle" x="219" y="-285.3" font-family="Nimbus" font-size="14.00">pepe</text>
</g>
<!-- B -->
<g id="node2" class="node"><title>B</title>
<path fill="lightgray" stroke="lightgray" stroke-width="2" d="M98,-222C98,-222 28,-222 28,-222 22,-222 16,-216 16,-210 16,-210 16,-198 16,-198 16,-192 22,-186 28,-186 28,-186 98,-186 98,-186 104,-186 110,-192 110,-198 110,-198 110,-210 110,-210 110,-216 104,-222 98,-222"/>
<text text-anchor="middle" x="63" y="-200.3" font-family="Nimbus" font-size="14.00">informático</text>
</g>
<!-- A&#45;&gt;B -->
<g id="edge1" class="edge"><title>A&#45;&gt;B</title>
<path fill="none" stroke="black" d="M191.856,-277.322C176.141,-270.846 156.141,-262.096 139,-253 124.776,-245.452 109.67,-236.19 96.7056,-227.822"/>
<polygon fill="black" stroke="black" points="98.3947,-224.745 88.1091,-222.204 94.5653,-230.605 98.3947,-224.745"/>
<text text-anchor="middle" x="167" y="-243.4" font-family="Nimbus" font-size="12.00">profesión</text>
</g>
<!-- C -->
<g id="node3" class="node"><title>C</title>
<path fill="lightgray" stroke="lightgray" stroke-width="2" d="M226,-222C226,-222 140,-222 140,-222 134,-222 128,-216 128,-210 128,-210 128,-198 128,-198 128,-192 134,-186 140,-186 140,-186 226,-186 226,-186 232,-186 238,-192 238,-198 238,-198 238,-210 238,-210 238,-216 232,-222 226,-222"/>
<text text-anchor="middle" x="183" y="-200.3" font-family="Nimbus" font-size="14.00">edad&#45;de&#45;pepe</text>
</g>
<!-- A&#45;&gt;C -->
<g id="edge2" class="edge"><title>A&#45;&gt;C</title>
<path fill="none" stroke="black" d="M211.541,-270.802C206.617,-259.451 200.069,-244.354 194.487,-231.484"/>
<polygon fill="black" stroke="black" points="197.64,-229.957 190.45,-222.176 191.218,-232.743 197.64,-229.957"/>
<text text-anchor="middle" x="218.5" y="-243.4" font-family="Nimbus" font-size="12.00">edad</text>
</g>
<!-- E -->
<g id="node5" class="node"><title>E</title>
<path fill="lightgray" stroke="lightgray" stroke-width="2" d="M313.5,-222C313.5,-222 268.5,-222 268.5,-222 262.5,-222 256.5,-216 256.5,-210 256.5,-210 256.5,-198 256.5,-198 256.5,-192 262.5,-186 268.5,-186 268.5,-186 313.5,-186 313.5,-186 319.5,-186 325.5,-192 325.5,-198 325.5,-198 325.5,-210 325.5,-210 325.5,-216 319.5,-222 313.5,-222"/>
<text text-anchor="middle" x="291" y="-200.3" font-family="Nimbus" font-size="14.00">hombre</text>
</g>
<!-- A&#45;&gt;E -->
<g id="edge4" class="edge"><title>A&#45;&gt;E</title>
<path fill="none" stroke="black" d="M233.918,-270.802C244.152,-259.006 257.894,-243.164 269.33,-229.981"/>
<polygon fill="black" stroke="black" points="272.192,-232.023 276.101,-222.176 266.904,-227.436 272.192,-232.023"/>
<text text-anchor="middle" x="285" y="-243.4" font-family="Nimbus" font-size="12.00">instancia</text>
</g>
<!-- H -->
<g id="node8" class="node"><title>H</title>
<path fill="lightgray" stroke="lightgray" stroke-width="2" d="M400,-222C400,-222 362,-222 362,-222 356,-222 350,-216 350,-210 350,-210 350,-198 350,-198 350,-192 356,-186 362,-186 362,-186 400,-186 400,-186 406,-186 412,-192 412,-198 412,-198 412,-210 412,-210 412,-216 406,-222 400,-222"/>
<text text-anchor="middle" x="381" y="-200.3" font-family="Nimbus" font-size="14.00">museo</text>
</g>
<!-- A&#45;&gt;H -->
<g id="edge7" class="edge"><title>A&#45;&gt;H</title>
<path fill="none" stroke="black" d="M246.346,-280.273C266.041,-274.178 292.921,-264.754 315,-253 327.956,-246.103 341.234,-236.928 352.452,-228.447"/>
<polygon fill="black" stroke="black" points="354.825,-231.037 360.589,-222.147 350.539,-225.502 354.825,-231.037"/>
<text text-anchor="middle" x="344.5" y="-243.4" font-family="Nimbus" font-size="12.00">vio</text>
</g>
<!-- D -->
<g id="node4" class="node"><title>D</title>
<path fill="lightgray" stroke="lightgray" stroke-width="2" d="M194,-137C194,-137 164,-137 164,-137 158,-137 152,-131 152,-125 152,-125 152,-113 152,-113 152,-107 158,-101 164,-101 164,-101 194,-101 194,-101 200,-101 206,-107 206,-113 206,-113 206,-125 206,-125 206,-131 200,-137 194,-137"/>
<text text-anchor="middle" x="179" y="-115.3" font-family="Nimbus" font-size="14.00">37</text>
</g>
<!-- C&#45;&gt;D -->
<g id="edge3" class="edge"><title>C&#45;&gt;D</title>
<path fill="none" stroke="black" d="M182.171,-185.802C181.635,-174.674 180.925,-159.945 180.313,-147.244"/>
<polygon fill="black" stroke="black" points="183.805,-146.996 179.828,-137.176 176.813,-147.333 183.805,-146.996"/>
<text text-anchor="middle" x="196.5" y="-158.4" font-family="Nimbus" font-size="12.00">valor</text>
</g>
<!-- F -->
<g id="node6" class="node"><title>F</title>
<path fill="lightgray" stroke="lightgray" stroke-width="2" d="M283.5,-137C283.5,-137 236.5,-137 236.5,-137 230.5,-137 224.5,-131 224.5,-125 224.5,-125 224.5,-113 224.5,-113 224.5,-107 230.5,-101 236.5,-101 236.5,-101 283.5,-101 283.5,-101 289.5,-101 295.5,-107 295.5,-113 295.5,-113 295.5,-125 295.5,-125 295.5,-131 289.5,-137 283.5,-137"/>
<text text-anchor="middle" x="260" y="-115.3" font-family="Nimbus" font-size="14.00">persona</text>
</g>
<!-- E&#45;&gt;F -->
<g id="edge5" class="edge"><title>E&#45;&gt;F</title>
<path fill="none" stroke="black" d="M284.577,-185.802C280.379,-174.562 274.809,-159.65 270.033,-146.863"/>
<polygon fill="black" stroke="black" points="273.193,-145.319 266.415,-137.176 266.635,-147.768 273.193,-145.319"/>
<text text-anchor="middle" x="312" y="-158.4" font-family="Nimbus" font-size="12.00">subclase&#45;de</text>
</g>
<!-- G -->
<g id="node7" class="node"><title>G</title>
<path fill="lightgray" stroke="lightgray" stroke-width="2" d="M280.5,-52C280.5,-52 239.5,-52 239.5,-52 233.5,-52 227.5,-46 227.5,-40 227.5,-40 227.5,-28 227.5,-28 227.5,-22 233.5,-16 239.5,-16 239.5,-16 280.5,-16 280.5,-16 286.5,-16 292.5,-22 292.5,-28 292.5,-28 292.5,-40 292.5,-40 292.5,-46 286.5,-52 280.5,-52"/>
<text text-anchor="middle" x="260" y="-30.3" font-family="Nimbus" font-size="14.00">cabeza</text>
</g>
<!-- F&#45;&gt;G -->
<g id="edge6" class="edge"><title>F&#45;&gt;G</title>
<path fill="none" stroke="black" d="M260,-100.802C260,-89.6736 260,-74.9448 260,-62.2439"/>
<polygon fill="black" stroke="black" points="263.5,-62.1756 260,-52.1756 256.5,-62.1757 263.5,-62.1756"/>
<text text-anchor="middle" x="274" y="-73.4" font-family="Nimbus" font-size="12.00">tiene</text>
</g>
</g>
</svg>
