<?xml version="1.0" encoding="UTF-8" standalone="no"?>
<!DOCTYPE svg PUBLIC "-//W3C//DTD SVG 1.1//EN"
 "http://www.w3.org/Graphics/SVG/1.1/DTD/svg11.dtd">
<!-- Generated by graphviz version 2.43.0 (0)
 -->
<!-- Title: ejemplo Pages: 1 -->
<svg width="422pt" height="214pt"
 viewBox="0.00 0.00 422.00 214.00" xmlns="http://www.w3.org/2000/svg" xmlns:xlink="http://www.w3.org/1999/xlink">
<g id="graph0" class="graph" transform="scale(1 1) rotate(0) translate(4 210)">
<title>ejemplo</title>
<polygon fill="white" stroke="transparent" points="-4,4 -4,-210 418,-210 418,4 -4,4"/>
<!-- A -->
<g id="node1" class="node">
<title>A</title>
<path fill="lightgray" stroke="lightgray" stroke-width="2" d="M259,-206C259,-206 179,-206 179,-206 173,-206 167,-200 167,-194 167,-194 167,-182 167,-182 167,-176 173,-170 179,-170 179,-170 259,-170 259,-170 265,-170 271,-176 271,-182 271,-182 271,-194 271,-194 271,-200 265,-206 259,-206"/>
<text text-anchor="middle" x="219" y="-184.3" font-family="Nimbus" font-size="14.00">compraVenta1</text>
</g>
<!-- B -->
<g id="node2" class="node">
<title>B</title>
<path fill="lightgray" stroke="lightgray" stroke-width="2" d="M88,-121C88,-121 12,-121 12,-121 6,-121 0,-115 0,-109 0,-109 0,-97 0,-97 0,-91 6,-85 12,-85 12,-85 88,-85 88,-85 94,-85 100,-91 100,-97 100,-97 100,-109 100,-109 100,-115 94,-121 88,-121"/>
<text text-anchor="middle" x="50" y="-99.3" font-family="Nimbus" font-size="14.00">CompraVenta</text>
</g>
<!-- A&#45;&gt;B -->
<g id="edge1" class="edge">
<title>A&#45;&gt;B</title>
<path fill="none" stroke="black" d="M166.92,-182.39C139.93,-177.94 107.58,-169.18 83,-152 74.84,-146.3 68.08,-137.89 62.85,-129.69"/>
<polygon fill="black" stroke="black" points="65.85,-127.89 57.77,-121.02 59.81,-131.42 65.85,-127.89"/>
<text text-anchor="middle" x="117.5" y="-142.4" font-family="Nimbus" font-size="12.00">instancia_de</text>
</g>
<!-- C -->
<g id="node3" class="node">
<title>C</title>
<path fill="lightgray" stroke="lightgray" stroke-width="2" d="M160,-121C160,-121 130,-121 130,-121 124,-121 118,-115 118,-109 118,-109 118,-97 118,-97 118,-91 124,-85 130,-85 130,-85 160,-85 160,-85 166,-85 172,-91 172,-97 172,-97 172,-109 172,-109 172,-115 166,-121 160,-121"/>
<text text-anchor="middle" x="145" y="-99.3" font-family="Nimbus" font-size="14.00">luis</text>
</g>
<!-- A&#45;&gt;C -->
<g id="edge2" class="edge">
<title>A&#45;&gt;C</title>
<path fill="none" stroke="black" d="M184.65,-169.83C177.11,-164.86 169.69,-158.89 164,-152 158.98,-145.92 155.16,-138.35 152.32,-131.03"/>
<polygon fill="black" stroke="black" points="155.56,-129.7 149.02,-121.37 148.94,-131.96 155.56,-129.7"/>
<text text-anchor="middle" x="189.5" y="-142.4" font-family="Nimbus" font-size="12.00">vendedor</text>
</g>
<!-- D -->
<g id="node4" class="node">
<title>D</title>
<path fill="lightgray" stroke="lightgray" stroke-width="2" d="M234,-121C234,-121 204,-121 204,-121 198,-121 192,-115 192,-109 192,-109 192,-97 192,-97 192,-91 198,-85 204,-85 204,-85 234,-85 234,-85 240,-85 246,-91 246,-97 246,-97 246,-109 246,-109 246,-115 240,-121 234,-121"/>
<text text-anchor="middle" x="219" y="-99.3" font-family="Nimbus" font-size="14.00">pepe</text>
</g>
<!-- A&#45;&gt;D -->
<g id="edge3" class="edge">
<title>A&#45;&gt;D</title>
<path fill="none" stroke="black" d="M219,-169.8C219,-158.67 219,-143.94 219,-131.24"/>
<polygon fill="black" stroke="black" points="222.5,-131.18 219,-121.18 215.5,-131.18 222.5,-131.18"/>
<text text-anchor="middle" x="248" y="-142.4" font-family="Nimbus" font-size="12.00">comprador</text>
</g>
<!-- E -->
<g id="node5" class="node">
<title>E</title>
<path fill="lightgray" stroke="lightgray" stroke-width="2" d="M310,-121C310,-121 280,-121 280,-121 274,-121 268,-115 268,-109 268,-109 268,-97 268,-97 268,-91 274,-85 280,-85 280,-85 310,-85 310,-85 316,-85 322,-91 322,-97 322,-97 322,-109 322,-109 322,-115 316,-121 310,-121"/>
<text text-anchor="middle" x="295" y="-99.3" font-family="Nimbus" font-size="14.00">reloj1</text>
</g>
<!-- A&#45;&gt;E -->
<g id="edge4" class="edge">
<title>A&#45;&gt;E</title>
<path fill="none" stroke="black" d="M256.66,-169.99C264.52,-165.07 272.18,-159.09 278,-152 282.94,-145.99 286.49,-138.44 289.03,-131.12"/>
<polygon fill="black" stroke="black" points="292.41,-132.03 291.89,-121.44 285.7,-130.04 292.41,-132.03"/>
<text text-anchor="middle" x="302" y="-142.4" font-family="Nimbus" font-size="12.00">objeto</text>
</g>
<!-- F -->
<g id="node6" class="node">
<title>F</title>
<path fill="lightgray" stroke="lightgray" stroke-width="2" d="M387,-121C387,-121 357,-121 357,-121 351,-121 345,-115 345,-109 345,-109 345,-97 345,-97 345,-91 351,-85 357,-85 357,-85 387,-85 387,-85 393,-85 399,-91 399,-97 399,-97 399,-109 399,-109 399,-115 393,-121 387,-121"/>
<text text-anchor="middle" x="372" y="-99.3" font-family="Nimbus" font-size="14.00">45</text>
</g>
<!-- A&#45;&gt;F -->
<g id="edge5" class="edge">
<title>A&#45;&gt;F</title>
<path fill="none" stroke="black" d="M271.02,-174.53C288.3,-169.1 307.16,-161.71 323,-152 333.26,-145.71 343.06,-136.91 351.16,-128.55"/>
<polygon fill="black" stroke="black" points="353.84,-130.8 358.08,-121.09 348.71,-126.04 353.84,-130.8"/>
<text text-anchor="middle" x="356" y="-142.4" font-family="Nimbus" font-size="12.00">precio</text>
</g>
<!-- G -->
<g id="node7" class="node">
<title>G</title>
<path fill="lightgray" stroke="lightgray" stroke-width="2" d="M305,-36C305,-36 275,-36 275,-36 269,-36 263,-30 263,-24 263,-24 263,-12 263,-12 263,-6 269,0 275,0 275,0 305,0 305,0 311,0 317,-6 317,-12 317,-12 317,-24 317,-24 317,-30 311,-36 305,-36"/>
<text text-anchor="middle" x="290" y="-14.3" font-family="Nimbus" font-size="14.00">Reloj</text>
</g>
<!-- E&#45;&gt;G -->
<g id="edge6" class="edge">
<title>E&#45;&gt;G</title>
<path fill="none" stroke="black" d="M292.73,-84.94C292.06,-79.24 291.39,-72.86 291,-67 290.55,-60.34 290.29,-53.15 290.13,-46.42"/>
<polygon fill="black" stroke="black" points="293.63,-46.29 289.97,-36.35 286.63,-46.4 293.63,-46.29"/>
<text text-anchor="middle" x="325.5" y="-57.4" font-family="Nimbus" font-size="12.00">instancia_de</text>
</g>
<!-- H -->
<g id="node8" class="node">
<title>H</title>
<path fill="lightgray" stroke="lightgray" stroke-width="2" d="M397,-36C397,-36 367,-36 367,-36 361,-36 355,-30 355,-24 355,-24 355,-12 355,-12 355,-6 361,0 367,0 367,0 397,0 397,0 403,0 409,-6 409,-12 409,-12 409,-24 409,-24 409,-30 403,-36 397,-36"/>
<text text-anchor="middle" x="382" y="-14.3" font-family="Nimbus" font-size="14.00">euro</text>
</g>
<!-- F&#45;&gt;H -->
<g id="edge7" class="edge">
<title>F&#45;&gt;H</title>
<path fill="none" stroke="black" d="M374.07,-84.8C375.41,-73.67 377.19,-58.94 378.72,-46.24"/>
<polygon fill="black" stroke="black" points="382.21,-46.52 379.93,-36.18 375.26,-45.69 382.21,-46.52"/>
<text text-anchor="middle" x="395.5" y="-57.4" font-family="Nimbus" font-size="12.00">unidad</text>
</g>
</g>
</svg>
