<?xml version="1.0" encoding="UTF-8" standalone="no"?>
<!DOCTYPE svg PUBLIC "-//W3C//DTD SVG 1.1//EN"
 "http://www.w3.org/Graphics/SVG/1.1/DTD/svg11.dtd">
<!-- Generated by graphviz version 2.43.0 (0)
 -->
<!-- Title: ejemplo Pages: 1 -->
<svg width="336pt" height="315pt"
 viewBox="0.00 0.00 335.50 315.00" xmlns="http://www.w3.org/2000/svg" xmlns:xlink="http://www.w3.org/1999/xlink">
<g id="graph0" class="graph" transform="scale(1 1) rotate(0) translate(4 311)">
<title>ejemplo</title>
<polygon fill="white" stroke="transparent" points="-4,4 -4,-311 331.5,-311 331.5,4 -4,4"/>
<g id="clust1" class="cluster">
<title>cluster_1</title>
<polygon fill="none" stroke="black" points="216.5,-8 216.5,-145 300.5,-145 300.5,-8 216.5,-8"/>
</g>
<!-- A -->
<g id="node1" class="node">
<title>A</title>
<path fill="lightgray" stroke="lightgray" stroke-width="2" d="M169.5,-307C169.5,-307 139.5,-307 139.5,-307 133.5,-307 127.5,-301 127.5,-295 127.5,-295 127.5,-283 127.5,-283 127.5,-277 133.5,-271 139.5,-271 139.5,-271 169.5,-271 169.5,-271 175.5,-271 181.5,-277 181.5,-283 181.5,-283 181.5,-295 181.5,-295 181.5,-301 175.5,-307 169.5,-307"/>
<text text-anchor="middle" x="154.5" y="-285.3" font-family="Nimbus" font-size="14.00">pepe</text>
</g>
<!-- B -->
<g id="node2" class="node">
<title>B</title>
<path fill="lightgray" stroke="lightgray" stroke-width="2" d="M71,-222C71,-222 12,-222 12,-222 6,-222 0,-216 0,-210 0,-210 0,-198 0,-198 0,-192 6,-186 12,-186 12,-186 71,-186 71,-186 77,-186 83,-192 83,-198 83,-198 83,-210 83,-210 83,-216 77,-222 71,-222"/>
<text text-anchor="middle" x="41.5" y="-200.3" font-family="Nimbus" font-size="14.00">informático</text>
</g>
<!-- A&#45;&gt;B -->
<g id="edge1" class="edge">
<title>A&#45;&gt;B</title>
<path fill="none" stroke="black" d="M127.47,-271.29C118.73,-265.67 109.08,-259.24 100.5,-253 90.07,-245.41 79.02,-236.63 69.33,-228.67"/>
<polygon fill="black" stroke="black" points="71.48,-225.91 61.55,-222.21 67.01,-231.29 71.48,-225.91"/>
<text text-anchor="middle" x="125.5" y="-243.4" font-family="Nimbus" font-size="12.00">profesión</text>
</g>
<!-- C -->
<g id="node3" class="node">
<title>C</title>
<path fill="lightgray" stroke="lightgray" stroke-width="2" d="M196,-222C196,-222 113,-222 113,-222 107,-222 101,-216 101,-210 101,-210 101,-198 101,-198 101,-192 107,-186 113,-186 113,-186 196,-186 196,-186 202,-186 208,-192 208,-198 208,-198 208,-210 208,-210 208,-216 202,-222 196,-222"/>
<text text-anchor="middle" x="154.5" y="-200.3" font-family="Nimbus" font-size="14.00">edad_de_pepe</text>
</g>
<!-- A&#45;&gt;C -->
<g id="edge2" class="edge">
<title>A&#45;&gt;C</title>
<path fill="none" stroke="black" d="M154.5,-270.8C154.5,-259.67 154.5,-244.94 154.5,-232.24"/>
<polygon fill="black" stroke="black" points="158,-232.18 154.5,-222.18 151,-232.18 158,-232.18"/>
<text text-anchor="middle" x="168.5" y="-243.4" font-family="Nimbus" font-size="12.00">edad</text>
</g>
<!-- E -->
<g id="node5" class="node">
<title>E</title>
<path fill="lightgray" stroke="lightgray" stroke-width="2" d="M279,-222C279,-222 238,-222 238,-222 232,-222 226,-216 226,-210 226,-210 226,-198 226,-198 226,-192 232,-186 238,-186 238,-186 279,-186 279,-186 285,-186 291,-192 291,-198 291,-198 291,-210 291,-210 291,-216 285,-222 279,-222"/>
<text text-anchor="middle" x="258.5" y="-200.3" font-family="Nimbus" font-size="14.00">Hombre</text>
</g>
<!-- A&#45;&gt;E -->
<g id="edge4" class="edge">
<title>A&#45;&gt;E</title>
<path fill="none" stroke="black" d="M176.05,-270.8C191.39,-258.56 212.18,-241.96 229.05,-228.5"/>
<polygon fill="black" stroke="black" points="231.35,-231.15 236.98,-222.18 226.98,-225.68 231.35,-231.15"/>
<text text-anchor="middle" x="247" y="-243.4" font-family="Nimbus" font-size="12.00">instancia_de</text>
</g>
<!-- D -->
<g id="node4" class="node">
<title>D</title>
<path fill="lightgray" stroke="lightgray" stroke-width="2" d="M169.5,-137C169.5,-137 139.5,-137 139.5,-137 133.5,-137 127.5,-131 127.5,-125 127.5,-125 127.5,-113 127.5,-113 127.5,-107 133.5,-101 139.5,-101 139.5,-101 169.5,-101 169.5,-101 175.5,-101 181.5,-107 181.5,-113 181.5,-113 181.5,-125 181.5,-125 181.5,-131 175.5,-137 169.5,-137"/>
<text text-anchor="middle" x="154.5" y="-115.3" font-family="Nimbus" font-size="14.00">37</text>
</g>
<!-- C&#45;&gt;D -->
<g id="edge3" class="edge">
<title>C&#45;&gt;D</title>
<path fill="none" stroke="black" d="M154.5,-185.8C154.5,-174.67 154.5,-159.94 154.5,-147.24"/>
<polygon fill="black" stroke="black" points="158,-147.18 154.5,-137.18 151,-147.18 158,-147.18"/>
<text text-anchor="middle" x="168" y="-158.4" font-family="Nimbus" font-size="12.00">valor</text>
</g>
<!-- F -->
<g id="node6" class="node">
<title>F</title>
<path fill="lightgray" stroke="lightgray" stroke-width="2" d="M280,-137C280,-137 237,-137 237,-137 231,-137 225,-131 225,-125 225,-125 225,-113 225,-113 225,-107 231,-101 237,-101 237,-101 280,-101 280,-101 286,-101 292,-107 292,-113 292,-113 292,-125 292,-125 292,-131 286,-137 280,-137"/>
<text text-anchor="middle" x="258.5" y="-115.3" font-family="Nimbus" font-size="14.00">Persona</text>
</g>
<!-- E&#45;&gt;F -->
<g id="edge5" class="edge">
<title>E&#45;&gt;F</title>
<path fill="none" stroke="black" d="M258.5,-185.8C258.5,-174.67 258.5,-159.94 258.5,-147.24"/>
<polygon fill="black" stroke="black" points="262,-147.18 258.5,-137.18 255,-147.18 262,-147.18"/>
<text text-anchor="middle" x="293" y="-158.4" font-family="Nimbus" font-size="12.00">subclase_de</text>
</g>
<!-- G -->
<g id="node7" class="node">
<title>G</title>
<path fill="lightgray" stroke="lightgray" stroke-width="2" d="M276.5,-52C276.5,-52 240.5,-52 240.5,-52 234.5,-52 228.5,-46 228.5,-40 228.5,-40 228.5,-28 228.5,-28 228.5,-22 234.5,-16 240.5,-16 240.5,-16 276.5,-16 276.5,-16 282.5,-16 288.5,-22 288.5,-28 288.5,-28 288.5,-40 288.5,-40 288.5,-46 282.5,-52 276.5,-52"/>
<text text-anchor="middle" x="258.5" y="-30.3" font-family="Nimbus" font-size="14.00">cabeza</text>
</g>
<!-- F&#45;&gt;G -->
<g id="edge6" class="edge">
<title>F&#45;&gt;G</title>
<path fill="none" stroke="black" d="M258.5,-100.8C258.5,-89.67 258.5,-74.94 258.5,-62.24"/>
<polygon fill="black" stroke="black" points="262,-62.18 258.5,-52.18 255,-62.18 262,-62.18"/>
<text text-anchor="middle" x="272" y="-73.4" font-family="Nimbus" font-size="12.00">tiene</text>
</g>
</g>
</svg>
