<?xml version="1.0" encoding="UTF-8" standalone="no"?>
<!DOCTYPE svg PUBLIC "-//W3C//DTD SVG 1.1//EN"
 "http://www.w3.org/Graphics/SVG/1.1/DTD/svg11.dtd">
<!-- Generated by graphviz version 2.43.0 (0)
 -->
<!-- Title: ejemplo Pages: 1 -->
<svg width="336pt" height="315pt"
 viewBox="0.00 0.00 335.50 315.00" xmlns="http://www.w3.org/2000/svg" xmlns:xlink="http://www.w3.org/1999/xlink">
<g id="graph0" class="graph" transform="scale(1 1) rotate(0) translate(4 311)">
<title>ejemplo</title>
<polygon fill="white" stroke="transparent" points="-4,4 -4,-311 331.5,-311 331.5,4 -4,4"/>
<g id="clust1" class="cluster">
<title>cluster_1</title>
<polygon fill="none" stroke="black" points="8,-162 8,-299 111,-299 111,-162 8,-162"/>
</g>
<!-- A -->
<g id="node1" class="node">
<title>A</title>
<path fill="lightgray" stroke="lightgray" stroke-width="2" d="M91,-291C91,-291 61,-291 61,-291 55,-291 49,-285 49,-279 49,-279 49,-267 49,-267 49,-261 55,-255 61,-255 61,-255 91,-255 91,-255 97,-255 103,-261 103,-267 103,-267 103,-279 103,-279 103,-285 97,-291 91,-291"/>
<text text-anchor="middle" x="76" y="-269.3" font-family="Nimbus" font-size="14.00">pepe</text>
</g>
<!-- B -->
<g id="node2" class="node">
<title>B</title>
<path fill="lightgray" stroke="lightgray" stroke-width="2" d="M190.5,-206C190.5,-206 131.5,-206 131.5,-206 125.5,-206 119.5,-200 119.5,-194 119.5,-194 119.5,-182 119.5,-182 119.5,-176 125.5,-170 131.5,-170 131.5,-170 190.5,-170 190.5,-170 196.5,-170 202.5,-176 202.5,-182 202.5,-182 202.5,-194 202.5,-194 202.5,-200 196.5,-206 190.5,-206"/>
<text text-anchor="middle" x="161" y="-184.3" font-family="Nimbus" font-size="14.00">informático</text>
</g>
<!-- A&#45;&gt;B -->
<g id="edge1" class="edge">
<title>A&#45;&gt;B</title>
<path fill="none" stroke="black" d="M103.18,-261.14C115.03,-255.36 128.38,-247.29 138,-237 143.77,-230.83 148.35,-222.95 151.86,-215.36"/>
<polygon fill="black" stroke="black" points="155.12,-216.64 155.73,-206.06 148.66,-213.95 155.12,-216.64"/>
<text text-anchor="middle" x="172" y="-227.4" font-family="Nimbus" font-size="12.00">profesión</text>
</g>
<!-- C -->
<g id="node3" class="node">
<title>C</title>
<path fill="lightgray" stroke="lightgray" stroke-width="2" d="M315.5,-206C315.5,-206 232.5,-206 232.5,-206 226.5,-206 220.5,-200 220.5,-194 220.5,-194 220.5,-182 220.5,-182 220.5,-176 226.5,-170 232.5,-170 232.5,-170 315.5,-170 315.5,-170 321.5,-170 327.5,-176 327.5,-182 327.5,-182 327.5,-194 327.5,-194 327.5,-200 321.5,-206 315.5,-206"/>
<text text-anchor="middle" x="274" y="-184.3" font-family="Nimbus" font-size="14.00">edad_de_pepe</text>
</g>
<!-- A&#45;&gt;C -->
<g id="edge2" class="edge">
<title>A&#45;&gt;C</title>
<path fill="none" stroke="black" d="M103.18,-266.92C129.08,-261.51 168.8,-251.66 201,-237 215.8,-230.26 231.02,-220.74 243.7,-211.96"/>
<polygon fill="black" stroke="black" points="245.91,-214.68 252.04,-206.03 241.86,-208.97 245.91,-214.68"/>
<text text-anchor="middle" x="238" y="-227.4" font-family="Nimbus" font-size="12.00">edad</text>
</g>
<!-- E -->
<g id="node5" class="node">
<title>E</title>
<path fill="lightgray" stroke="lightgray" stroke-width="2" d="M69.5,-206C69.5,-206 28.5,-206 28.5,-206 22.5,-206 16.5,-200 16.5,-194 16.5,-194 16.5,-182 16.5,-182 16.5,-176 22.5,-170 28.5,-170 28.5,-170 69.5,-170 69.5,-170 75.5,-170 81.5,-176 81.5,-182 81.5,-182 81.5,-194 81.5,-194 81.5,-200 75.5,-206 69.5,-206"/>
<text text-anchor="middle" x="49" y="-184.3" font-family="Nimbus" font-size="14.00">Hombre</text>
</g>
<!-- A&#45;&gt;E -->
<g id="edge4" class="edge">
<title>A&#45;&gt;E</title>
<path fill="none" stroke="black" d="M70.41,-254.8C66.75,-243.56 61.9,-228.65 57.74,-215.86"/>
<polygon fill="black" stroke="black" points="61.01,-214.6 54.59,-206.18 54.35,-216.77 61.01,-214.6"/>
<text text-anchor="middle" x="99.5" y="-227.4" font-family="Nimbus" font-size="12.00">instancia_de</text>
</g>
<!-- D -->
<g id="node4" class="node">
<title>D</title>
<path fill="lightgray" stroke="lightgray" stroke-width="2" d="M289,-121C289,-121 259,-121 259,-121 253,-121 247,-115 247,-109 247,-109 247,-97 247,-97 247,-91 253,-85 259,-85 259,-85 289,-85 289,-85 295,-85 301,-91 301,-97 301,-97 301,-109 301,-109 301,-115 295,-121 289,-121"/>
<text text-anchor="middle" x="274" y="-99.3" font-family="Nimbus" font-size="14.00">37</text>
</g>
<!-- C&#45;&gt;D -->
<g id="edge3" class="edge">
<title>C&#45;&gt;D</title>
<path fill="none" stroke="black" d="M274,-169.8C274,-158.67 274,-143.94 274,-131.24"/>
<polygon fill="black" stroke="black" points="277.5,-131.18 274,-121.18 270.5,-131.18 277.5,-131.18"/>
<text text-anchor="middle" x="287.5" y="-142.4" font-family="Nimbus" font-size="12.00">valor</text>
</g>
<!-- F -->
<g id="node6" class="node">
<title>F</title>
<path fill="lightgray" stroke="lightgray" stroke-width="2" d="M70.5,-121C70.5,-121 27.5,-121 27.5,-121 21.5,-121 15.5,-115 15.5,-109 15.5,-109 15.5,-97 15.5,-97 15.5,-91 21.5,-85 27.5,-85 27.5,-85 70.5,-85 70.5,-85 76.5,-85 82.5,-91 82.5,-97 82.5,-97 82.5,-109 82.5,-109 82.5,-115 76.5,-121 70.5,-121"/>
<text text-anchor="middle" x="49" y="-99.3" font-family="Nimbus" font-size="14.00">Persona</text>
</g>
<!-- E&#45;&gt;F -->
<g id="edge5" class="edge">
<title>E&#45;&gt;F</title>
<path fill="none" stroke="black" d="M49,-169.8C49,-158.67 49,-143.94 49,-131.24"/>
<polygon fill="black" stroke="black" points="52.5,-131.18 49,-121.18 45.5,-131.18 52.5,-131.18"/>
<text text-anchor="middle" x="83.5" y="-142.4" font-family="Nimbus" font-size="12.00">subclase_de</text>
</g>
<!-- G -->
<g id="node7" class="node">
<title>G</title>
<path fill="lightgray" stroke="lightgray" stroke-width="2" d="M67,-36C67,-36 31,-36 31,-36 25,-36 19,-30 19,-24 19,-24 19,-12 19,-12 19,-6 25,0 31,0 31,0 67,0 67,0 73,0 79,-6 79,-12 79,-12 79,-24 79,-24 79,-30 73,-36 67,-36"/>
<text text-anchor="middle" x="49" y="-14.3" font-family="Nimbus" font-size="14.00">cabeza</text>
</g>
<!-- F&#45;&gt;G -->
<g id="edge6" class="edge">
<title>F&#45;&gt;G</title>
<path fill="none" stroke="black" d="M49,-84.8C49,-73.67 49,-58.94 49,-46.24"/>
<polygon fill="black" stroke="black" points="52.5,-46.18 49,-36.18 45.5,-46.18 52.5,-46.18"/>
<text text-anchor="middle" x="62.5" y="-57.4" font-family="Nimbus" font-size="12.00">tiene</text>
</g>
</g>
</svg>
