<?xml version="1.0" encoding="UTF-8" standalone="no"?>
<!DOCTYPE svg PUBLIC "-//W3C//DTD SVG 1.1//EN"
 "http://www.w3.org/Graphics/SVG/1.1/DTD/svg11.dtd">
<!-- Generated by graphviz version 2.38.0 (20140413.2041)
 -->
<!-- Title: ejemplo Pages: 1 -->
<svg width="230pt" height="214pt"
 viewBox="0.00 0.00 230.00 214.00" xmlns="http://www.w3.org/2000/svg" xmlns:xlink="http://www.w3.org/1999/xlink">
<g id="graph0" class="graph" transform="scale(1 1) rotate(0) translate(4 210)">
<title>ejemplo</title>
<polygon fill="white" stroke="none" points="-4,4 -4,-210 226,-210 226,4 -4,4"/>
<!-- A -->
<g id="node1" class="node"><title>A</title>
<path fill="lightgray" stroke="lightgray" stroke-width="2" d="M111,-206C111,-206 81,-206 81,-206 75,-206 69,-200 69,-194 69,-194 69,-182 69,-182 69,-176 75,-170 81,-170 81,-170 111,-170 111,-170 117,-170 123,-176 123,-182 123,-182 123,-194 123,-194 123,-200 117,-206 111,-206"/>
<text text-anchor="middle" x="96" y="-184.3" font-family="Nimbus" font-size="14.00">pepe</text>
</g>
<!-- B -->
<g id="node2" class="node"><title>B</title>
<path fill="lightgray" stroke="lightgray" stroke-width="2" d="M82,-121C82,-121 12,-121 12,-121 6,-121 -7.10543e-15,-115 -7.10543e-15,-109 -7.10543e-15,-109 -7.10543e-15,-97 -7.10543e-15,-97 -7.10543e-15,-91 6,-85 12,-85 12,-85 82,-85 82,-85 88,-85 94,-91 94,-97 94,-97 94,-109 94,-109 94,-115 88,-121 82,-121"/>
<text text-anchor="middle" x="47" y="-99.3" font-family="Nimbus" font-size="14.00">informático</text>
</g>
<!-- A&#45;&gt;B -->
<g id="edge1" class="edge"><title>A&#45;&gt;B</title>
<path fill="none" stroke="black" d="M80.8082,-169.856C76.3602,-164.371 71.7027,-158.127 68,-152 63.9895,-145.363 60.3212,-137.824 57.2121,-130.719"/>
<polygon fill="black" stroke="black" points="60.4165,-129.309 53.3392,-121.425 53.9551,-132.002 60.4165,-129.309"/>
<text text-anchor="middle" x="96" y="-142.4" font-family="Nimbus" font-size="12.00">profesión</text>
</g>
<!-- C -->
<g id="node3" class="node"><title>C</title>
<path fill="lightgray" stroke="lightgray" stroke-width="2" d="M210,-121C210,-121 124,-121 124,-121 118,-121 112,-115 112,-109 112,-109 112,-97 112,-97 112,-91 118,-85 124,-85 124,-85 210,-85 210,-85 216,-85 222,-91 222,-97 222,-97 222,-109 222,-109 222,-115 216,-121 210,-121"/>
<text text-anchor="middle" x="167" y="-99.3" font-family="Nimbus" font-size="14.00">edad&#45;de&#45;pepe</text>
</g>
<!-- A&#45;&gt;C -->
<g id="edge2" class="edge"><title>A&#45;&gt;C</title>
<path fill="none" stroke="black" d="M110.711,-169.802C120.802,-158.006 134.353,-142.164 145.631,-128.981"/>
<polygon fill="black" stroke="black" points="148.467,-131.05 152.308,-121.176 143.148,-126.5 148.467,-131.05"/>
<text text-anchor="middle" x="149.5" y="-142.4" font-family="Nimbus" font-size="12.00">edad</text>
</g>
<!-- D -->
<g id="node4" class="node"><title>D</title>
<path fill="lightgray" stroke="lightgray" stroke-width="2" d="M182,-36C182,-36 152,-36 152,-36 146,-36 140,-30 140,-24 140,-24 140,-12 140,-12 140,-6 146,-0 152,-0 152,-0 182,-0 182,-0 188,-0 194,-6 194,-12 194,-12 194,-24 194,-24 194,-30 188,-36 182,-36"/>
<text text-anchor="middle" x="167" y="-14.3" font-family="Nimbus" font-size="14.00">37</text>
</g>
<!-- C&#45;&gt;D -->
<g id="edge3" class="edge"><title>C&#45;&gt;D</title>
<path fill="none" stroke="black" d="M167,-84.8023C167,-73.6736 167,-58.9448 167,-46.2439"/>
<polygon fill="black" stroke="black" points="170.5,-46.1756 167,-36.1756 163.5,-46.1757 170.5,-46.1756"/>
<text text-anchor="middle" x="181.5" y="-57.4" font-family="Nimbus" font-size="12.00">valor</text>
</g>
</g>
</svg>
