<?xml version="1.0" encoding="UTF-8" standalone="no"?>
<!DOCTYPE svg PUBLIC "-//W3C//DTD SVG 1.1//EN"
 "http://www.w3.org/Graphics/SVG/1.1/DTD/svg11.dtd">
<!-- Generated by graphviz version 2.43.0 (0)
 -->
<!-- Title: ejemplo Pages: 1 -->
<svg width="216pt" height="214pt"
 viewBox="0.00 0.00 216.00 214.00" xmlns="http://www.w3.org/2000/svg" xmlns:xlink="http://www.w3.org/1999/xlink">
<g id="graph0" class="graph" transform="scale(1 1) rotate(0) translate(4 210)">
<title>ejemplo</title>
<polygon fill="white" stroke="transparent" points="-4,4 -4,-210 212,-210 212,4 -4,4"/>
<!-- A -->
<g id="node1" class="node">
<title>A</title>
<path fill="lightgray" stroke="lightgray" stroke-width="2" d="M102.5,-206C102.5,-206 72.5,-206 72.5,-206 66.5,-206 60.5,-200 60.5,-194 60.5,-194 60.5,-182 60.5,-182 60.5,-176 66.5,-170 72.5,-170 72.5,-170 102.5,-170 102.5,-170 108.5,-170 114.5,-176 114.5,-182 114.5,-182 114.5,-194 114.5,-194 114.5,-200 108.5,-206 102.5,-206"/>
<text text-anchor="middle" x="87.5" y="-184.3" font-family="Nimbus" font-size="14.00">pepe</text>
</g>
<!-- B -->
<g id="node2" class="node">
<title>B</title>
<path fill="lightgray" stroke="lightgray" stroke-width="2" d="M71,-121C71,-121 12,-121 12,-121 6,-121 0,-115 0,-109 0,-109 0,-97 0,-97 0,-91 6,-85 12,-85 12,-85 71,-85 71,-85 77,-85 83,-91 83,-97 83,-97 83,-109 83,-109 83,-115 77,-121 71,-121"/>
<text text-anchor="middle" x="41.5" y="-99.3" font-family="Nimbus" font-size="14.00">informático</text>
</g>
<!-- A&#45;&gt;B -->
<g id="edge1" class="edge">
<title>A&#45;&gt;B</title>
<path fill="none" stroke="black" d="M74.04,-169.67C70.07,-164.17 65.89,-157.97 62.5,-152 58.67,-145.26 55.06,-137.68 51.96,-130.58"/>
<polygon fill="black" stroke="black" points="55.16,-129.16 48.05,-121.3 48.7,-131.88 55.16,-129.16"/>
<text text-anchor="middle" x="87.5" y="-142.4" font-family="Nimbus" font-size="12.00">profesión</text>
</g>
<!-- C -->
<g id="node3" class="node">
<title>C</title>
<path fill="lightgray" stroke="lightgray" stroke-width="2" d="M196,-121C196,-121 113,-121 113,-121 107,-121 101,-115 101,-109 101,-109 101,-97 101,-97 101,-91 107,-85 113,-85 113,-85 196,-85 196,-85 202,-85 208,-91 208,-97 208,-97 208,-109 208,-109 208,-115 202,-121 196,-121"/>
<text text-anchor="middle" x="154.5" y="-99.3" font-family="Nimbus" font-size="14.00">edad_de_pepe</text>
</g>
<!-- A&#45;&gt;C -->
<g id="edge2" class="edge">
<title>A&#45;&gt;C</title>
<path fill="none" stroke="black" d="M101.38,-169.8C110.9,-158.01 123.69,-142.16 134.33,-128.98"/>
<polygon fill="black" stroke="black" points="137.08,-131.16 140.64,-121.18 131.63,-126.76 137.08,-131.16"/>
<text text-anchor="middle" x="138.5" y="-142.4" font-family="Nimbus" font-size="12.00">edad</text>
</g>
<!-- D -->
<g id="node4" class="node">
<title>D</title>
<path fill="lightgray" stroke="lightgray" stroke-width="2" d="M169.5,-36C169.5,-36 139.5,-36 139.5,-36 133.5,-36 127.5,-30 127.5,-24 127.5,-24 127.5,-12 127.5,-12 127.5,-6 133.5,0 139.5,0 139.5,0 169.5,0 169.5,0 175.5,0 181.5,-6 181.5,-12 181.5,-12 181.5,-24 181.5,-24 181.5,-30 175.5,-36 169.5,-36"/>
<text text-anchor="middle" x="154.5" y="-14.3" font-family="Nimbus" font-size="14.00">37</text>
</g>
<!-- C&#45;&gt;D -->
<g id="edge3" class="edge">
<title>C&#45;&gt;D</title>
<path fill="none" stroke="black" d="M154.5,-84.8C154.5,-73.67 154.5,-58.94 154.5,-46.24"/>
<polygon fill="black" stroke="black" points="158,-46.18 154.5,-36.18 151,-46.18 158,-46.18"/>
<text text-anchor="middle" x="168" y="-57.4" font-family="Nimbus" font-size="12.00">valor</text>
</g>
</g>
</svg>
