<?xml version="1.0" encoding="UTF-8" standalone="no"?>
<!DOCTYPE svg PUBLIC "-//W3C//DTD SVG 1.1//EN"
 "http://www.w3.org/Graphics/SVG/1.1/DTD/svg11.dtd">
<!-- Generated by graphviz version 2.43.0 (0)
 -->
<!-- Title: ejemplo Pages: 1 -->
<svg width="317pt" height="299pt"
 viewBox="0.00 0.00 317.00 299.00" xmlns="http://www.w3.org/2000/svg" xmlns:xlink="http://www.w3.org/1999/xlink">
<g id="graph0" class="graph" transform="scale(1 1) rotate(0) translate(4 295)">
<title>ejemplo</title>
<polygon fill="white" stroke="transparent" points="-4,4 -4,-295 313,-295 313,4 -4,4"/>
<g id="clust1" class="cluster">
<title>cluster_1</title>
<polygon fill="none" stroke="black" points="91.5,-77 91.5,-214 194.5,-214 194.5,-77 91.5,-77"/>
</g>
<!-- A -->
<g id="node1" class="node">
<title>A</title>
<path fill="lightgray" stroke="lightgray" stroke-width="2" d="M148.5,-291C148.5,-291 118.5,-291 118.5,-291 112.5,-291 106.5,-285 106.5,-279 106.5,-279 106.5,-267 106.5,-267 106.5,-261 112.5,-255 118.5,-255 118.5,-255 148.5,-255 148.5,-255 154.5,-255 160.5,-261 160.5,-267 160.5,-267 160.5,-279 160.5,-279 160.5,-285 154.5,-291 148.5,-291"/>
<text text-anchor="middle" x="133.5" y="-269.3" font-family="Nimbus" font-size="14.00">pepe</text>
</g>
<!-- B -->
<g id="node2" class="node">
<title>B</title>
<path fill="lightgray" stroke="lightgray" stroke-width="2" d="M71,-206C71,-206 12,-206 12,-206 6,-206 0,-200 0,-194 0,-194 0,-182 0,-182 0,-176 6,-170 12,-170 12,-170 71,-170 71,-170 77,-170 83,-176 83,-182 83,-182 83,-194 83,-194 83,-200 77,-206 71,-206"/>
<text text-anchor="middle" x="41.5" y="-184.3" font-family="Nimbus" font-size="14.00">informático</text>
</g>
<!-- A&#45;&gt;B -->
<g id="edge1" class="edge">
<title>A&#45;&gt;B</title>
<path fill="none" stroke="black" d="M106.44,-256.88C97.41,-251.22 87.6,-244.37 79.5,-237 72.11,-230.28 65.02,-222.02 59.01,-214.26"/>
<polygon fill="black" stroke="black" points="61.74,-212.06 52.95,-206.13 56.13,-216.24 61.74,-212.06"/>
<text text-anchor="middle" x="104.5" y="-227.4" font-family="Nimbus" font-size="12.00">profesión</text>
</g>
<!-- C -->
<g id="node3" class="node">
<title>C</title>
<path fill="lightgray" stroke="lightgray" stroke-width="2" d="M297,-206C297,-206 214,-206 214,-206 208,-206 202,-200 202,-194 202,-194 202,-182 202,-182 202,-176 208,-170 214,-170 214,-170 297,-170 297,-170 303,-170 309,-176 309,-182 309,-182 309,-194 309,-194 309,-200 303,-206 297,-206"/>
<text text-anchor="middle" x="255.5" y="-184.3" font-family="Nimbus" font-size="14.00">edad_de_pepe</text>
</g>
<!-- A&#45;&gt;C -->
<g id="edge2" class="edge">
<title>A&#45;&gt;C</title>
<path fill="none" stroke="black" d="M160.67,-261.51C174.94,-255.39 192.34,-246.92 206.5,-237 215.86,-230.44 225.09,-222.05 232.98,-214.13"/>
<polygon fill="black" stroke="black" points="235.96,-216.08 240.36,-206.44 230.91,-211.22 235.96,-216.08"/>
<text text-anchor="middle" x="236.5" y="-227.4" font-family="Nimbus" font-size="12.00">edad</text>
</g>
<!-- E -->
<g id="node5" class="node">
<title>E</title>
<path fill="lightgray" stroke="lightgray" stroke-width="2" d="M154,-206C154,-206 113,-206 113,-206 107,-206 101,-200 101,-194 101,-194 101,-182 101,-182 101,-176 107,-170 113,-170 113,-170 154,-170 154,-170 160,-170 166,-176 166,-182 166,-182 166,-194 166,-194 166,-200 160,-206 154,-206"/>
<text text-anchor="middle" x="133.5" y="-184.3" font-family="Nimbus" font-size="14.00">Hombre</text>
</g>
<!-- A&#45;&gt;E -->
<g id="edge4" class="edge">
<title>A&#45;&gt;E</title>
<path fill="none" stroke="black" d="M133.5,-254.8C133.5,-243.67 133.5,-228.94 133.5,-216.24"/>
<polygon fill="black" stroke="black" points="137,-216.18 133.5,-206.18 130,-216.18 137,-216.18"/>
<text text-anchor="middle" x="168" y="-227.4" font-family="Nimbus" font-size="12.00">instancia_de</text>
</g>
<!-- D -->
<g id="node4" class="node">
<title>D</title>
<path fill="lightgray" stroke="lightgray" stroke-width="2" d="M270.5,-121C270.5,-121 240.5,-121 240.5,-121 234.5,-121 228.5,-115 228.5,-109 228.5,-109 228.5,-97 228.5,-97 228.5,-91 234.5,-85 240.5,-85 240.5,-85 270.5,-85 270.5,-85 276.5,-85 282.5,-91 282.5,-97 282.5,-97 282.5,-109 282.5,-109 282.5,-115 276.5,-121 270.5,-121"/>
<text text-anchor="middle" x="255.5" y="-99.3" font-family="Nimbus" font-size="14.00">37</text>
</g>
<!-- C&#45;&gt;D -->
<g id="edge3" class="edge">
<title>C&#45;&gt;D</title>
<path fill="none" stroke="black" d="M255.5,-169.8C255.5,-158.67 255.5,-143.94 255.5,-131.24"/>
<polygon fill="black" stroke="black" points="259,-131.18 255.5,-121.18 252,-131.18 259,-131.18"/>
<text text-anchor="middle" x="269" y="-142.4" font-family="Nimbus" font-size="12.00">valor</text>
</g>
<!-- F -->
<g id="node6" class="node">
<title>F</title>
<path fill="lightgray" stroke="lightgray" stroke-width="2" d="M155,-121C155,-121 112,-121 112,-121 106,-121 100,-115 100,-109 100,-109 100,-97 100,-97 100,-91 106,-85 112,-85 112,-85 155,-85 155,-85 161,-85 167,-91 167,-97 167,-97 167,-109 167,-109 167,-115 161,-121 155,-121"/>
<text text-anchor="middle" x="133.5" y="-99.3" font-family="Nimbus" font-size="14.00">Persona</text>
</g>
<!-- E&#45;&gt;F -->
<g id="edge5" class="edge">
<title>E&#45;&gt;F</title>
<path fill="none" stroke="black" d="M133.5,-169.8C133.5,-158.67 133.5,-143.94 133.5,-131.24"/>
<polygon fill="black" stroke="black" points="137,-131.18 133.5,-121.18 130,-131.18 137,-131.18"/>
<text text-anchor="middle" x="168" y="-142.4" font-family="Nimbus" font-size="12.00">subclase_de</text>
</g>
<!-- G -->
<g id="node7" class="node">
<title>G</title>
<path fill="lightgray" stroke="lightgray" stroke-width="2" d="M151.5,-36C151.5,-36 115.5,-36 115.5,-36 109.5,-36 103.5,-30 103.5,-24 103.5,-24 103.5,-12 103.5,-12 103.5,-6 109.5,0 115.5,0 115.5,0 151.5,0 151.5,0 157.5,0 163.5,-6 163.5,-12 163.5,-12 163.5,-24 163.5,-24 163.5,-30 157.5,-36 151.5,-36"/>
<text text-anchor="middle" x="133.5" y="-14.3" font-family="Nimbus" font-size="14.00">cabeza</text>
</g>
<!-- F&#45;&gt;G -->
<g id="edge6" class="edge">
<title>F&#45;&gt;G</title>
<path fill="none" stroke="black" d="M133.5,-84.8C133.5,-73.67 133.5,-58.94 133.5,-46.24"/>
<polygon fill="black" stroke="black" points="137,-46.18 133.5,-36.18 130,-46.18 137,-46.18"/>
<text text-anchor="middle" x="147" y="-57.4" font-family="Nimbus" font-size="12.00">tiene</text>
</g>
</g>
</svg>
