<?xml version="1.0" encoding="UTF-8" standalone="no"?>
<!DOCTYPE svg PUBLIC "-//W3C//DTD SVG 1.1//EN"
 "http://www.w3.org/Graphics/SVG/1.1/DTD/svg11.dtd">
<!-- Generated by graphviz version 2.38.0 (20140413.2041)
 -->
<!-- Title: ejemplo Pages: 1 -->
<svg width="641pt" height="322pt"
 viewBox="0.00 0.00 641.00 322.00" xmlns="http://www.w3.org/2000/svg" xmlns:xlink="http://www.w3.org/1999/xlink">
<g id="graph0" class="graph" transform="scale(1 1) rotate(0) translate(4 318)">
<title>ejemplo</title>
<polygon fill="white" stroke="none" points="-4,4 -4,-318 637,-318 637,4 -4,4"/>
<!-- A -->
<g id="node1" class="node"><title>A</title>
<path fill="lightgray" stroke="lightgray" stroke-width="2" d="M277.5,-314C277.5,-314 235.5,-314 235.5,-314 229.5,-314 223.5,-308 223.5,-302 223.5,-302 223.5,-290 223.5,-290 223.5,-284 229.5,-278 235.5,-278 235.5,-278 277.5,-278 277.5,-278 283.5,-278 289.5,-284 289.5,-290 289.5,-290 289.5,-302 289.5,-302 289.5,-308 283.5,-314 277.5,-314"/>
<text text-anchor="middle" x="256.5" y="-292.3" font-family="Nimbus" font-size="14.00">Dumbo</text>
</g>
<!-- B -->
<g id="node2" class="node"><title>B</title>
<path fill="lightgray" stroke="lightgray" stroke-width="2" d="M202.5,-229C202.5,-229 152.5,-229 152.5,-229 146.5,-229 140.5,-223 140.5,-217 140.5,-217 140.5,-205 140.5,-205 140.5,-199 146.5,-193 152.5,-193 152.5,-193 202.5,-193 202.5,-193 208.5,-193 214.5,-199 214.5,-205 214.5,-205 214.5,-217 214.5,-217 214.5,-223 208.5,-229 202.5,-229"/>
<text text-anchor="middle" x="177.5" y="-207.3" font-family="Nimbus" font-size="14.00">Elefante</text>
</g>
<!-- A&#45;&gt;B -->
<g id="edge1" class="edge"><title>A&#45;&gt;B</title>
<path fill="none" stroke="black" d="M240.131,-277.802C228.797,-265.895 213.54,-249.865 200.922,-236.608"/>
<polygon fill="black" stroke="black" points="203.278,-234.006 193.848,-229.176 198.207,-238.832 203.278,-234.006"/>
<text text-anchor="middle" x="248.5" y="-250.4" font-family="Nimbus" font-size="12.00">instancia</text>
</g>
<!-- C -->
<g id="node5" class="node"><title>C</title>
<path fill="lightgray" stroke="lightgray" stroke-width="2" d="M621,-175C621,-175 584,-175 584,-175 578,-175 572,-169 572,-163 572,-163 572,-151 572,-151 572,-145 578,-139 584,-139 584,-139 621,-139 621,-139 627,-139 633,-145 633,-151 633,-151 633,-163 633,-163 633,-169 627,-175 621,-175"/>
<text text-anchor="middle" x="602.5" y="-153.3" font-family="Nimbus" font-size="14.00">Macho</text>
</g>
<!-- A&#45;&gt;C -->
<g id="edge4" class="edge"><title>A&#45;&gt;C</title>
<path fill="none" stroke="black" d="M289.676,-281.864C353.517,-256.586 493.233,-201.265 562.264,-173.932"/>
<polygon fill="black" stroke="black" points="563.909,-177.045 571.918,-170.109 561.332,-170.536 563.909,-177.045"/>
<text text-anchor="middle" x="396.5" y="-250.4" font-family="Nimbus" font-size="12.00">instancia</text>
</g>
<!-- J -->
<g id="node7" class="node"><title>J</title>
<path fill="lightgray" stroke="lightgray" stroke-width="2" d="M215.5,-121C215.5,-121 159.5,-121 159.5,-121 153.5,-121 147.5,-115 147.5,-109 147.5,-109 147.5,-97 147.5,-97 147.5,-91 153.5,-85 159.5,-85 159.5,-85 215.5,-85 215.5,-85 221.5,-85 227.5,-91 227.5,-97 227.5,-97 227.5,-109 227.5,-109 227.5,-115 221.5,-121 215.5,-121"/>
<text text-anchor="middle" x="187.5" y="-99.3" font-family="Nimbus" font-size="14.00">Mamífero</text>
</g>
<!-- B&#45;&gt;J -->
<g id="edge8" class="edge"><title>B&#45;&gt;J</title>
<path fill="none" stroke="black" d="M140.48,-203.74C123.774,-198.868 105.566,-190.241 95.5,-175 86.6823,-161.649 86.4178,-152.172 95.5,-139 100.89,-131.183 118.937,-123.557 137.636,-117.429"/>
<polygon fill="black" stroke="black" points="138.914,-120.697 147.411,-114.369 136.822,-114.017 138.914,-120.697"/>
<text text-anchor="middle" x="130.5" y="-153.9" font-family="Nimbus" font-size="12.00">subclase&#45;de</text>
</g>
<!-- E -->
<g id="node8" class="node"><title>E</title>
<path fill="lightgray" stroke="lightgray" stroke-width="2" d="M460.5,-121C460.5,-121 430.5,-121 430.5,-121 424.5,-121 418.5,-115 418.5,-109 418.5,-109 418.5,-97 418.5,-97 418.5,-91 424.5,-85 430.5,-85 430.5,-85 460.5,-85 460.5,-85 466.5,-85 472.5,-91 472.5,-97 472.5,-97 472.5,-109 472.5,-109 472.5,-115 466.5,-121 460.5,-121"/>
<text text-anchor="middle" x="445.5" y="-99.3" font-family="Nimbus" font-size="14.00">Gris</text>
</g>
<!-- B&#45;&gt;E -->
<g id="edge9" class="edge"><title>B&#45;&gt;E</title>
<path fill="none" stroke="black" d="M214.753,-196C218.357,-194.89 221.98,-193.866 225.5,-193 280.432,-179.491 305.249,-207.57 351.5,-175 366.292,-164.584 357.398,-151.476 370.5,-139 381.302,-128.715 395.675,-121.016 408.948,-115.497"/>
<polygon fill="black" stroke="black" points="410.288,-118.731 418.351,-111.858 407.761,-112.203 410.288,-118.731"/>
<text text-anchor="middle" x="395" y="-153.9" font-family="Nimbus" font-size="12.00">de&#45;color</text>
</g>
<!-- G -->
<g id="node3" class="node"><title>G</title>
<path fill="lightgray" stroke="lightgray" stroke-width="2" d="M153,-314C153,-314 84,-314 84,-314 78,-314 72,-308 72,-302 72,-302 72,-290 72,-290 72,-284 78,-278 84,-278 84,-278 153,-278 153,-278 159,-278 165,-284 165,-290 165,-290 165,-302 165,-302 165,-308 159,-314 153,-314"/>
<text text-anchor="middle" x="118.5" y="-292.3" font-family="Nimbus" font-size="14.00">Mrs. Jumbo</text>
</g>
<!-- G&#45;&gt;B -->
<g id="edge2" class="edge"><title>G&#45;&gt;B</title>
<path fill="none" stroke="black" d="M130.725,-277.802C139.031,-266.117 150.159,-250.463 159.477,-237.355"/>
<polygon fill="black" stroke="black" points="162.35,-239.354 165.291,-229.176 156.644,-235.298 162.35,-239.354"/>
<text text-anchor="middle" x="178.5" y="-250.4" font-family="Nimbus" font-size="12.00">instancia</text>
</g>
<!-- H -->
<g id="node4" class="node"><title>H</title>
<path fill="lightgray" stroke="lightgray" stroke-width="2" d="M59,-175C59,-175 12,-175 12,-175 6,-175 0,-169 0,-163 0,-163 0,-151 0,-151 0,-145 6,-139 12,-139 12,-139 59,-139 59,-139 65,-139 71,-145 71,-151 71,-151 71,-163 71,-163 71,-169 65,-175 59,-175"/>
<text text-anchor="middle" x="35.5" y="-153.3" font-family="Nimbus" font-size="14.00">Hembra</text>
</g>
<!-- G&#45;&gt;H -->
<g id="edge3" class="edge"><title>G&#45;&gt;H</title>
<path fill="none" stroke="black" d="M102.412,-277.825C97.6537,-272.338 92.6203,-266.102 88.5,-260 72.1104,-235.728 57.0943,-205.764 47.2631,-184.61"/>
<polygon fill="black" stroke="black" points="50.3387,-182.919 42.9975,-175.28 43.9725,-185.83 50.3387,-182.919"/>
<text text-anchor="middle" x="114.5" y="-250.4" font-family="Nimbus" font-size="12.00">instancia</text>
</g>
<!-- I -->
<g id="node6" class="node"><title>I</title>
<path fill="lightgray" stroke="lightgray" stroke-width="2" d="M207.5,-36C207.5,-36 167.5,-36 167.5,-36 161.5,-36 155.5,-30 155.5,-24 155.5,-24 155.5,-12 155.5,-12 155.5,-6 161.5,-0 167.5,-0 167.5,-0 207.5,-0 207.5,-0 213.5,-0 219.5,-6 219.5,-12 219.5,-12 219.5,-24 219.5,-24 219.5,-30 213.5,-36 207.5,-36"/>
<text text-anchor="middle" x="187.5" y="-14.3" font-family="Nimbus" font-size="14.00">Animal</text>
</g>
<!-- H&#45;&gt;I -->
<g id="edge6" class="edge"><title>H&#45;&gt;I</title>
<path fill="none" stroke="black" d="M40.1523,-138.766C45.0736,-123.195 54.1426,-100.419 68.5,-85 89.8416,-62.0798 120.99,-45.1994 146.066,-34.2496"/>
<polygon fill="black" stroke="black" points="147.488,-37.4487 155.347,-30.3431 144.772,-30.997 147.488,-37.4487"/>
<text text-anchor="middle" x="103.5" y="-99.9" font-family="Nimbus" font-size="12.00">subclase&#45;de</text>
</g>
<!-- C&#45;&gt;I -->
<g id="edge5" class="edge"><title>C&#45;&gt;I</title>
<path fill="none" stroke="black" d="M578.618,-138.96C555,-122.857 517.298,-99.1216 481.5,-85 395.426,-51.0458 287.941,-32.504 229.724,-24.2862"/>
<polygon fill="black" stroke="black" points="230.17,-20.8147 219.786,-22.9165 229.215,-27.7491 230.17,-20.8147"/>
<text text-anchor="middle" x="583.5" y="-99.9" font-family="Nimbus" font-size="12.00">subclase&#45;de</text>
</g>
<!-- J&#45;&gt;I -->
<g id="edge7" class="edge"><title>J&#45;&gt;I</title>
<path fill="none" stroke="black" d="M187.5,-84.8023C187.5,-73.6736 187.5,-58.9448 187.5,-46.2439"/>
<polygon fill="black" stroke="black" points="191,-46.1756 187.5,-36.1756 184,-46.1757 191,-46.1756"/>
<text text-anchor="middle" x="222.5" y="-57.4" font-family="Nimbus" font-size="12.00">subclase&#45;de</text>
</g>
<!-- D -->
<g id="node9" class="node"><title>D</title>
<path fill="lightgray" stroke="lightgray" stroke-width="2" d="M367.5,-229C367.5,-229 323.5,-229 323.5,-229 317.5,-229 311.5,-223 311.5,-217 311.5,-217 311.5,-205 311.5,-205 311.5,-199 317.5,-193 323.5,-193 323.5,-193 367.5,-193 367.5,-193 373.5,-193 379.5,-199 379.5,-205 379.5,-205 379.5,-217 379.5,-217 379.5,-223 373.5,-229 367.5,-229"/>
<text text-anchor="middle" x="345.5" y="-207.3" font-family="Nimbus" font-size="14.00">Ballena</text>
</g>
<!-- D&#45;&gt;J -->
<g id="edge12" class="edge"><title>D&#45;&gt;J</title>
<path fill="none" stroke="black" d="M311.17,-195.279C300.906,-189.857 290.107,-183.04 281.5,-175 267.625,-162.039 272.647,-151.664 258.5,-139 252.097,-133.268 244.586,-128.249 236.89,-123.935"/>
<polygon fill="black" stroke="black" points="238.31,-120.727 227.826,-119.195 235.066,-126.93 238.31,-120.727"/>
<text text-anchor="middle" x="316.5" y="-153.9" font-family="Nimbus" font-size="12.00">subclase&#45;de</text>
</g>
<!-- D&#45;&gt;E -->
<g id="edge10" class="edge"><title>D&#45;&gt;E</title>
<path fill="none" stroke="black" d="M379.777,-206.871C419.498,-202.454 481.329,-192.858 495.5,-175 505.446,-162.467 502.889,-153.192 495.5,-139 492.069,-132.409 486.765,-126.803 480.873,-122.137"/>
<polygon fill="black" stroke="black" points="482.796,-119.21 472.594,-116.351 478.786,-124.948 482.796,-119.21"/>
<text text-anchor="middle" x="526" y="-153.9" font-family="Nimbus" font-size="12.00">de&#45;color</text>
</g>
<!-- F -->
<g id="node10" class="node"><title>F</title>
<path fill="lightgray" stroke="lightgray" stroke-width="2" d="M280,-229C280,-229 247,-229 247,-229 241,-229 235,-223 235,-217 235,-217 235,-205 235,-205 235,-199 241,-193 247,-193 247,-193 280,-193 280,-193 286,-193 292,-199 292,-205 292,-205 292,-217 292,-217 292,-223 286,-229 280,-229"/>
<text text-anchor="middle" x="263.5" y="-207.3" font-family="Nimbus" font-size="14.00">Delfín</text>
</g>
<!-- F&#45;&gt;J -->
<g id="edge13" class="edge"><title>F&#45;&gt;J</title>
<path fill="none" stroke="black" d="M234.647,-197.387C214.118,-188.276 189.924,-177.202 188.5,-175 180.284,-162.297 179.715,-145.458 181.35,-131.366"/>
<polygon fill="black" stroke="black" points="184.846,-131.662 182.939,-121.24 177.931,-130.577 184.846,-131.662"/>
<text text-anchor="middle" x="223.5" y="-153.9" font-family="Nimbus" font-size="12.00">subclase&#45;de</text>
</g>
<!-- F&#45;&gt;E -->
<g id="edge11" class="edge"><title>F&#45;&gt;E</title>
<path fill="none" stroke="black" d="M292.152,-196.505C295.591,-195.186 299.092,-193.978 302.5,-193 354.762,-178.008 382.233,-210.399 423.5,-175 436.032,-164.25 441.533,-146.511 443.9,-131.454"/>
<polygon fill="black" stroke="black" points="447.425,-131.444 445.126,-121.102 440.474,-130.621 447.425,-131.444"/>
<text text-anchor="middle" x="466" y="-153.9" font-family="Nimbus" font-size="12.00">de&#45;color</text>
</g>
</g>
</svg>
