<?xml version="1.0" encoding="UTF-8" standalone="no"?>
<!DOCTYPE svg PUBLIC "-//W3C//DTD SVG 1.1//EN"
 "http://www.w3.org/Graphics/SVG/1.1/DTD/svg11.dtd">
<!-- Generated by graphviz version 2.38.0 (20140413.2041)
 -->
<!-- Title: ejemplo Pages: 1 -->
<svg width="334pt" height="315pt"
 viewBox="0.00 0.00 334.00 315.00" xmlns="http://www.w3.org/2000/svg" xmlns:xlink="http://www.w3.org/1999/xlink">
<g id="graph0" class="graph" transform="scale(1 1) rotate(0) translate(4 311)">
<title>ejemplo</title>
<polygon fill="white" stroke="none" points="-4,4 -4,-311 330,-311 330,4 -4,4"/>
<g id="clust1" class="cluster"><title>cluster_1</title>
<polygon fill="none" stroke="black" points="8,-162 8,-299 94,-299 94,-162 8,-162"/>
</g>
<!-- A -->
<g id="node1" class="node"><title>A</title>
<path fill="lightgray" stroke="lightgray" stroke-width="2" d="M74,-291C74,-291 44,-291 44,-291 38,-291 32,-285 32,-279 32,-279 32,-267 32,-267 32,-261 38,-255 44,-255 44,-255 74,-255 74,-255 80,-255 86,-261 86,-267 86,-267 86,-279 86,-279 86,-285 80,-291 74,-291"/>
<text text-anchor="middle" x="59" y="-269.3" font-family="Nimbus" font-size="14.00">pepe</text>
</g>
<!-- B -->
<g id="node2" class="node"><title>B</title>
<path fill="lightgray" stroke="lightgray" stroke-width="2" d="M186,-206C186,-206 116,-206 116,-206 110,-206 104,-200 104,-194 104,-194 104,-182 104,-182 104,-176 110,-170 116,-170 116,-170 186,-170 186,-170 192,-170 198,-176 198,-182 198,-182 198,-194 198,-194 198,-200 192,-206 186,-206"/>
<text text-anchor="middle" x="151" y="-184.3" font-family="Nimbus" font-size="14.00">informático</text>
</g>
<!-- A&#45;&gt;B -->
<g id="edge1" class="edge"><title>A&#45;&gt;B</title>
<path fill="none" stroke="black" d="M86.0368,-256.403C94.7403,-250.805 104.155,-244.107 112,-237 119.48,-230.224 126.725,-221.952 132.9,-214.197"/>
<polygon fill="black" stroke="black" points="135.82,-216.141 139.139,-206.08 130.27,-211.875 135.82,-216.141"/>
<text text-anchor="middle" x="152" y="-227.4" font-family="Nimbus" font-size="12.00">profesión</text>
</g>
<!-- C -->
<g id="node3" class="node"><title>C</title>
<path fill="lightgray" stroke="lightgray" stroke-width="2" d="M314,-206C314,-206 228,-206 228,-206 222,-206 216,-200 216,-194 216,-194 216,-182 216,-182 216,-176 222,-170 228,-170 228,-170 314,-170 314,-170 320,-170 326,-176 326,-182 326,-182 326,-194 326,-194 326,-200 320,-206 314,-206"/>
<text text-anchor="middle" x="271" y="-184.3" font-family="Nimbus" font-size="14.00">edad&#45;de&#45;pepe</text>
</g>
<!-- A&#45;&gt;C -->
<g id="edge2" class="edge"><title>A&#45;&gt;C</title>
<path fill="none" stroke="black" d="M86.4259,-266.248C112.165,-260.403 151.465,-250.32 184,-237 201.482,-229.843 219.927,-220.025 235.313,-211.134"/>
<polygon fill="black" stroke="black" points="237.142,-214.119 243.987,-206.032 233.593,-208.085 237.142,-214.119"/>
<text text-anchor="middle" x="225.5" y="-227.4" font-family="Nimbus" font-size="12.00">edad</text>
</g>
<!-- E -->
<g id="node5" class="node"><title>E</title>
<path fill="lightgray" stroke="lightgray" stroke-width="2" d="M73.5,-206C73.5,-206 28.5,-206 28.5,-206 22.5,-206 16.5,-200 16.5,-194 16.5,-194 16.5,-182 16.5,-182 16.5,-176 22.5,-170 28.5,-170 28.5,-170 73.5,-170 73.5,-170 79.5,-170 85.5,-176 85.5,-182 85.5,-182 85.5,-194 85.5,-194 85.5,-200 79.5,-206 73.5,-206"/>
<text text-anchor="middle" x="51" y="-184.3" font-family="Nimbus" font-size="14.00">hombre</text>
</g>
<!-- A&#45;&gt;E -->
<g id="edge4" class="edge"><title>A&#45;&gt;E</title>
<path fill="none" stroke="black" d="M57.3424,-254.802C56.2697,-243.674 54.8501,-228.945 53.6259,-216.244"/>
<polygon fill="black" stroke="black" points="57.0988,-215.794 52.6555,-206.176 50.1311,-216.465 57.0988,-215.794"/>
<text text-anchor="middle" x="82" y="-227.4" font-family="Nimbus" font-size="12.00">instancia</text>
</g>
<!-- D -->
<g id="node4" class="node"><title>D</title>
<path fill="lightgray" stroke="lightgray" stroke-width="2" d="M286,-121C286,-121 256,-121 256,-121 250,-121 244,-115 244,-109 244,-109 244,-97 244,-97 244,-91 250,-85 256,-85 256,-85 286,-85 286,-85 292,-85 298,-91 298,-97 298,-97 298,-109 298,-109 298,-115 292,-121 286,-121"/>
<text text-anchor="middle" x="271" y="-99.3" font-family="Nimbus" font-size="14.00">37</text>
</g>
<!-- C&#45;&gt;D -->
<g id="edge3" class="edge"><title>C&#45;&gt;D</title>
<path fill="none" stroke="black" d="M271,-169.802C271,-158.674 271,-143.945 271,-131.244"/>
<polygon fill="black" stroke="black" points="274.5,-131.176 271,-121.176 267.5,-131.176 274.5,-131.176"/>
<text text-anchor="middle" x="285.5" y="-142.4" font-family="Nimbus" font-size="12.00">valor</text>
</g>
<!-- F -->
<g id="node6" class="node"><title>F</title>
<path fill="lightgray" stroke="lightgray" stroke-width="2" d="M74.5,-121C74.5,-121 27.5,-121 27.5,-121 21.5,-121 15.5,-115 15.5,-109 15.5,-109 15.5,-97 15.5,-97 15.5,-91 21.5,-85 27.5,-85 27.5,-85 74.5,-85 74.5,-85 80.5,-85 86.5,-91 86.5,-97 86.5,-97 86.5,-109 86.5,-109 86.5,-115 80.5,-121 74.5,-121"/>
<text text-anchor="middle" x="51" y="-99.3" font-family="Nimbus" font-size="14.00">persona</text>
</g>
<!-- E&#45;&gt;F -->
<g id="edge5" class="edge"><title>E&#45;&gt;F</title>
<path fill="none" stroke="black" d="M51,-169.802C51,-158.674 51,-143.945 51,-131.244"/>
<polygon fill="black" stroke="black" points="54.5001,-131.176 51,-121.176 47.5001,-131.176 54.5001,-131.176"/>
<text text-anchor="middle" x="86" y="-142.4" font-family="Nimbus" font-size="12.00">subclase&#45;de</text>
</g>
<!-- G -->
<g id="node7" class="node"><title>G</title>
<path fill="lightgray" stroke="lightgray" stroke-width="2" d="M71.5,-36C71.5,-36 30.5,-36 30.5,-36 24.5,-36 18.5,-30 18.5,-24 18.5,-24 18.5,-12 18.5,-12 18.5,-6 24.5,-0 30.5,-0 30.5,-0 71.5,-0 71.5,-0 77.5,-0 83.5,-6 83.5,-12 83.5,-12 83.5,-24 83.5,-24 83.5,-30 77.5,-36 71.5,-36"/>
<text text-anchor="middle" x="51" y="-14.3" font-family="Nimbus" font-size="14.00">cabeza</text>
</g>
<!-- F&#45;&gt;G -->
<g id="edge6" class="edge"><title>F&#45;&gt;G</title>
<path fill="none" stroke="black" d="M51,-84.8023C51,-73.6736 51,-58.9448 51,-46.2439"/>
<polygon fill="black" stroke="black" points="54.5001,-46.1756 51,-36.1756 47.5001,-46.1757 54.5001,-46.1756"/>
<text text-anchor="middle" x="65" y="-57.4" font-family="Nimbus" font-size="12.00">tiene</text>
</g>
</g>
</svg>
