<?xml version="1.0" encoding="UTF-8" standalone="no"?>
<!DOCTYPE svg PUBLIC "-//W3C//DTD SVG 1.1//EN"
 "http://www.w3.org/Graphics/SVG/1.1/DTD/svg11.dtd">
<!-- Generated by graphviz version 2.43.0 (0)
 -->
<!-- Title: ejemplo Pages: 1 -->
<svg width="414pt" height="331pt"
 viewBox="0.00 0.00 414.00 331.00" xmlns="http://www.w3.org/2000/svg" xmlns:xlink="http://www.w3.org/1999/xlink">
<g id="graph0" class="graph" transform="scale(1 1) rotate(0) translate(4 327)">
<title>ejemplo</title>
<polygon fill="white" stroke="transparent" points="-4,4 -4,-327 410,-327 410,4 -4,4"/>
<g id="clust1" class="cluster">
<title>cluster_1</title>
<polygon fill="none" stroke="black" points="8,-8 8,-315 316,-315 316,-8 8,-8"/>
</g>
<g id="clust2" class="cluster">
<title>cluster_2</title>
<polygon fill="none" stroke="black" points="324,-178 324,-230 398,-230 398,-178 324,-178"/>
</g>
<!-- A -->
<g id="node1" class="node">
<title>A</title>
<path fill="lightgray" stroke="lightgray" stroke-width="2" d="M219,-307C219,-307 189,-307 189,-307 183,-307 177,-301 177,-295 177,-295 177,-283 177,-283 177,-277 183,-271 189,-271 189,-271 219,-271 219,-271 225,-271 231,-277 231,-283 231,-283 231,-295 231,-295 231,-301 225,-307 219,-307"/>
<text text-anchor="middle" x="204" y="-285.3" font-family="Nimbus" font-size="14.00">pepe</text>
</g>
<!-- B -->
<g id="node2" class="node">
<title>B</title>
<path fill="lightgray" stroke="lightgray" stroke-width="2" d="M87.5,-222C87.5,-222 28.5,-222 28.5,-222 22.5,-222 16.5,-216 16.5,-210 16.5,-210 16.5,-198 16.5,-198 16.5,-192 22.5,-186 28.5,-186 28.5,-186 87.5,-186 87.5,-186 93.5,-186 99.5,-192 99.5,-198 99.5,-198 99.5,-210 99.5,-210 99.5,-216 93.5,-222 87.5,-222"/>
<text text-anchor="middle" x="58" y="-200.3" font-family="Nimbus" font-size="14.00">informático</text>
</g>
<!-- A&#45;&gt;B -->
<g id="edge1" class="edge">
<title>A&#45;&gt;B</title>
<path fill="none" stroke="black" d="M176.65,-277.26C161.4,-270.89 142.25,-262.26 126,-253 113.2,-245.7 99.8,-236.6 88.32,-228.29"/>
<polygon fill="black" stroke="black" points="90.08,-225.24 79.95,-222.13 85.93,-230.87 90.08,-225.24"/>
<text text-anchor="middle" x="151" y="-243.4" font-family="Nimbus" font-size="12.00">profesión</text>
</g>
<!-- C -->
<g id="node3" class="node">
<title>C</title>
<path fill="lightgray" stroke="lightgray" stroke-width="2" d="M212.5,-222C212.5,-222 129.5,-222 129.5,-222 123.5,-222 117.5,-216 117.5,-210 117.5,-210 117.5,-198 117.5,-198 117.5,-192 123.5,-186 129.5,-186 129.5,-186 212.5,-186 212.5,-186 218.5,-186 224.5,-192 224.5,-198 224.5,-198 224.5,-210 224.5,-210 224.5,-216 218.5,-222 212.5,-222"/>
<text text-anchor="middle" x="171" y="-200.3" font-family="Nimbus" font-size="14.00">edad_de_pepe</text>
</g>
<!-- A&#45;&gt;C -->
<g id="edge2" class="edge">
<title>A&#45;&gt;C</title>
<path fill="none" stroke="black" d="M193.13,-271C189.88,-265.41 186.51,-259.08 184,-253 181.25,-246.35 178.92,-238.95 177.02,-231.98"/>
<polygon fill="black" stroke="black" points="180.39,-231.07 174.54,-222.23 173.61,-232.79 180.39,-231.07"/>
<text text-anchor="middle" x="198" y="-243.4" font-family="Nimbus" font-size="12.00">edad</text>
</g>
<!-- E -->
<g id="node5" class="node">
<title>E</title>
<path fill="lightgray" stroke="lightgray" stroke-width="2" d="M295.5,-222C295.5,-222 254.5,-222 254.5,-222 248.5,-222 242.5,-216 242.5,-210 242.5,-210 242.5,-198 242.5,-198 242.5,-192 248.5,-186 254.5,-186 254.5,-186 295.5,-186 295.5,-186 301.5,-186 307.5,-192 307.5,-198 307.5,-198 307.5,-210 307.5,-210 307.5,-216 301.5,-222 295.5,-222"/>
<text text-anchor="middle" x="275" y="-200.3" font-family="Nimbus" font-size="14.00">Hombre</text>
</g>
<!-- A&#45;&gt;E -->
<g id="edge4" class="edge">
<title>A&#45;&gt;E</title>
<path fill="none" stroke="black" d="M218.71,-270.8C228.8,-259.01 242.35,-243.16 253.63,-229.98"/>
<polygon fill="black" stroke="black" points="256.47,-232.05 260.31,-222.18 251.15,-227.5 256.47,-232.05"/>
<text text-anchor="middle" x="278.5" y="-243.4" font-family="Nimbus" font-size="12.00">instancia_de</text>
</g>
<!-- H -->
<g id="node8" class="node">
<title>H</title>
<path fill="lightgray" stroke="lightgray" stroke-width="2" d="M378,-222C378,-222 344,-222 344,-222 338,-222 332,-216 332,-210 332,-210 332,-198 332,-198 332,-192 338,-186 344,-186 344,-186 378,-186 378,-186 384,-186 390,-192 390,-198 390,-198 390,-210 390,-210 390,-216 384,-222 378,-222"/>
<text text-anchor="middle" x="361" y="-200.3" font-family="Nimbus" font-size="14.00">museo</text>
</g>
<!-- A&#45;&gt;H -->
<g id="edge7" class="edge">
<title>A&#45;&gt;H</title>
<path fill="none" stroke="black" d="M231.27,-283.73C255.28,-279.03 290.45,-269.81 317,-253 326.55,-246.95 335.36,-238.3 342.54,-230"/>
<polygon fill="black" stroke="black" points="345.26,-232.2 348.9,-222.26 339.85,-227.76 345.26,-232.2"/>
<text text-anchor="middle" x="340" y="-243.4" font-family="Nimbus" font-size="12.00">vio</text>
</g>
<!-- D -->
<g id="node4" class="node">
<title>D</title>
<path fill="lightgray" stroke="lightgray" stroke-width="2" d="M180,-137C180,-137 150,-137 150,-137 144,-137 138,-131 138,-125 138,-125 138,-113 138,-113 138,-107 144,-101 150,-101 150,-101 180,-101 180,-101 186,-101 192,-107 192,-113 192,-113 192,-125 192,-125 192,-131 186,-137 180,-137"/>
<text text-anchor="middle" x="165" y="-115.3" font-family="Nimbus" font-size="14.00">37</text>
</g>
<!-- C&#45;&gt;D -->
<g id="edge3" class="edge">
<title>C&#45;&gt;D</title>
<path fill="none" stroke="black" d="M169.76,-185.8C168.95,-174.67 167.89,-159.94 166.97,-147.24"/>
<polygon fill="black" stroke="black" points="170.45,-146.9 166.24,-137.18 163.47,-147.4 170.45,-146.9"/>
<text text-anchor="middle" x="182.5" y="-158.4" font-family="Nimbus" font-size="12.00">valor</text>
</g>
<!-- F -->
<g id="node6" class="node">
<title>F</title>
<path fill="lightgray" stroke="lightgray" stroke-width="2" d="M265.5,-137C265.5,-137 222.5,-137 222.5,-137 216.5,-137 210.5,-131 210.5,-125 210.5,-125 210.5,-113 210.5,-113 210.5,-107 216.5,-101 222.5,-101 222.5,-101 265.5,-101 265.5,-101 271.5,-101 277.5,-107 277.5,-113 277.5,-113 277.5,-125 277.5,-125 277.5,-131 271.5,-137 265.5,-137"/>
<text text-anchor="middle" x="244" y="-115.3" font-family="Nimbus" font-size="14.00">Persona</text>
</g>
<!-- E&#45;&gt;F -->
<g id="edge5" class="edge">
<title>E&#45;&gt;F</title>
<path fill="none" stroke="black" d="M268.58,-185.8C264.38,-174.56 258.81,-159.65 254.03,-146.86"/>
<polygon fill="black" stroke="black" points="257.19,-145.32 250.41,-137.18 250.64,-147.77 257.19,-145.32"/>
<text text-anchor="middle" x="295.5" y="-158.4" font-family="Nimbus" font-size="12.00">subclase_de</text>
</g>
<!-- G -->
<g id="node7" class="node">
<title>G</title>
<path fill="lightgray" stroke="lightgray" stroke-width="2" d="M262,-52C262,-52 226,-52 226,-52 220,-52 214,-46 214,-40 214,-40 214,-28 214,-28 214,-22 220,-16 226,-16 226,-16 262,-16 262,-16 268,-16 274,-22 274,-28 274,-28 274,-40 274,-40 274,-46 268,-52 262,-52"/>
<text text-anchor="middle" x="244" y="-30.3" font-family="Nimbus" font-size="14.00">cabeza</text>
</g>
<!-- F&#45;&gt;G -->
<g id="edge6" class="edge">
<title>F&#45;&gt;G</title>
<path fill="none" stroke="black" d="M244,-100.8C244,-89.67 244,-74.94 244,-62.24"/>
<polygon fill="black" stroke="black" points="247.5,-62.18 244,-52.18 240.5,-62.18 247.5,-62.18"/>
<text text-anchor="middle" x="257.5" y="-73.4" font-family="Nimbus" font-size="12.00">tiene</text>
</g>
</g>
</svg>
