<?xml version="1.0" encoding="UTF-8" standalone="no"?>
<!DOCTYPE svg PUBLIC "-//W3C//DTD SVG 1.1//EN"
 "http://www.w3.org/Graphics/SVG/1.1/DTD/svg11.dtd">
<!-- Generated by graphviz version 2.43.0 (0)
 -->
<!-- Title: ejemplo Pages: 1 -->
<svg width="254pt" height="214pt"
 viewBox="0.00 0.00 253.50 214.00" xmlns="http://www.w3.org/2000/svg" xmlns:xlink="http://www.w3.org/1999/xlink">
<g id="graph0" class="graph" transform="scale(1 1) rotate(0) translate(4 210)">
<title>ejemplo</title>
<polygon fill="white" stroke="transparent" points="-4,4 -4,-210 249.5,-210 249.5,4 -4,4"/>
<!-- A -->
<g id="node1" class="node">
<title>A</title>
<path fill="lightgray" stroke="lightgray" stroke-width="2" d="M53,-206C53,-206 12,-206 12,-206 6,-206 0,-200 0,-194 0,-194 0,-182 0,-182 0,-176 6,-170 12,-170 12,-170 53,-170 53,-170 59,-170 65,-176 65,-182 65,-182 65,-194 65,-194 65,-200 59,-206 53,-206"/>
<text text-anchor="middle" x="32.5" y="-184.3" font-family="Nimbus" font-size="14.00">Maguila</text>
</g>
<!-- B -->
<g id="node2" class="node">
<title>B</title>
<path fill="lightgray" stroke="lightgray" stroke-width="2" d="M93.5,-121C93.5,-121 63.5,-121 63.5,-121 57.5,-121 51.5,-115 51.5,-109 51.5,-109 51.5,-97 51.5,-97 51.5,-91 57.5,-85 63.5,-85 63.5,-85 93.5,-85 93.5,-85 99.5,-85 105.5,-91 105.5,-97 105.5,-97 105.5,-109 105.5,-109 105.5,-115 99.5,-121 93.5,-121"/>
<text text-anchor="middle" x="78.5" y="-99.3" font-family="Nimbus" font-size="14.00">Gorila</text>
</g>
<!-- A&#45;&gt;B -->
<g id="edge1" class="edge">
<title>A&#45;&gt;B</title>
<path fill="none" stroke="black" d="M29.37,-169.7C28.47,-160.16 28.79,-148.39 33.5,-139 36,-134.02 39.57,-129.55 43.63,-125.59"/>
<polygon fill="black" stroke="black" points="45.98,-128.18 51.32,-119.02 41.44,-122.85 45.98,-128.18"/>
<text text-anchor="middle" x="68" y="-142.4" font-family="Nimbus" font-size="12.00">instancia_de</text>
</g>
<!-- C -->
<g id="node4" class="node">
<title>C</title>
<path fill="lightgray" stroke="lightgray" stroke-width="2" d="M96.5,-36C96.5,-36 60.5,-36 60.5,-36 54.5,-36 48.5,-30 48.5,-24 48.5,-24 48.5,-12 48.5,-12 48.5,-6 54.5,0 60.5,0 60.5,0 96.5,0 96.5,0 102.5,0 108.5,-6 108.5,-12 108.5,-12 108.5,-24 108.5,-24 108.5,-30 102.5,-36 96.5,-36"/>
<text text-anchor="middle" x="78.5" y="-14.3" font-family="Nimbus" font-size="14.00">Marrón</text>
</g>
<!-- B&#45;&gt;C -->
<g id="edge3" class="edge">
<title>B&#45;&gt;C</title>
<path fill="none" stroke="black" d="M78.5,-84.8C78.5,-73.67 78.5,-58.94 78.5,-46.24"/>
<polygon fill="black" stroke="black" points="82,-46.18 78.5,-36.18 75,-46.18 82,-46.18"/>
<text text-anchor="middle" x="92" y="-57.4" font-family="Nimbus" font-size="12.00">color</text>
</g>
<!-- D -->
<g id="node3" class="node">
<title>D</title>
<path fill="lightgray" stroke="lightgray" stroke-width="2" d="M220.5,-206C220.5,-206 134.5,-206 134.5,-206 128.5,-206 122.5,-200 122.5,-194 122.5,-194 122.5,-182 122.5,-182 122.5,-176 128.5,-170 134.5,-170 134.5,-170 220.5,-170 220.5,-170 226.5,-170 232.5,-176 232.5,-182 232.5,-182 232.5,-194 232.5,-194 232.5,-200 226.5,-206 220.5,-206"/>
<text text-anchor="middle" x="177.5" y="-184.3" font-family="Nimbus" font-size="14.00">Copito de nieve</text>
</g>
<!-- D&#45;&gt;B -->
<g id="edge2" class="edge">
<title>D&#45;&gt;B</title>
<path fill="none" stroke="black" d="M146.78,-169.96C138.25,-164.66 129.22,-158.5 121.5,-152 113.28,-145.09 105.18,-136.61 98.26,-128.71"/>
<polygon fill="black" stroke="black" points="100.93,-126.44 91.78,-121.09 95.59,-130.97 100.93,-126.44"/>
<text text-anchor="middle" x="156" y="-142.4" font-family="Nimbus" font-size="12.00">instancia_de</text>
</g>
<!-- E -->
<g id="node5" class="node">
<title>E</title>
<path fill="lightgray" stroke="lightgray" stroke-width="2" d="M233.5,-121C233.5,-121 199.5,-121 199.5,-121 193.5,-121 187.5,-115 187.5,-109 187.5,-109 187.5,-97 187.5,-97 187.5,-91 193.5,-85 199.5,-85 199.5,-85 233.5,-85 233.5,-85 239.5,-85 245.5,-91 245.5,-97 245.5,-97 245.5,-109 245.5,-109 245.5,-115 239.5,-121 233.5,-121"/>
<text text-anchor="middle" x="216.5" y="-99.3" font-family="Nimbus" font-size="14.00">Blanco</text>
</g>
<!-- D&#45;&gt;E -->
<g id="edge4" class="edge">
<title>D&#45;&gt;E</title>
<path fill="none" stroke="black" d="M185.88,-169.95C188.65,-164.25 191.73,-157.86 194.5,-152 197.78,-145.05 201.27,-137.5 204.49,-130.49"/>
<polygon fill="black" stroke="black" points="207.68,-131.92 208.65,-121.37 201.31,-129.02 207.68,-131.92"/>
<text text-anchor="middle" x="214" y="-142.4" font-family="Nimbus" font-size="12.00">color</text>
</g>
</g>
</svg>
