<?xml version="1.0" encoding="UTF-8" standalone="no"?>
<!DOCTYPE svg PUBLIC "-//W3C//DTD SVG 1.1//EN"
 "http://www.w3.org/Graphics/SVG/1.1/DTD/svg11.dtd">
<!-- Generated by graphviz version 2.43.0 (0)
 -->
<!-- Title: ejemplo Pages: 1 -->
<svg width="623pt" height="322pt"
 viewBox="0.00 0.00 622.50 322.00" xmlns="http://www.w3.org/2000/svg" xmlns:xlink="http://www.w3.org/1999/xlink">
<g id="graph0" class="graph" transform="scale(1 1) rotate(0) translate(4 318)">
<title>ejemplo</title>
<polygon fill="white" stroke="transparent" points="-4,4 -4,-318 618.5,-318 618.5,4 -4,4"/>
<!-- A -->
<g id="node1" class="node">
<title>A</title>
<path fill="lightgray" stroke="lightgray" stroke-width="2" d="M434,-314C434,-314 397,-314 397,-314 391,-314 385,-308 385,-302 385,-302 385,-290 385,-290 385,-284 391,-278 397,-278 397,-278 434,-278 434,-278 440,-278 446,-284 446,-290 446,-290 446,-302 446,-302 446,-308 440,-314 434,-314"/>
<text text-anchor="middle" x="415.5" y="-292.3" font-family="Nimbus" font-size="14.00">Dumbo</text>
</g>
<!-- B -->
<g id="node2" class="node">
<title>B</title>
<path fill="lightgray" stroke="lightgray" stroke-width="2" d="M321.5,-229C321.5,-229 279.5,-229 279.5,-229 273.5,-229 267.5,-223 267.5,-217 267.5,-217 267.5,-205 267.5,-205 267.5,-199 273.5,-193 279.5,-193 279.5,-193 321.5,-193 321.5,-193 327.5,-193 333.5,-199 333.5,-205 333.5,-205 333.5,-217 333.5,-217 333.5,-223 327.5,-229 321.5,-229"/>
<text text-anchor="middle" x="300.5" y="-207.3" font-family="Nimbus" font-size="14.00">Elefante</text>
</g>
<!-- A&#45;&gt;B -->
<g id="edge1" class="edge">
<title>A&#45;&gt;B</title>
<path fill="none" stroke="black" d="M398.67,-277.97C388.64,-268.3 375.39,-256.3 362.5,-247 356.16,-242.42 349.16,-237.97 342.22,-233.86"/>
<polygon fill="black" stroke="black" points="343.93,-230.81 333.52,-228.85 340.44,-236.87 343.93,-230.81"/>
<text text-anchor="middle" x="412" y="-250.4" font-family="Nimbus" font-size="12.00">instancia_de</text>
</g>
<!-- C -->
<g id="node5" class="node">
<title>C</title>
<path fill="lightgray" stroke="lightgray" stroke-width="2" d="M602.5,-175C602.5,-175 568.5,-175 568.5,-175 562.5,-175 556.5,-169 556.5,-163 556.5,-163 556.5,-151 556.5,-151 556.5,-145 562.5,-139 568.5,-139 568.5,-139 602.5,-139 602.5,-139 608.5,-139 614.5,-145 614.5,-151 614.5,-151 614.5,-163 614.5,-163 614.5,-169 608.5,-175 602.5,-175"/>
<text text-anchor="middle" x="585.5" y="-153.3" font-family="Nimbus" font-size="14.00">Macho</text>
</g>
<!-- A&#45;&gt;C -->
<g id="edge4" class="edge">
<title>A&#45;&gt;C</title>
<path fill="none" stroke="black" d="M446.06,-283.11C472.13,-271.92 509.56,-253.26 536.5,-229 550.65,-216.26 562.83,-198.66 571.51,-184.17"/>
<polygon fill="black" stroke="black" points="574.73,-185.59 576.69,-175.18 568.67,-182.1 574.73,-185.59"/>
<text text-anchor="middle" x="547" y="-250.4" font-family="Nimbus" font-size="12.00">instancia_de</text>
</g>
<!-- J -->
<g id="node7" class="node">
<title>J</title>
<path fill="lightgray" stroke="lightgray" stroke-width="2" d="M206,-121C206,-121 155,-121 155,-121 149,-121 143,-115 143,-109 143,-109 143,-97 143,-97 143,-91 149,-85 155,-85 155,-85 206,-85 206,-85 212,-85 218,-91 218,-97 218,-97 218,-109 218,-109 218,-115 212,-121 206,-121"/>
<text text-anchor="middle" x="180.5" y="-99.3" font-family="Nimbus" font-size="14.00">Mamífero</text>
</g>
<!-- B&#45;&gt;J -->
<g id="edge8" class="edge">
<title>B&#45;&gt;J</title>
<path fill="none" stroke="black" d="M267.25,-205.62C209.27,-197.83 95.22,-181.74 89.5,-175 79.15,-162.8 80.44,-152.19 89.5,-139 94.99,-131 113.81,-123.15 132.92,-116.92"/>
<polygon fill="black" stroke="black" points="134.07,-120.22 142.57,-113.9 131.98,-113.54 134.07,-120.22"/>
<text text-anchor="middle" x="124" y="-153.9" font-family="Nimbus" font-size="12.00">subclase_de</text>
</g>
<!-- E -->
<g id="node8" class="node">
<title>E</title>
<path fill="lightgray" stroke="lightgray" stroke-width="2" d="M449.5,-121C449.5,-121 419.5,-121 419.5,-121 413.5,-121 407.5,-115 407.5,-109 407.5,-109 407.5,-97 407.5,-97 407.5,-91 413.5,-85 419.5,-85 419.5,-85 449.5,-85 449.5,-85 455.5,-85 461.5,-91 461.5,-97 461.5,-97 461.5,-109 461.5,-109 461.5,-115 455.5,-121 449.5,-121"/>
<text text-anchor="middle" x="434.5" y="-99.3" font-family="Nimbus" font-size="14.00">Gris</text>
</g>
<!-- B&#45;&gt;E -->
<g id="edge9" class="edge">
<title>B&#45;&gt;E</title>
<path fill="none" stroke="black" d="M323.97,-192.73C330.37,-187.43 337.04,-181.32 342.5,-175 354.76,-160.81 350.69,-151.68 364.5,-139 374.12,-130.17 386.38,-123.03 397.94,-117.57"/>
<polygon fill="black" stroke="black" points="399.69,-120.62 407.42,-113.37 396.86,-114.22 399.69,-120.62"/>
<text text-anchor="middle" x="388" y="-153.9" font-family="Nimbus" font-size="12.00">de_color</text>
</g>
<!-- G -->
<g id="node3" class="node">
<title>G</title>
<path fill="lightgray" stroke="lightgray" stroke-width="2" d="M310,-314C310,-314 245,-314 245,-314 239,-314 233,-308 233,-302 233,-302 233,-290 233,-290 233,-284 239,-278 245,-278 245,-278 310,-278 310,-278 316,-278 322,-284 322,-290 322,-290 322,-302 322,-302 322,-308 316,-314 310,-314"/>
<text text-anchor="middle" x="277.5" y="-292.3" font-family="Nimbus" font-size="14.00">Mrs. Jumbo</text>
</g>
<!-- G&#45;&gt;B -->
<g id="edge2" class="edge">
<title>G&#45;&gt;B</title>
<path fill="none" stroke="black" d="M282.27,-277.8C285.38,-266.56 289.51,-251.65 293.06,-238.86"/>
<polygon fill="black" stroke="black" points="296.44,-239.75 295.74,-229.18 289.7,-237.88 296.44,-239.75"/>
<text text-anchor="middle" x="324" y="-250.4" font-family="Nimbus" font-size="12.00">instancia_de</text>
</g>
<!-- H -->
<g id="node4" class="node">
<title>H</title>
<path fill="lightgray" stroke="lightgray" stroke-width="2" d="M53,-175C53,-175 12,-175 12,-175 6,-175 0,-169 0,-163 0,-163 0,-151 0,-151 0,-145 6,-139 12,-139 12,-139 53,-139 53,-139 59,-139 65,-145 65,-151 65,-151 65,-163 65,-163 65,-169 59,-175 53,-175"/>
<text text-anchor="middle" x="32.5" y="-153.3" font-family="Nimbus" font-size="14.00">Hembra</text>
</g>
<!-- G&#45;&gt;H -->
<g id="edge3" class="edge">
<title>G&#45;&gt;H</title>
<path fill="none" stroke="black" d="M246.73,-277.93C236.47,-272.24 224.99,-265.85 214.5,-260 165.37,-232.58 108.85,-200.88 72,-180.19"/>
<polygon fill="black" stroke="black" points="73.51,-177.02 63.07,-175.18 70.08,-183.13 73.51,-177.02"/>
<text text-anchor="middle" x="249" y="-250.4" font-family="Nimbus" font-size="12.00">instancia_de</text>
</g>
<!-- I -->
<g id="node6" class="node">
<title>I</title>
<path fill="lightgray" stroke="lightgray" stroke-width="2" d="M198,-36C198,-36 163,-36 163,-36 157,-36 151,-30 151,-24 151,-24 151,-12 151,-12 151,-6 157,0 163,0 163,0 198,0 198,0 204,0 210,-6 210,-12 210,-12 210,-24 210,-24 210,-30 204,-36 198,-36"/>
<text text-anchor="middle" x="180.5" y="-14.3" font-family="Nimbus" font-size="14.00">Animal</text>
</g>
<!-- H&#45;&gt;I -->
<g id="edge6" class="edge">
<title>H&#45;&gt;I</title>
<path fill="none" stroke="black" d="M37.21,-138.82C42.16,-123.28 51.26,-100.52 65.5,-85 86.38,-62.24 116.97,-45.21 141.35,-34.15"/>
<polygon fill="black" stroke="black" points="142.94,-37.28 150.69,-30.06 140.13,-30.86 142.94,-37.28"/>
<text text-anchor="middle" x="100" y="-99.9" font-family="Nimbus" font-size="12.00">subclase_de</text>
</g>
<!-- C&#45;&gt;I -->
<g id="edge5" class="edge">
<title>C&#45;&gt;I</title>
<path fill="none" stroke="black" d="M562.93,-138.92C540.58,-122.8 504.81,-99.04 470.5,-85 385.02,-50.02 277.42,-31.7 220.34,-23.84"/>
<polygon fill="black" stroke="black" points="220.66,-20.35 210.28,-22.49 219.73,-27.29 220.66,-20.35"/>
<text text-anchor="middle" x="569" y="-99.9" font-family="Nimbus" font-size="12.00">subclase_de</text>
</g>
<!-- J&#45;&gt;I -->
<g id="edge7" class="edge">
<title>J&#45;&gt;I</title>
<path fill="none" stroke="black" d="M180.5,-84.8C180.5,-73.67 180.5,-58.94 180.5,-46.24"/>
<polygon fill="black" stroke="black" points="184,-46.18 180.5,-36.18 177,-46.18 184,-46.18"/>
<text text-anchor="middle" x="215" y="-57.4" font-family="Nimbus" font-size="12.00">subclase_de</text>
</g>
<!-- D -->
<g id="node9" class="node">
<title>D</title>
<path fill="lightgray" stroke="lightgray" stroke-width="2" d="M515.5,-229C515.5,-229 477.5,-229 477.5,-229 471.5,-229 465.5,-223 465.5,-217 465.5,-217 465.5,-205 465.5,-205 465.5,-199 471.5,-193 477.5,-193 477.5,-193 515.5,-193 515.5,-193 521.5,-193 527.5,-199 527.5,-205 527.5,-205 527.5,-217 527.5,-217 527.5,-223 521.5,-229 515.5,-229"/>
<text text-anchor="middle" x="496.5" y="-207.3" font-family="Nimbus" font-size="14.00">Ballena</text>
</g>
<!-- D&#45;&gt;J -->
<g id="edge12" class="edge">
<title>D&#45;&gt;J</title>
<path fill="none" stroke="black" d="M465.37,-199.03C457.95,-196.74 450.01,-194.56 442.5,-193 404.65,-185.16 301.52,-196.65 269.5,-175 254.51,-164.87 263.43,-151.65 250.5,-139 243.8,-132.44 235.62,-126.87 227.25,-122.24"/>
<polygon fill="black" stroke="black" points="228.64,-119.03 218.15,-117.58 225.45,-125.26 228.64,-119.03"/>
<text text-anchor="middle" x="304" y="-153.9" font-family="Nimbus" font-size="12.00">subclase_de</text>
</g>
<!-- D&#45;&gt;E -->
<g id="edge10" class="edge">
<title>D&#45;&gt;E</title>
<path fill="none" stroke="black" d="M494.24,-192.78C491.62,-177.63 486.21,-155.5 475.5,-139 473.02,-135.19 470.01,-131.56 466.76,-128.19"/>
<polygon fill="black" stroke="black" points="469.04,-125.53 459.36,-121.24 464.25,-130.64 469.04,-125.53"/>
<text text-anchor="middle" x="513" y="-153.9" font-family="Nimbus" font-size="12.00">de_color</text>
</g>
<!-- F -->
<g id="node10" class="node">
<title>F</title>
<path fill="lightgray" stroke="lightgray" stroke-width="2" d="M421.5,-229C421.5,-229 391.5,-229 391.5,-229 385.5,-229 379.5,-223 379.5,-217 379.5,-217 379.5,-205 379.5,-205 379.5,-199 385.5,-193 391.5,-193 391.5,-193 421.5,-193 421.5,-193 427.5,-193 433.5,-199 433.5,-205 433.5,-205 433.5,-217 433.5,-217 433.5,-223 427.5,-229 421.5,-229"/>
<text text-anchor="middle" x="406.5" y="-207.3" font-family="Nimbus" font-size="14.00">Delfín</text>
</g>
<!-- F&#45;&gt;J -->
<g id="edge13" class="edge">
<title>F&#45;&gt;J</title>
<path fill="none" stroke="black" d="M379.3,-201.82C368,-198.67 354.7,-195.29 342.5,-193 307.12,-186.36 205.69,-201.66 181.5,-175 171.04,-163.47 170.66,-146.02 172.96,-131.31"/>
<polygon fill="black" stroke="black" points="176.45,-131.71 175,-121.21 169.59,-130.32 176.45,-131.71"/>
<text text-anchor="middle" x="216" y="-153.9" font-family="Nimbus" font-size="12.00">subclase_de</text>
</g>
<!-- F&#45;&gt;E -->
<g id="edge11" class="edge">
<title>F&#45;&gt;E</title>
<path fill="none" stroke="black" d="M411,-192.97C415.4,-176.3 422.18,-150.65 427.33,-131.16"/>
<polygon fill="black" stroke="black" points="430.75,-131.9 429.92,-121.34 423.98,-130.12 430.75,-131.9"/>
<text text-anchor="middle" x="448" y="-153.9" font-family="Nimbus" font-size="12.00">de_color</text>
</g>
</g>
</svg>
