<?xml version="1.0" encoding="UTF-8" standalone="no"?>
<!DOCTYPE svg PUBLIC "-//W3C//DTD SVG 1.1//EN"
 "http://www.w3.org/Graphics/SVG/1.1/DTD/svg11.dtd">
<!-- Generated by graphviz version 2.43.0 (0)
 -->
<!-- Title: ejemplo Pages: 1 -->
<svg width="546pt" height="354pt"
 viewBox="0.00 0.00 546.00 354.00" xmlns="http://www.w3.org/2000/svg" xmlns:xlink="http://www.w3.org/1999/xlink">
<g id="graph0" class="graph" transform="scale(1 1) rotate(0) translate(4 350)">
<title>ejemplo</title>
<polygon fill="white" stroke="transparent" points="-4,4 -4,-350 542,-350 542,4 -4,4"/>
<g id="clust1" class="cluster">
<title>cluster_1</title>
<polygon fill="none" stroke="black" points="8,-8 8,-338 258,-338 258,-8 8,-8"/>
<text text-anchor="middle" x="133" y="-322.8" font-family="Times,serif" font-size="14.00">Problema</text>
</g>
<g id="clust2" class="cluster">
<title>cluster_2</title>
<polygon fill="none" stroke="black" points="266,-8 266,-338 530,-338 530,-8 266,-8"/>
<text text-anchor="middle" x="398" y="-322.8" font-family="Times,serif" font-size="14.00">Sin problema</text>
</g>
<!-- g -->
<g id="node1" class="node">
<title>g</title>
<path fill="lightgray" stroke="lightgray" stroke-width="2" d="M121.5,-307C121.5,-307 68.5,-307 68.5,-307 62.5,-307 56.5,-301 56.5,-295 56.5,-295 56.5,-283 56.5,-283 56.5,-277 62.5,-271 68.5,-271 68.5,-271 121.5,-271 121.5,-271 127.5,-271 133.5,-277 133.5,-283 133.5,-283 133.5,-295 133.5,-295 133.5,-301 127.5,-307 121.5,-307"/>
<text text-anchor="middle" x="95" y="-285.3" font-family="Nimbus" font-size="14.00">Mi gorrión</text>
</g>
<!-- A -->
<g id="node2" class="node">
<title>A</title>
<path fill="lightgray" stroke="lightgray" stroke-width="2" d="M114,-222C114,-222 76,-222 76,-222 70,-222 64,-216 64,-210 64,-210 64,-198 64,-198 64,-192 70,-186 76,-186 76,-186 114,-186 114,-186 120,-186 126,-192 126,-198 126,-198 126,-210 126,-210 126,-216 120,-222 114,-222"/>
<text text-anchor="middle" x="95" y="-200.3" font-family="Nimbus" font-size="14.00">Gorrión</text>
</g>
<!-- g&#45;&gt;A -->
<g id="edge1" class="edge">
<title>g&#45;&gt;A</title>
<path fill="none" stroke="black" d="M95,-270.8C95,-259.67 95,-244.94 95,-232.24"/>
<polygon fill="black" stroke="black" points="98.5,-232.18 95,-222.18 91.5,-232.18 98.5,-232.18"/>
<text text-anchor="middle" x="129.5" y="-243.4" font-family="Nimbus" font-size="12.00">instancia_de</text>
</g>
<!-- B -->
<g id="node3" class="node">
<title>B</title>
<path fill="lightgray" stroke="lightgray" stroke-width="2" d="M60,-137C60,-137 28,-137 28,-137 22,-137 16,-131 16,-125 16,-125 16,-113 16,-113 16,-107 22,-101 28,-101 28,-101 60,-101 60,-101 66,-101 72,-107 72,-113 72,-113 72,-125 72,-125 72,-131 66,-137 60,-137"/>
<text text-anchor="middle" x="44" y="-115.3" font-family="Nimbus" font-size="14.00">Pájaro</text>
</g>
<!-- A&#45;&gt;B -->
<g id="edge2" class="edge">
<title>A&#45;&gt;B</title>
<path fill="none" stroke="black" d="M82.1,-185.84C78.08,-180.25 73.72,-173.95 70,-168 65.72,-161.15 61.41,-153.54 57.56,-146.43"/>
<polygon fill="black" stroke="black" points="60.42,-144.37 52.64,-137.17 54.24,-147.65 60.42,-144.37"/>
<text text-anchor="middle" x="104.5" y="-158.4" font-family="Nimbus" font-size="12.00">subclase_de</text>
</g>
<!-- D -->
<g id="node5" class="node">
<title>D</title>
<path fill="lightgray" stroke="lightgray" stroke-width="2" d="M238,-137C238,-137 102,-137 102,-137 96,-137 90,-131 90,-125 90,-125 90,-113 90,-113 90,-107 96,-101 102,-101 102,-101 238,-101 238,-101 244,-101 250,-107 250,-113 250,-113 250,-125 250,-125 250,-131 244,-137 238,-137"/>
<text text-anchor="middle" x="170" y="-115.3" font-family="Nimbus" font-size="14.00">Especie en observación</text>
</g>
<!-- A&#45;&gt;D -->
<g id="edge4" class="edge">
<title>A&#45;&gt;D</title>
<path fill="none" stroke="black" d="M119.53,-185.79C126.23,-180.49 133.23,-174.37 139,-168 144.9,-161.49 150.43,-153.73 155.14,-146.38"/>
<polygon fill="black" stroke="black" points="158.4,-147.75 160.63,-137.4 152.43,-144.1 158.4,-147.75"/>
<text text-anchor="middle" x="182.5" y="-158.4" font-family="Nimbus" font-size="12.00">subclase_de</text>
</g>
<!-- C -->
<g id="node4" class="node">
<title>C</title>
<path fill="lightgray" stroke="lightgray" stroke-width="2" d="M59,-52C59,-52 29,-52 29,-52 23,-52 17,-46 17,-40 17,-40 17,-28 17,-28 17,-22 23,-16 29,-16 29,-16 59,-16 59,-16 65,-16 71,-22 71,-28 71,-28 71,-40 71,-40 71,-46 65,-52 59,-52"/>
<text text-anchor="middle" x="44" y="-30.3" font-family="Nimbus" font-size="14.00">Alas</text>
</g>
<!-- B&#45;&gt;C -->
<g id="edge3" class="edge">
<title>B&#45;&gt;C</title>
<path fill="none" stroke="black" d="M44,-100.8C44,-89.67 44,-74.94 44,-62.24"/>
<polygon fill="black" stroke="black" points="47.5,-62.18 44,-52.18 40.5,-62.18 47.5,-62.18"/>
<text text-anchor="middle" x="57.5" y="-73.4" font-family="Nimbus" font-size="12.00">tiene</text>
</g>
<!-- E -->
<g id="node6" class="node">
<title>E</title>
<path fill="lightgray" stroke="lightgray" stroke-width="2" d="M192,-52C192,-52 148,-52 148,-52 142,-52 136,-46 136,-40 136,-40 136,-28 136,-28 136,-22 142,-16 148,-16 148,-16 192,-16 192,-16 198,-16 204,-22 204,-28 204,-28 204,-40 204,-40 204,-46 198,-52 192,-52"/>
<text text-anchor="middle" x="170" y="-30.3" font-family="Nimbus" font-size="14.00">Biólogos</text>
</g>
<!-- D&#45;&gt;E -->
<g id="edge5" class="edge">
<title>D&#45;&gt;E</title>
<path fill="none" stroke="black" d="M170,-100.8C170,-89.67 170,-74.94 170,-62.24"/>
<polygon fill="black" stroke="black" points="173.5,-62.18 170,-52.18 166.5,-62.18 173.5,-62.18"/>
<text text-anchor="middle" x="208.5" y="-73.4" font-family="Nimbus" font-size="12.00">estudiado_por</text>
</g>
<!-- h -->
<g id="node7" class="node">
<title>h</title>
<path fill="lightgray" stroke="lightgray" stroke-width="2" d="M448.5,-307C448.5,-307 395.5,-307 395.5,-307 389.5,-307 383.5,-301 383.5,-295 383.5,-295 383.5,-283 383.5,-283 383.5,-277 389.5,-271 395.5,-271 395.5,-271 448.5,-271 448.5,-271 454.5,-271 460.5,-277 460.5,-283 460.5,-283 460.5,-295 460.5,-295 460.5,-301 454.5,-307 448.5,-307"/>
<text text-anchor="middle" x="422" y="-285.3" font-family="Nimbus" font-size="14.00">Mi gorrión</text>
</g>
<!-- F -->
<g id="node8" class="node">
<title>F</title>
<path fill="lightgray" stroke="lightgray" stroke-width="2" d="M441,-222C441,-222 403,-222 403,-222 397,-222 391,-216 391,-210 391,-210 391,-198 391,-198 391,-192 397,-186 403,-186 403,-186 441,-186 441,-186 447,-186 453,-192 453,-198 453,-198 453,-210 453,-210 453,-216 447,-222 441,-222"/>
<text text-anchor="middle" x="422" y="-200.3" font-family="Nimbus" font-size="14.00">Gorrión</text>
</g>
<!-- h&#45;&gt;F -->
<g id="edge6" class="edge">
<title>h&#45;&gt;F</title>
<path fill="none" stroke="black" d="M422,-270.8C422,-259.67 422,-244.94 422,-232.24"/>
<polygon fill="black" stroke="black" points="425.5,-232.18 422,-222.18 418.5,-232.18 425.5,-232.18"/>
<text text-anchor="middle" x="456.5" y="-243.4" font-family="Nimbus" font-size="12.00">instancia_de</text>
</g>
<!-- G -->
<g id="node9" class="node">
<title>G</title>
<path fill="lightgray" stroke="lightgray" stroke-width="2" d="M496,-137C496,-137 464,-137 464,-137 458,-137 452,-131 452,-125 452,-125 452,-113 452,-113 452,-107 458,-101 464,-101 464,-101 496,-101 496,-101 502,-101 508,-107 508,-113 508,-113 508,-125 508,-125 508,-131 502,-137 496,-137"/>
<text text-anchor="middle" x="480" y="-115.3" font-family="Nimbus" font-size="14.00">Pájaro</text>
</g>
<!-- F&#45;&gt;G -->
<g id="edge7" class="edge">
<title>F&#45;&gt;G</title>
<path fill="none" stroke="black" d="M434.02,-185.8C442.11,-174.23 452.91,-158.76 462.02,-145.73"/>
<polygon fill="black" stroke="black" points="465.14,-147.38 468,-137.18 459.4,-143.37 465.14,-147.38"/>
<text text-anchor="middle" x="488.5" y="-158.4" font-family="Nimbus" font-size="12.00">subclase_de</text>
</g>
<!-- I -->
<g id="node11" class="node">
<title>I</title>
<path fill="lightgray" stroke="lightgray" stroke-width="2" d="M422,-137C422,-137 286,-137 286,-137 280,-137 274,-131 274,-125 274,-125 274,-113 274,-113 274,-107 280,-101 286,-101 286,-101 422,-101 422,-101 428,-101 434,-107 434,-113 434,-113 434,-125 434,-125 434,-131 428,-137 422,-137"/>
<text text-anchor="middle" x="354" y="-115.3" font-family="Nimbus" font-size="14.00">Especie en observación</text>
</g>
<!-- F&#45;&gt;I -->
<g id="edge9" class="edge">
<title>F&#45;&gt;I</title>
<path fill="none" stroke="black" d="M393.13,-185.86C386.21,-180.76 379.3,-174.72 374,-168 369.08,-161.76 365.18,-154.14 362.18,-146.82"/>
<polygon fill="black" stroke="black" points="365.37,-145.37 358.63,-137.19 358.8,-147.79 365.37,-145.37"/>
<text text-anchor="middle" x="408.5" y="-158.4" font-family="Nimbus" font-size="12.00">subclase_de</text>
</g>
<!-- H -->
<g id="node10" class="node">
<title>H</title>
<path fill="lightgray" stroke="lightgray" stroke-width="2" d="M495,-52C495,-52 465,-52 465,-52 459,-52 453,-46 453,-40 453,-40 453,-28 453,-28 453,-22 459,-16 465,-16 465,-16 495,-16 495,-16 501,-16 507,-22 507,-28 507,-28 507,-40 507,-40 507,-46 501,-52 495,-52"/>
<text text-anchor="middle" x="480" y="-30.3" font-family="Nimbus" font-size="14.00">Alas</text>
</g>
<!-- G&#45;&gt;H -->
<g id="edge8" class="edge">
<title>G&#45;&gt;H</title>
<path fill="none" stroke="black" d="M480,-100.8C480,-89.67 480,-74.94 480,-62.24"/>
<polygon fill="black" stroke="black" points="483.5,-62.18 480,-52.18 476.5,-62.18 483.5,-62.18"/>
<text text-anchor="middle" x="493.5" y="-73.4" font-family="Nimbus" font-size="12.00">tiene</text>
</g>
<!-- J -->
<g id="node12" class="node">
<title>J</title>
<path fill="lightgray" stroke="lightgray" stroke-width="2" d="M330,-222C330,-222 286,-222 286,-222 280,-222 274,-216 274,-210 274,-210 274,-198 274,-198 274,-192 280,-186 286,-186 286,-186 330,-186 330,-186 336,-186 342,-192 342,-198 342,-198 342,-210 342,-210 342,-216 336,-222 330,-222"/>
<text text-anchor="middle" x="308" y="-200.3" font-family="Nimbus" font-size="14.00">Biólogos</text>
</g>
<!-- J&#45;&gt;I -->
<g id="edge10" class="edge">
<title>J&#45;&gt;I</title>
<path fill="none" stroke="black" d="M296.06,-185.8C291.03,-176.3 287.49,-164.52 293,-155 295.51,-150.67 298.77,-146.83 302.49,-143.44"/>
<polygon fill="black" stroke="black" points="304.92,-145.98 310.66,-137.07 300.62,-140.46 304.92,-145.98"/>
<text text-anchor="middle" x="316" y="-158.4" font-family="Nimbus" font-size="12.00">estudian</text>
</g>
</g>
</svg>
