<?xml version="1.0" encoding="UTF-8" standalone="no"?>
<!DOCTYPE svg PUBLIC "-//W3C//DTD SVG 1.1//EN"
 "http://www.w3.org/Graphics/SVG/1.1/DTD/svg11.dtd">
<!-- Generated by graphviz version 2.40.1 (20161225.0304)
 -->
<!-- Title: ejemplo Pages: 1 -->
<svg width="614pt" height="468pt"
 viewBox="0.00 0.00 614.00 468.00" xmlns="http://www.w3.org/2000/svg" xmlns:xlink="http://www.w3.org/1999/xlink">
<g id="graph0" class="graph" transform="scale(1 1) rotate(0) translate(4 464)">
<title>ejemplo</title>
<polygon fill="#ffffff" stroke="transparent" points="-4,4 -4,-464 610,-464 610,4 -4,4"/>
<g id="clust1" class="cluster">
<title>cluster_1</title>
<polygon fill="none" stroke="#000000" points="8,-8 8,-452 288,-452 288,-8 8,-8"/>
<text text-anchor="middle" x="148" y="-436.8" font-family="Times,serif" font-size="14.00" fill="#000000">Problema</text>
</g>
<g id="clust2" class="cluster">
<title>cluster_2</title>
<polygon fill="none" stroke="#000000" points="296,-8 296,-452 598,-452 598,-8 296,-8"/>
<text text-anchor="middle" x="447" y="-436.8" font-family="Times,serif" font-size="14.00" fill="#000000">Sin problema</text>
</g>
<!-- g -->
<g id="node1" class="node">
<title>g</title>
<path fill="#d3d3d3" stroke="#d3d3d3" stroke-width="2" d="M139.5,-421C139.5,-421 74.5,-421 74.5,-421 68.5,-421 62.5,-415 62.5,-409 62.5,-409 62.5,-397 62.5,-397 62.5,-391 68.5,-385 74.5,-385 74.5,-385 139.5,-385 139.5,-385 145.5,-385 151.5,-391 151.5,-397 151.5,-397 151.5,-409 151.5,-409 151.5,-415 145.5,-421 139.5,-421"/>
<text text-anchor="middle" x="107" y="-399.3" font-family="Nimbus" font-size="14.00" fill="#000000">Mi gorrión</text>
</g>
<!-- A -->
<g id="node2" class="node">
<title>A</title>
<path fill="#d3d3d3" stroke="#d3d3d3" stroke-width="2" d="M130.5,-298C130.5,-298 83.5,-298 83.5,-298 77.5,-298 71.5,-292 71.5,-286 71.5,-286 71.5,-274 71.5,-274 71.5,-268 77.5,-262 83.5,-262 83.5,-262 130.5,-262 130.5,-262 136.5,-262 142.5,-268 142.5,-274 142.5,-274 142.5,-286 142.5,-286 142.5,-292 136.5,-298 130.5,-298"/>
<text text-anchor="middle" x="107" y="-276.3" font-family="Nimbus" font-size="14.00" fill="#000000">Gorrión</text>
</g>
<!-- g&#45;&gt;A -->
<g id="edge1" class="edge">
<title>g&#45;&gt;A</title>
<path fill="none" stroke="#000000" d="M107,-384.8509C107,-364.6843 107,-331.8643 107,-308.3133"/>
<polygon fill="#000000" stroke="#000000" points="110.5001,-308.2235 107,-298.2235 103.5001,-308.2236 110.5001,-308.2235"/>
<text text-anchor="middle" x="143.5" y="-338.4" font-family="Nimbus" font-size="12.00" fill="#000000">instancia&#45;de</text>
</g>
<!-- B -->
<g id="node3" class="node">
<title>B</title>
<path fill="#d3d3d3" stroke="#d3d3d3" stroke-width="2" d="M65.5,-175C65.5,-175 28.5,-175 28.5,-175 22.5,-175 16.5,-169 16.5,-163 16.5,-163 16.5,-151 16.5,-151 16.5,-145 22.5,-139 28.5,-139 28.5,-139 65.5,-139 65.5,-139 71.5,-139 77.5,-145 77.5,-151 77.5,-151 77.5,-163 77.5,-163 77.5,-169 71.5,-175 65.5,-175"/>
<text text-anchor="middle" x="47" y="-153.3" font-family="Nimbus" font-size="14.00" fill="#000000">Pájaro</text>
</g>
<!-- A&#45;&gt;B -->
<g id="edge2" class="edge">
<title>A&#45;&gt;B</title>
<path fill="none" stroke="#000000" d="M98.1468,-261.8509C88.1765,-241.4118 71.8659,-207.975 60.3481,-184.3637"/>
<polygon fill="#000000" stroke="#000000" points="63.4195,-182.6767 55.8895,-175.2235 57.1281,-185.7457 63.4195,-182.6767"/>
<text text-anchor="middle" x="115" y="-215.4" font-family="Nimbus" font-size="12.00" fill="#000000">subclase&#45;de</text>
</g>
<!-- D -->
<g id="node5" class="node">
<title>D</title>
<path fill="#d3d3d3" stroke="#d3d3d3" stroke-width="2" d="M268.5,-175C268.5,-175 107.5,-175 107.5,-175 101.5,-175 95.5,-169 95.5,-163 95.5,-163 95.5,-151 95.5,-151 95.5,-145 101.5,-139 107.5,-139 107.5,-139 268.5,-139 268.5,-139 274.5,-139 280.5,-145 280.5,-151 280.5,-151 280.5,-163 280.5,-163 280.5,-169 274.5,-175 268.5,-175"/>
<text text-anchor="middle" x="188" y="-153.3" font-family="Nimbus" font-size="14.00" fill="#000000">Especie en observación</text>
</g>
<!-- A&#45;&gt;D -->
<g id="edge4" class="edge">
<title>A&#45;&gt;D</title>
<path fill="none" stroke="#000000" d="M125.2064,-261.6639C134.7935,-251.4184 146.3263,-238.1048 155,-225 163.4263,-212.269 171.0095,-197.0649 176.7755,-184.265"/>
<polygon fill="#000000" stroke="#000000" points="180.0156,-185.591 180.8145,-175.0263 173.6018,-182.787 180.0156,-185.591"/>
<text text-anchor="middle" x="198" y="-215.4" font-family="Nimbus" font-size="12.00" fill="#000000">subclase&#45;de</text>
</g>
<!-- C -->
<g id="node4" class="node">
<title>C</title>
<path fill="#d3d3d3" stroke="#d3d3d3" stroke-width="2" d="M62,-52C62,-52 32,-52 32,-52 26,-52 20,-46 20,-40 20,-40 20,-28 20,-28 20,-22 26,-16 32,-16 32,-16 62,-16 62,-16 68,-16 74,-22 74,-28 74,-28 74,-40 74,-40 74,-46 68,-52 62,-52"/>
<text text-anchor="middle" x="47" y="-30.3" font-family="Nimbus" font-size="14.00" fill="#000000">Alas</text>
</g>
<!-- B&#45;&gt;C -->
<g id="edge3" class="edge">
<title>B&#45;&gt;C</title>
<path fill="none" stroke="#000000" d="M47,-138.8509C47,-118.6843 47,-85.8643 47,-62.3133"/>
<polygon fill="#000000" stroke="#000000" points="50.5001,-62.2235 47,-52.2235 43.5001,-62.2236 50.5001,-62.2235"/>
<text text-anchor="middle" x="62.5" y="-92.4" font-family="Nimbus" font-size="12.00" fill="#000000">tiene</text>
</g>
<!-- E -->
<g id="node6" class="node">
<title>E</title>
<path fill="#d3d3d3" stroke="#d3d3d3" stroke-width="2" d="M214.5,-52C214.5,-52 161.5,-52 161.5,-52 155.5,-52 149.5,-46 149.5,-40 149.5,-40 149.5,-28 149.5,-28 149.5,-22 155.5,-16 161.5,-16 161.5,-16 214.5,-16 214.5,-16 220.5,-16 226.5,-22 226.5,-28 226.5,-28 226.5,-40 226.5,-40 226.5,-46 220.5,-52 214.5,-52"/>
<text text-anchor="middle" x="188" y="-30.3" font-family="Nimbus" font-size="14.00" fill="#000000">Biólogos</text>
</g>
<!-- D&#45;&gt;E -->
<g id="edge5" class="edge">
<title>D&#45;&gt;E</title>
<path fill="none" stroke="#000000" d="M188,-138.8509C188,-118.6843 188,-85.8643 188,-62.3133"/>
<polygon fill="#000000" stroke="#000000" points="191.5001,-62.2235 188,-52.2235 184.5001,-62.2236 191.5001,-62.2235"/>
<text text-anchor="middle" x="230" y="-92.4" font-family="Nimbus" font-size="12.00" fill="#000000">estudiado&#45;por</text>
</g>
<!-- h -->
<g id="node7" class="node">
<title>h</title>
<path fill="#d3d3d3" stroke="#d3d3d3" stroke-width="2" d="M508.5,-421C508.5,-421 443.5,-421 443.5,-421 437.5,-421 431.5,-415 431.5,-409 431.5,-409 431.5,-397 431.5,-397 431.5,-391 437.5,-385 443.5,-385 443.5,-385 508.5,-385 508.5,-385 514.5,-385 520.5,-391 520.5,-397 520.5,-397 520.5,-409 520.5,-409 520.5,-415 514.5,-421 508.5,-421"/>
<text text-anchor="middle" x="476" y="-399.3" font-family="Nimbus" font-size="14.00" fill="#000000">Mi gorrión</text>
</g>
<!-- F -->
<g id="node8" class="node">
<title>F</title>
<path fill="#d3d3d3" stroke="#d3d3d3" stroke-width="2" d="M499.5,-298C499.5,-298 452.5,-298 452.5,-298 446.5,-298 440.5,-292 440.5,-286 440.5,-286 440.5,-274 440.5,-274 440.5,-268 446.5,-262 452.5,-262 452.5,-262 499.5,-262 499.5,-262 505.5,-262 511.5,-268 511.5,-274 511.5,-274 511.5,-286 511.5,-286 511.5,-292 505.5,-298 499.5,-298"/>
<text text-anchor="middle" x="476" y="-276.3" font-family="Nimbus" font-size="14.00" fill="#000000">Gorrión</text>
</g>
<!-- h&#45;&gt;F -->
<g id="edge6" class="edge">
<title>h&#45;&gt;F</title>
<path fill="none" stroke="#000000" d="M476,-384.8509C476,-364.6843 476,-331.8643 476,-308.3133"/>
<polygon fill="#000000" stroke="#000000" points="479.5001,-308.2235 476,-298.2235 472.5001,-308.2236 479.5001,-308.2235"/>
<text text-anchor="middle" x="512.5" y="-338.4" font-family="Nimbus" font-size="12.00" fill="#000000">instancia&#45;de</text>
</g>
<!-- G -->
<g id="node9" class="node">
<title>G</title>
<path fill="#d3d3d3" stroke="#d3d3d3" stroke-width="2" d="M555.5,-175C555.5,-175 518.5,-175 518.5,-175 512.5,-175 506.5,-169 506.5,-163 506.5,-163 506.5,-151 506.5,-151 506.5,-145 512.5,-139 518.5,-139 518.5,-139 555.5,-139 555.5,-139 561.5,-139 567.5,-145 567.5,-151 567.5,-151 567.5,-163 567.5,-163 567.5,-169 561.5,-175 555.5,-175"/>
<text text-anchor="middle" x="537" y="-153.3" font-family="Nimbus" font-size="14.00" fill="#000000">Pájaro</text>
</g>
<!-- F&#45;&gt;G -->
<g id="edge7" class="edge">
<title>F&#45;&gt;G</title>
<path fill="none" stroke="#000000" d="M485.0008,-261.8509C495.1372,-241.4118 511.7197,-207.975 523.4294,-184.3637"/>
<polygon fill="#000000" stroke="#000000" points="526.6549,-185.7374 527.9623,-175.2235 520.3837,-182.6273 526.6549,-185.7374"/>
<text text-anchor="middle" x="545" y="-215.4" font-family="Nimbus" font-size="12.00" fill="#000000">subclase&#45;de</text>
</g>
<!-- I -->
<g id="node11" class="node">
<title>I</title>
<path fill="#d3d3d3" stroke="#d3d3d3" stroke-width="2" d="M476.5,-175C476.5,-175 315.5,-175 315.5,-175 309.5,-175 303.5,-169 303.5,-163 303.5,-163 303.5,-151 303.5,-151 303.5,-145 309.5,-139 315.5,-139 315.5,-139 476.5,-139 476.5,-139 482.5,-139 488.5,-145 488.5,-151 488.5,-151 488.5,-163 488.5,-163 488.5,-169 482.5,-175 476.5,-175"/>
<text text-anchor="middle" x="396" y="-153.3" font-family="Nimbus" font-size="14.00" fill="#000000">Especie en observación</text>
</g>
<!-- F&#45;&gt;I -->
<g id="edge9" class="edge">
<title>F&#45;&gt;I</title>
<path fill="none" stroke="#000000" d="M457.2596,-261.8066C447.4275,-251.603 435.6605,-238.2838 427,-225 418.8368,-212.479 411.7429,-197.4565 406.4089,-184.7195"/>
<polygon fill="#000000" stroke="#000000" points="409.5095,-183.0499 402.5218,-175.0861 403.0181,-185.6693 409.5095,-183.0499"/>
<text text-anchor="middle" x="463" y="-215.4" font-family="Nimbus" font-size="12.00" fill="#000000">subclase&#45;de</text>
</g>
<!-- H -->
<g id="node10" class="node">
<title>H</title>
<path fill="#d3d3d3" stroke="#d3d3d3" stroke-width="2" d="M552,-52C552,-52 522,-52 522,-52 516,-52 510,-46 510,-40 510,-40 510,-28 510,-28 510,-22 516,-16 522,-16 522,-16 552,-16 552,-16 558,-16 564,-22 564,-28 564,-28 564,-40 564,-40 564,-46 558,-52 552,-52"/>
<text text-anchor="middle" x="537" y="-30.3" font-family="Nimbus" font-size="14.00" fill="#000000">Alas</text>
</g>
<!-- G&#45;&gt;H -->
<g id="edge8" class="edge">
<title>G&#45;&gt;H</title>
<path fill="none" stroke="#000000" d="M537,-138.8509C537,-118.6843 537,-85.8643 537,-62.3133"/>
<polygon fill="#000000" stroke="#000000" points="540.5001,-62.2235 537,-52.2235 533.5001,-62.2236 540.5001,-62.2235"/>
<text text-anchor="middle" x="552.5" y="-92.4" font-family="Nimbus" font-size="12.00" fill="#000000">tiene</text>
</g>
<!-- J -->
<g id="node12" class="node">
<title>J</title>
<path fill="#d3d3d3" stroke="#d3d3d3" stroke-width="2" d="M369.5,-298C369.5,-298 316.5,-298 316.5,-298 310.5,-298 304.5,-292 304.5,-286 304.5,-286 304.5,-274 304.5,-274 304.5,-268 310.5,-262 316.5,-262 316.5,-262 369.5,-262 369.5,-262 375.5,-262 381.5,-268 381.5,-274 381.5,-274 381.5,-286 381.5,-286 381.5,-292 375.5,-298 369.5,-298"/>
<text text-anchor="middle" x="343" y="-276.3" font-family="Nimbus" font-size="14.00" fill="#000000">Biólogos</text>
</g>
<!-- J&#45;&gt;I -->
<g id="edge10" class="edge">
<title>J&#45;&gt;I</title>
<path fill="none" stroke="#000000" d="M336.3689,-261.9096C332.2809,-247.7475 329.023,-227.8604 336,-212 341.1121,-200.379 350.0261,-190.1406 359.4437,-181.7457"/>
<polygon fill="#000000" stroke="#000000" points="361.9436,-184.2192 367.4005,-175.1377 357.4714,-178.834 361.9436,-184.2192"/>
<text text-anchor="middle" x="362" y="-215.4" font-family="Nimbus" font-size="12.00" fill="#000000">estudian</text>
</g>
</g>
</svg>
