<?xml version="1.0" encoding="UTF-8" standalone="no"?>
<!DOCTYPE svg PUBLIC "-//W3C//DTD SVG 1.1//EN"
 "http://www.w3.org/Graphics/SVG/1.1/DTD/svg11.dtd">
<!-- Generated by graphviz version 2.38.0 (20140413.2041)
 -->
<!-- Title: ejemplo Pages: 1 -->
<svg width="572pt" height="246pt"
 viewBox="0.00 0.00 572.00 246.00" xmlns="http://www.w3.org/2000/svg" xmlns:xlink="http://www.w3.org/1999/xlink">
<g id="graph0" class="graph" transform="scale(1 1) rotate(0) translate(4 242)">
<title>ejemplo</title>
<polygon fill="white" stroke="none" points="-4,4 -4,-242 568,-242 568,4 -4,4"/>
<g id="clust1" class="cluster"><title>cluster_1</title>
<polygon fill="none" stroke="black" points="8,-8 8,-230 278,-230 278,-8 8,-8"/>
</g>
<g id="clust2" class="cluster"><title>cluster_2</title>
<polygon fill="none" stroke="black" points="286,-8 286,-230 556,-230 556,-8 286,-8"/>
</g>
<!-- A -->
<g id="node1" class="node"><title>A</title>
<path fill="lightgray" stroke="lightgray" stroke-width="2" d="M117.5,-222C117.5,-222 72.5,-222 72.5,-222 66.5,-222 60.5,-216 60.5,-210 60.5,-210 60.5,-198 60.5,-198 60.5,-192 66.5,-186 72.5,-186 72.5,-186 117.5,-186 117.5,-186 123.5,-186 129.5,-192 129.5,-198 129.5,-198 129.5,-210 129.5,-210 129.5,-216 123.5,-222 117.5,-222"/>
<text text-anchor="middle" x="95" y="-200.3" font-family="Nimbus" font-size="14.00">Gorrión</text>
</g>
<!-- B -->
<g id="node2" class="node"><title>B</title>
<path fill="lightgray" stroke="lightgray" stroke-width="2" d="M63.5,-137C63.5,-137 28.5,-137 28.5,-137 22.5,-137 16.5,-131 16.5,-125 16.5,-125 16.5,-113 16.5,-113 16.5,-107 22.5,-101 28.5,-101 28.5,-101 63.5,-101 63.5,-101 69.5,-101 75.5,-107 75.5,-113 75.5,-113 75.5,-125 75.5,-125 75.5,-131 69.5,-137 63.5,-137"/>
<text text-anchor="middle" x="46" y="-115.3" font-family="Nimbus" font-size="14.00">Pájaro</text>
</g>
<!-- A&#45;&gt;B -->
<g id="edge1" class="edge"><title>A&#45;&gt;B</title>
<path fill="none" stroke="black" d="M84.8472,-185.802C78.0801,-174.34 69.0582,-159.058 61.4122,-146.106"/>
<polygon fill="black" stroke="black" points="64.2376,-144.008 56.1398,-137.176 58.2097,-147.566 64.2376,-144.008"/>
<text text-anchor="middle" x="109" y="-158.4" font-family="Nimbus" font-size="12.00">subclase&#45;de</text>
</g>
<!-- D -->
<g id="node4" class="node"><title>D</title>
<path fill="lightgray" stroke="lightgray" stroke-width="2" d="M258,-137C258,-137 106,-137 106,-137 100,-137 94,-131 94,-125 94,-125 94,-113 94,-113 94,-107 100,-101 106,-101 106,-101 258,-101 258,-101 264,-101 270,-107 270,-113 270,-113 270,-125 270,-125 270,-131 264,-137 258,-137"/>
<text text-anchor="middle" x="182" y="-115.3" font-family="Nimbus" font-size="14.00">Especie en observación</text>
</g>
<!-- A&#45;&gt;D -->
<g id="edge3" class="edge"><title>A&#45;&gt;D</title>
<path fill="none" stroke="black" d="M125.06,-185.921C132.969,-180.709 141.186,-174.595 148,-168 154.751,-161.466 161.041,-153.429 166.329,-145.813"/>
<polygon fill="black" stroke="black" points="169.442,-147.452 172.044,-137.182 163.605,-143.587 169.442,-147.452"/>
<text text-anchor="middle" x="194" y="-158.4" font-family="Nimbus" font-size="12.00">subclase&#45;de</text>
</g>
<!-- C -->
<g id="node3" class="node"><title>C</title>
<path fill="lightgray" stroke="lightgray" stroke-width="2" d="M61,-52C61,-52 31,-52 31,-52 25,-52 19,-46 19,-40 19,-40 19,-28 19,-28 19,-22 25,-16 31,-16 31,-16 61,-16 61,-16 67,-16 73,-22 73,-28 73,-28 73,-40 73,-40 73,-46 67,-52 61,-52"/>
<text text-anchor="middle" x="46" y="-30.3" font-family="Nimbus" font-size="14.00">Alas</text>
</g>
<!-- B&#45;&gt;C -->
<g id="edge2" class="edge"><title>B&#45;&gt;C</title>
<path fill="none" stroke="black" d="M46,-100.802C46,-89.6736 46,-74.9448 46,-62.2439"/>
<polygon fill="black" stroke="black" points="49.5001,-62.1756 46,-52.1756 42.5001,-62.1757 49.5001,-62.1756"/>
<text text-anchor="middle" x="60" y="-73.4" font-family="Nimbus" font-size="12.00">tiene</text>
</g>
<!-- E -->
<g id="node5" class="node"><title>E</title>
<path fill="lightgray" stroke="lightgray" stroke-width="2" d="M207,-52C207,-52 157,-52 157,-52 151,-52 145,-46 145,-40 145,-40 145,-28 145,-28 145,-22 151,-16 157,-16 157,-16 207,-16 207,-16 213,-16 219,-22 219,-28 219,-28 219,-40 219,-40 219,-46 213,-52 207,-52"/>
<text text-anchor="middle" x="182" y="-30.3" font-family="Nimbus" font-size="14.00">Biólogos</text>
</g>
<!-- D&#45;&gt;E -->
<g id="edge4" class="edge"><title>D&#45;&gt;E</title>
<path fill="none" stroke="black" d="M182,-100.802C182,-89.6736 182,-74.9448 182,-62.2439"/>
<polygon fill="black" stroke="black" points="185.5,-62.1756 182,-52.1756 178.5,-62.1757 185.5,-62.1756"/>
<text text-anchor="middle" x="223" y="-73.4" font-family="Nimbus" font-size="12.00">estudiado&#45;por</text>
</g>
<!-- F -->
<g id="node6" class="node"><title>F</title>
<path fill="lightgray" stroke="lightgray" stroke-width="2" d="M471.5,-222C471.5,-222 426.5,-222 426.5,-222 420.5,-222 414.5,-216 414.5,-210 414.5,-210 414.5,-198 414.5,-198 414.5,-192 420.5,-186 426.5,-186 426.5,-186 471.5,-186 471.5,-186 477.5,-186 483.5,-192 483.5,-198 483.5,-198 483.5,-210 483.5,-210 483.5,-216 477.5,-222 471.5,-222"/>
<text text-anchor="middle" x="449" y="-200.3" font-family="Nimbus" font-size="14.00">Gorrión</text>
</g>
<!-- G -->
<g id="node7" class="node"><title>G</title>
<path fill="lightgray" stroke="lightgray" stroke-width="2" d="M535.5,-137C535.5,-137 500.5,-137 500.5,-137 494.5,-137 488.5,-131 488.5,-125 488.5,-125 488.5,-113 488.5,-113 488.5,-107 494.5,-101 500.5,-101 500.5,-101 535.5,-101 535.5,-101 541.5,-101 547.5,-107 547.5,-113 547.5,-113 547.5,-125 547.5,-125 547.5,-131 541.5,-137 535.5,-137"/>
<text text-anchor="middle" x="518" y="-115.3" font-family="Nimbus" font-size="14.00">Pájaro</text>
</g>
<!-- F&#45;&gt;G -->
<g id="edge5" class="edge"><title>F&#45;&gt;G</title>
<path fill="none" stroke="black" d="M463.297,-185.802C473.104,-174.006 486.273,-158.164 497.233,-144.981"/>
<polygon fill="black" stroke="black" points="500.02,-147.103 503.721,-137.176 494.637,-142.628 500.02,-147.103"/>
<text text-anchor="middle" x="522" y="-158.4" font-family="Nimbus" font-size="12.00">subclase&#45;de</text>
</g>
<!-- I -->
<g id="node9" class="node"><title>I</title>
<path fill="lightgray" stroke="lightgray" stroke-width="2" d="M458,-137C458,-137 306,-137 306,-137 300,-137 294,-131 294,-125 294,-125 294,-113 294,-113 294,-107 300,-101 306,-101 306,-101 458,-101 458,-101 464,-101 470,-107 470,-113 470,-113 470,-125 470,-125 470,-131 464,-137 458,-137"/>
<text text-anchor="middle" x="382" y="-115.3" font-family="Nimbus" font-size="14.00">Especie en observación</text>
</g>
<!-- F&#45;&gt;I -->
<g id="edge7" class="edge"><title>F&#45;&gt;I</title>
<path fill="none" stroke="black" d="M414.23,-191.231C403.444,-185.844 392.652,-178.301 386,-168 382.099,-161.959 380.367,-154.559 379.788,-147.396"/>
<polygon fill="black" stroke="black" points="383.285,-147.206 379.645,-137.256 376.286,-147.305 383.285,-147.206"/>
<text text-anchor="middle" x="421" y="-158.4" font-family="Nimbus" font-size="12.00">subclase&#45;de</text>
</g>
<!-- H -->
<g id="node8" class="node"><title>H</title>
<path fill="lightgray" stroke="lightgray" stroke-width="2" d="M533,-52C533,-52 503,-52 503,-52 497,-52 491,-46 491,-40 491,-40 491,-28 491,-28 491,-22 497,-16 503,-16 503,-16 533,-16 533,-16 539,-16 545,-22 545,-28 545,-28 545,-40 545,-40 545,-46 539,-52 533,-52"/>
<text text-anchor="middle" x="518" y="-30.3" font-family="Nimbus" font-size="14.00">Alas</text>
</g>
<!-- G&#45;&gt;H -->
<g id="edge6" class="edge"><title>G&#45;&gt;H</title>
<path fill="none" stroke="black" d="M518,-100.802C518,-89.6736 518,-74.9448 518,-62.2439"/>
<polygon fill="black" stroke="black" points="521.5,-62.1756 518,-52.1756 514.5,-62.1757 521.5,-62.1756"/>
<text text-anchor="middle" x="532" y="-73.4" font-family="Nimbus" font-size="12.00">tiene</text>
</g>
<!-- J -->
<g id="node10" class="node"><title>J</title>
<path fill="lightgray" stroke="lightgray" stroke-width="2" d="M356,-222C356,-222 306,-222 306,-222 300,-222 294,-216 294,-210 294,-210 294,-198 294,-198 294,-192 300,-186 306,-186 306,-186 356,-186 356,-186 362,-186 368,-192 368,-198 368,-198 368,-210 368,-210 368,-216 362,-222 356,-222"/>
<text text-anchor="middle" x="331" y="-200.3" font-family="Nimbus" font-size="14.00">Biólogos</text>
</g>
<!-- J&#45;&gt;I -->
<g id="edge8" class="edge"><title>J&#45;&gt;I</title>
<path fill="none" stroke="black" d="M317.25,-185.83C311.401,-176.333 307.132,-164.556 313,-155 315.741,-150.536 319.249,-146.62 323.225,-143.188"/>
<polygon fill="black" stroke="black" points="325.409,-145.926 331.372,-137.169 321.249,-140.296 325.409,-145.926"/>
<text text-anchor="middle" x="338" y="-158.4" font-family="Nimbus" font-size="12.00">estudian</text>
</g>
</g>
</svg>
