<?xml version="1.0" encoding="UTF-8" standalone="no"?>
<!DOCTYPE svg PUBLIC "-//W3C//DTD SVG 1.1//EN"
 "http://www.w3.org/Graphics/SVG/1.1/DTD/svg11.dtd">
<!-- Generated by graphviz version 2.38.0 (20140413.2041)
 -->
<!-- Title: ejemplo Pages: 1 -->
<svg width="333pt" height="299pt"
 viewBox="0.00 0.00 333.00 299.00" xmlns="http://www.w3.org/2000/svg" xmlns:xlink="http://www.w3.org/1999/xlink">
<g id="graph0" class="graph" transform="scale(1 1) rotate(0) translate(4 295)">
<title>ejemplo</title>
<polygon fill="white" stroke="none" points="-4,4 -4,-295 329,-295 329,4 -4,4"/>
<g id="clust1" class="cluster"><title>cluster_1</title>
<polygon fill="none" stroke="black" points="103,-77 103,-214 207,-214 207,-77 103,-77"/>
</g>
<!-- A -->
<g id="node1" class="node"><title>A</title>
<path fill="lightgray" stroke="lightgray" stroke-width="2" d="M162,-291C162,-291 132,-291 132,-291 126,-291 120,-285 120,-279 120,-279 120,-267 120,-267 120,-261 126,-255 132,-255 132,-255 162,-255 162,-255 168,-255 174,-261 174,-267 174,-267 174,-279 174,-279 174,-285 168,-291 162,-291"/>
<text text-anchor="middle" x="147" y="-269.3" font-family="Nimbus" font-size="14.00">pepe</text>
</g>
<!-- B -->
<g id="node2" class="node"><title>B</title>
<path fill="lightgray" stroke="lightgray" stroke-width="2" d="M82,-206C82,-206 12,-206 12,-206 6,-206 -7.10543e-15,-200 -7.10543e-15,-194 -7.10543e-15,-194 -7.10543e-15,-182 -7.10543e-15,-182 -7.10543e-15,-176 6,-170 12,-170 12,-170 82,-170 82,-170 88,-170 94,-176 94,-182 94,-182 94,-194 94,-194 94,-200 88,-206 82,-206"/>
<text text-anchor="middle" x="47" y="-184.3" font-family="Nimbus" font-size="14.00">informático</text>
</g>
<!-- A&#45;&gt;B -->
<g id="edge1" class="edge"><title>A&#45;&gt;B</title>
<path fill="none" stroke="black" d="M119.997,-258.865C109.177,-252.954 96.9441,-245.411 87,-237 79.2147,-230.415 71.7537,-222.194 65.4284,-214.427"/>
<polygon fill="black" stroke="black" points="67.9683,-211.993 59.0491,-206.275 62.4557,-216.307 67.9683,-211.993"/>
<text text-anchor="middle" x="115" y="-227.4" font-family="Nimbus" font-size="12.00">profesión</text>
</g>
<!-- C -->
<g id="node3" class="node"><title>C</title>
<path fill="lightgray" stroke="lightgray" stroke-width="2" d="M313,-206C313,-206 227,-206 227,-206 221,-206 215,-200 215,-194 215,-194 215,-182 215,-182 215,-176 221,-170 227,-170 227,-170 313,-170 313,-170 319,-170 325,-176 325,-182 325,-182 325,-194 325,-194 325,-200 319,-206 313,-206"/>
<text text-anchor="middle" x="270" y="-184.3" font-family="Nimbus" font-size="14.00">edad&#45;de&#45;pepe</text>
</g>
<!-- A&#45;&gt;C -->
<g id="edge2" class="edge"><title>A&#45;&gt;C</title>
<path fill="none" stroke="black" d="M174.28,-255.429C183.482,-249.712 193.76,-243.188 203,-237 214.842,-229.069 227.613,-220.042 238.796,-211.974"/>
<polygon fill="black" stroke="black" points="240.958,-214.73 246.997,-206.025 236.847,-209.064 240.958,-214.73"/>
<text text-anchor="middle" x="236.5" y="-227.4" font-family="Nimbus" font-size="12.00">edad</text>
</g>
<!-- E -->
<g id="node5" class="node"><title>E</title>
<path fill="lightgray" stroke="lightgray" stroke-width="2" d="M169.5,-206C169.5,-206 124.5,-206 124.5,-206 118.5,-206 112.5,-200 112.5,-194 112.5,-194 112.5,-182 112.5,-182 112.5,-176 118.5,-170 124.5,-170 124.5,-170 169.5,-170 169.5,-170 175.5,-170 181.5,-176 181.5,-182 181.5,-182 181.5,-194 181.5,-194 181.5,-200 175.5,-206 169.5,-206"/>
<text text-anchor="middle" x="147" y="-184.3" font-family="Nimbus" font-size="14.00">hombre</text>
</g>
<!-- A&#45;&gt;E -->
<g id="edge4" class="edge"><title>A&#45;&gt;E</title>
<path fill="none" stroke="black" d="M147,-254.802C147,-243.674 147,-228.945 147,-216.244"/>
<polygon fill="black" stroke="black" points="150.5,-216.176 147,-206.176 143.5,-216.176 150.5,-216.176"/>
<text text-anchor="middle" x="173" y="-227.4" font-family="Nimbus" font-size="12.00">instancia</text>
</g>
<!-- D -->
<g id="node4" class="node"><title>D</title>
<path fill="lightgray" stroke="lightgray" stroke-width="2" d="M285,-121C285,-121 255,-121 255,-121 249,-121 243,-115 243,-109 243,-109 243,-97 243,-97 243,-91 249,-85 255,-85 255,-85 285,-85 285,-85 291,-85 297,-91 297,-97 297,-97 297,-109 297,-109 297,-115 291,-121 285,-121"/>
<text text-anchor="middle" x="270" y="-99.3" font-family="Nimbus" font-size="14.00">37</text>
</g>
<!-- C&#45;&gt;D -->
<g id="edge3" class="edge"><title>C&#45;&gt;D</title>
<path fill="none" stroke="black" d="M270,-169.802C270,-158.674 270,-143.945 270,-131.244"/>
<polygon fill="black" stroke="black" points="273.5,-131.176 270,-121.176 266.5,-131.176 273.5,-131.176"/>
<text text-anchor="middle" x="284.5" y="-142.4" font-family="Nimbus" font-size="12.00">valor</text>
</g>
<!-- F -->
<g id="node6" class="node"><title>F</title>
<path fill="lightgray" stroke="lightgray" stroke-width="2" d="M170.5,-121C170.5,-121 123.5,-121 123.5,-121 117.5,-121 111.5,-115 111.5,-109 111.5,-109 111.5,-97 111.5,-97 111.5,-91 117.5,-85 123.5,-85 123.5,-85 170.5,-85 170.5,-85 176.5,-85 182.5,-91 182.5,-97 182.5,-97 182.5,-109 182.5,-109 182.5,-115 176.5,-121 170.5,-121"/>
<text text-anchor="middle" x="147" y="-99.3" font-family="Nimbus" font-size="14.00">persona</text>
</g>
<!-- E&#45;&gt;F -->
<g id="edge5" class="edge"><title>E&#45;&gt;F</title>
<path fill="none" stroke="black" d="M147,-169.802C147,-158.674 147,-143.945 147,-131.244"/>
<polygon fill="black" stroke="black" points="150.5,-131.176 147,-121.176 143.5,-131.176 150.5,-131.176"/>
<text text-anchor="middle" x="182" y="-142.4" font-family="Nimbus" font-size="12.00">subclase&#45;de</text>
</g>
<!-- G -->
<g id="node7" class="node"><title>G</title>
<path fill="lightgray" stroke="lightgray" stroke-width="2" d="M167.5,-36C167.5,-36 126.5,-36 126.5,-36 120.5,-36 114.5,-30 114.5,-24 114.5,-24 114.5,-12 114.5,-12 114.5,-6 120.5,-0 126.5,-0 126.5,-0 167.5,-0 167.5,-0 173.5,-0 179.5,-6 179.5,-12 179.5,-12 179.5,-24 179.5,-24 179.5,-30 173.5,-36 167.5,-36"/>
<text text-anchor="middle" x="147" y="-14.3" font-family="Nimbus" font-size="14.00">cabeza</text>
</g>
<!-- F&#45;&gt;G -->
<g id="edge6" class="edge"><title>F&#45;&gt;G</title>
<path fill="none" stroke="black" d="M147,-84.8023C147,-73.6736 147,-58.9448 147,-46.2439"/>
<polygon fill="black" stroke="black" points="150.5,-46.1756 147,-36.1756 143.5,-46.1757 150.5,-46.1756"/>
<text text-anchor="middle" x="161" y="-57.4" font-family="Nimbus" font-size="12.00">tiene</text>
</g>
</g>
</svg>
