<?xml version="1.0" encoding="UTF-8" standalone="no"?>
<!DOCTYPE svg PUBLIC "-//W3C//DTD SVG 1.1//EN"
 "http://www.w3.org/Graphics/SVG/1.1/DTD/svg11.dtd">
<!-- Generated by graphviz version 2.38.0 (20140413.2041)
 -->
<!-- Title: ejemplo Pages: 1 -->
<svg width="111pt" height="129pt"
 viewBox="0.00 0.00 111.00 129.00" xmlns="http://www.w3.org/2000/svg" xmlns:xlink="http://www.w3.org/1999/xlink">
<g id="graph0" class="graph" transform="scale(1 1) rotate(0) translate(4 125)">
<title>ejemplo</title>
<polygon fill="white" stroke="none" points="-4,4 -4,-125 107,-125 107,4 -4,4"/>
<!-- A -->
<g id="node1" class="node"><title>A</title>
<path fill="lightgray" stroke="lightgray" stroke-width="2" d="M62,-121C62,-121 32,-121 32,-121 26,-121 20,-115 20,-109 20,-109 20,-97 20,-97 20,-91 26,-85 32,-85 32,-85 62,-85 62,-85 68,-85 74,-91 74,-97 74,-97 74,-109 74,-109 74,-115 68,-121 62,-121"/>
<text text-anchor="middle" x="47" y="-99.3" font-family="Nimbus" font-size="14.00">pepe</text>
</g>
<!-- B -->
<g id="node2" class="node"><title>B</title>
<path fill="lightgray" stroke="lightgray" stroke-width="2" d="M82,-36C82,-36 12,-36 12,-36 6,-36 -7.10543e-15,-30 -7.10543e-15,-24 -7.10543e-15,-24 -7.10543e-15,-12 -7.10543e-15,-12 -7.10543e-15,-6 6,-0 12,-0 12,-0 82,-0 82,-0 88,-0 94,-6 94,-12 94,-12 94,-24 94,-24 94,-30 88,-36 82,-36"/>
<text text-anchor="middle" x="47" y="-14.3" font-family="Nimbus" font-size="14.00">informático</text>
</g>
<!-- A&#45;&gt;B -->
<g id="edge1" class="edge"><title>A&#45;&gt;B</title>
<path fill="none" stroke="black" d="M47,-84.8023C47,-73.6736 47,-58.9448 47,-46.2439"/>
<polygon fill="black" stroke="black" points="50.5001,-46.1756 47,-36.1756 43.5001,-46.1757 50.5001,-46.1756"/>
<text text-anchor="middle" x="75" y="-57.4" font-family="Nimbus" font-size="12.00">profesión</text>
</g>
</g>
</svg>
