<?xml version="1.0" encoding="UTF-8" standalone="no"?>
<!DOCTYPE svg PUBLIC "-//W3C//DTD SVG 1.1//EN"
 "http://www.w3.org/Graphics/SVG/1.1/DTD/svg11.dtd">
<!-- Generated by graphviz version 2.38.0 (20140413.2041)
 -->
<!-- Title: ejemplo Pages: 1 -->
<svg width="442pt" height="214pt"
 viewBox="0.00 0.00 442.00 214.00" xmlns="http://www.w3.org/2000/svg" xmlns:xlink="http://www.w3.org/1999/xlink">
<g id="graph0" class="graph" transform="scale(1 1) rotate(0) translate(4 210)">
<title>ejemplo</title>
<polygon fill="white" stroke="none" points="-4,4 -4,-210 438,-210 438,4 -4,4"/>
<!-- A -->
<g id="node1" class="node"><title>A</title>
<path fill="lightgray" stroke="lightgray" stroke-width="2" d="M281.5,-206C281.5,-206 186.5,-206 186.5,-206 180.5,-206 174.5,-200 174.5,-194 174.5,-194 174.5,-182 174.5,-182 174.5,-176 180.5,-170 186.5,-170 186.5,-170 281.5,-170 281.5,-170 287.5,-170 293.5,-176 293.5,-182 293.5,-182 293.5,-194 293.5,-194 293.5,-200 287.5,-206 281.5,-206"/>
<text text-anchor="middle" x="234" y="-184.3" font-family="Nimbus" font-size="14.00">CompraVenta1</text>
</g>
<!-- B -->
<g id="node2" class="node"><title>B</title>
<path fill="lightgray" stroke="lightgray" stroke-width="2" d="M98,-121C98,-121 12,-121 12,-121 6,-121 0,-115 0,-109 0,-109 0,-97 0,-97 0,-91 6,-85 12,-85 12,-85 98,-85 98,-85 104,-85 110,-91 110,-97 110,-97 110,-109 110,-109 110,-115 104,-121 98,-121"/>
<text text-anchor="middle" x="55" y="-99.3" font-family="Nimbus" font-size="14.00">CompraVenta</text>
</g>
<!-- A&#45;&gt;B -->
<g id="edge1" class="edge"><title>A&#45;&gt;B</title>
<path fill="none" stroke="black" d="M174.208,-175.797C153.126,-170.399 129.768,-162.705 110,-152 98.5073,-145.776 87.3488,-136.778 78.1202,-128.25"/>
<polygon fill="black" stroke="black" points="80.4921,-125.675 70.8572,-121.268 75.6411,-130.721 80.4921,-125.675"/>
<text text-anchor="middle" x="136" y="-142.4" font-family="Nimbus" font-size="12.00">instancia</text>
</g>
<!-- C -->
<g id="node3" class="node"><title>C</title>
<path fill="lightgray" stroke="lightgray" stroke-width="2" d="M170,-121C170,-121 140,-121 140,-121 134,-121 128,-115 128,-109 128,-109 128,-97 128,-97 128,-91 134,-85 140,-85 140,-85 170,-85 170,-85 176,-85 182,-91 182,-97 182,-97 182,-109 182,-109 182,-115 176,-121 170,-121"/>
<text text-anchor="middle" x="155" y="-99.3" font-family="Nimbus" font-size="14.00">Luis</text>
</g>
<!-- A&#45;&gt;C -->
<g id="edge2" class="edge"><title>A&#45;&gt;C</title>
<path fill="none" stroke="black" d="M195.895,-169.925C187.891,-165.016 180.051,-159.043 174,-152 168.72,-145.855 164.8,-138.066 161.938,-130.559"/>
<polygon fill="black" stroke="black" points="165.24,-129.397 158.759,-121.015 158.599,-131.609 165.24,-129.397"/>
<text text-anchor="middle" x="202" y="-142.4" font-family="Nimbus" font-size="12.00">vendedor</text>
</g>
<!-- D -->
<g id="node4" class="node"><title>D</title>
<path fill="lightgray" stroke="lightgray" stroke-width="2" d="M249,-121C249,-121 219,-121 219,-121 213,-121 207,-115 207,-109 207,-109 207,-97 207,-97 207,-91 213,-85 219,-85 219,-85 249,-85 249,-85 255,-85 261,-91 261,-97 261,-97 261,-109 261,-109 261,-115 255,-121 249,-121"/>
<text text-anchor="middle" x="234" y="-99.3" font-family="Nimbus" font-size="14.00">Pepe</text>
</g>
<!-- A&#45;&gt;D -->
<g id="edge3" class="edge"><title>A&#45;&gt;D</title>
<path fill="none" stroke="black" d="M234,-169.802C234,-158.674 234,-143.945 234,-131.244"/>
<polygon fill="black" stroke="black" points="237.5,-131.176 234,-121.176 230.5,-131.176 237.5,-131.176"/>
<text text-anchor="middle" x="267" y="-142.4" font-family="Nimbus" font-size="12.00">comprador</text>
</g>
<!-- E -->
<g id="node5" class="node"><title>E</title>
<path fill="lightgray" stroke="lightgray" stroke-width="2" d="M336.5,-121C336.5,-121 301.5,-121 301.5,-121 295.5,-121 289.5,-115 289.5,-109 289.5,-109 289.5,-97 289.5,-97 289.5,-91 295.5,-85 301.5,-85 301.5,-85 336.5,-85 336.5,-85 342.5,-85 348.5,-91 348.5,-97 348.5,-97 348.5,-109 348.5,-109 348.5,-115 342.5,-121 336.5,-121"/>
<text text-anchor="middle" x="319" y="-99.3" font-family="Nimbus" font-size="14.00">Reloj1</text>
</g>
<!-- A&#45;&gt;E -->
<g id="edge4" class="edge"><title>A&#45;&gt;E</title>
<path fill="none" stroke="black" d="M278.034,-169.917C286.479,-165.106 294.654,-159.177 301,-152 306.329,-145.974 310.139,-138.219 312.838,-130.707"/>
<polygon fill="black" stroke="black" points="316.187,-131.726 315.781,-121.139 309.496,-129.668 316.187,-131.726"/>
<text text-anchor="middle" x="328.5" y="-142.4" font-family="Nimbus" font-size="12.00">objeto</text>
</g>
<!-- F -->
<g id="node6" class="node"><title>F</title>
<path fill="lightgray" stroke="lightgray" stroke-width="2" d="M409,-121C409,-121 379,-121 379,-121 373,-121 367,-115 367,-109 367,-109 367,-97 367,-97 367,-91 373,-85 379,-85 379,-85 409,-85 409,-85 415,-85 421,-91 421,-97 421,-97 421,-109 421,-109 421,-115 415,-121 409,-121"/>
<text text-anchor="middle" x="394" y="-99.3" font-family="Nimbus" font-size="14.00">45</text>
</g>
<!-- A&#45;&gt;F -->
<g id="edge5" class="edge"><title>A&#45;&gt;F</title>
<path fill="none" stroke="black" d="M293.541,-175.937C312.849,-170.634 333.725,-162.963 351,-152 360.352,-146.065 368.902,-137.542 375.871,-129.32"/>
<polygon fill="black" stroke="black" points="378.769,-131.3 382.284,-121.306 373.303,-126.927 378.769,-131.3"/>
<text text-anchor="middle" x="385.5" y="-142.4" font-family="Nimbus" font-size="12.00">precio</text>
</g>
<!-- G -->
<g id="node7" class="node"><title>G</title>
<path fill="lightgray" stroke="lightgray" stroke-width="2" d="M334,-36C334,-36 304,-36 304,-36 298,-36 292,-30 292,-24 292,-24 292,-12 292,-12 292,-6 298,-0 304,-0 304,-0 334,-0 334,-0 340,-0 346,-6 346,-12 346,-12 346,-24 346,-24 346,-30 340,-36 334,-36"/>
<text text-anchor="middle" x="319" y="-14.3" font-family="Nimbus" font-size="14.00">Reloj</text>
</g>
<!-- E&#45;&gt;G -->
<g id="edge6" class="edge"><title>E&#45;&gt;G</title>
<path fill="none" stroke="black" d="M319,-84.8023C319,-73.6736 319,-58.9448 319,-46.2439"/>
<polygon fill="black" stroke="black" points="322.5,-46.1756 319,-36.1756 315.5,-46.1757 322.5,-46.1756"/>
<text text-anchor="middle" x="345" y="-57.4" font-family="Nimbus" font-size="12.00">instancia</text>
</g>
<!-- H -->
<g id="node8" class="node"><title>H</title>
<path fill="lightgray" stroke="lightgray" stroke-width="2" d="M409,-36C409,-36 379,-36 379,-36 373,-36 367,-30 367,-24 367,-24 367,-12 367,-12 367,-6 373,-0 379,-0 379,-0 409,-0 409,-0 415,-0 421,-6 421,-12 421,-12 421,-24 421,-24 421,-30 415,-36 409,-36"/>
<text text-anchor="middle" x="394" y="-14.3" font-family="Nimbus" font-size="14.00">Euro</text>
</g>
<!-- F&#45;&gt;H -->
<g id="edge7" class="edge"><title>F&#45;&gt;H</title>
<path fill="none" stroke="black" d="M394,-84.8023C394,-73.6736 394,-58.9448 394,-46.2439"/>
<polygon fill="black" stroke="black" points="397.5,-46.1756 394,-36.1756 390.5,-46.1757 397.5,-46.1756"/>
<text text-anchor="middle" x="414" y="-57.4" font-family="Nimbus" font-size="12.00">unidad</text>
</g>
</g>
</svg>
