<?xml version="1.0" encoding="UTF-8" standalone="no"?>
<!DOCTYPE svg PUBLIC "-//W3C//DTD SVG 1.1//EN"
 "http://www.w3.org/Graphics/SVG/1.1/DTD/svg11.dtd">
<!-- Generated by graphviz version 2.38.0 (20140413.2041)
 -->
<!-- Title: ejemplo Pages: 1 -->
<svg width="884pt" height="214pt"
 viewBox="0.00 0.00 883.50 214.00" xmlns="http://www.w3.org/2000/svg" xmlns:xlink="http://www.w3.org/1999/xlink">
<g id="graph0" class="graph" transform="scale(1 1) rotate(0) translate(4 210)">
<title>ejemplo</title>
<polygon fill="white" stroke="none" points="-4,4 -4,-210 879.5,-210 879.5,4 -4,4"/>
<!-- A -->
<g id="node1" class="node"><title>A</title>
<path fill="lightgray" stroke="lightgray" stroke-width="2" d="M225.5,-206C225.5,-206 176.5,-206 176.5,-206 170.5,-206 164.5,-200 164.5,-194 164.5,-194 164.5,-182 164.5,-182 164.5,-176 170.5,-170 176.5,-170 176.5,-170 225.5,-170 225.5,-170 231.5,-170 237.5,-176 237.5,-182 237.5,-182 237.5,-194 237.5,-194 237.5,-200 231.5,-206 225.5,-206"/>
<text text-anchor="middle" x="201" y="-184.3" font-family="Nimbus" font-size="14.00">Saber_1</text>
</g>
<!-- B -->
<g id="node2" class="node"><title>B</title>
<path fill="lightgray" stroke="lightgray" stroke-width="2" d="M98,-121C98,-121 12,-121 12,-121 6,-121 0,-115 0,-109 0,-109 0,-97 0,-97 0,-91 6,-85 12,-85 12,-85 98,-85 98,-85 104,-85 110,-91 110,-97 110,-97 110,-109 110,-109 110,-115 104,-121 98,-121"/>
<text text-anchor="middle" x="55" y="-99.3" font-family="Nimbus" font-size="14.00">Suceso_saber</text>
</g>
<!-- A&#45;&gt;B -->
<g id="edge1" class="edge"><title>A&#45;&gt;B</title>
<path fill="none" stroke="black" d="M164.348,-172.93C150.445,-167.089 134.678,-159.842 121,-152 108.365,-144.756 95.2352,-135.59 84.0452,-127.213"/>
<polygon fill="black" stroke="black" points="85.9807,-124.288 75.9067,-121.007 81.7359,-129.854 85.9807,-124.288"/>
<text text-anchor="middle" x="147" y="-142.4" font-family="Nimbus" font-size="12.00">instancia</text>
</g>
<!-- D -->
<g id="node4" class="node"><title>D</title>
<path fill="lightgray" stroke="lightgray" stroke-width="2" d="M175.5,-121C175.5,-121 140.5,-121 140.5,-121 134.5,-121 128.5,-115 128.5,-109 128.5,-109 128.5,-97 128.5,-97 128.5,-91 134.5,-85 140.5,-85 140.5,-85 175.5,-85 175.5,-85 181.5,-85 187.5,-91 187.5,-97 187.5,-97 187.5,-109 187.5,-109 187.5,-115 181.5,-121 175.5,-121"/>
<text text-anchor="middle" x="158" y="-99.3" font-family="Nimbus" font-size="14.00">Activa</text>
</g>
<!-- A&#45;&gt;D -->
<g id="edge3" class="edge"><title>A&#45;&gt;D</title>
<path fill="none" stroke="black" d="M192.09,-169.802C186.152,-158.34 178.235,-143.058 171.525,-130.106"/>
<polygon fill="black" stroke="black" points="174.606,-128.445 166.898,-121.176 168.391,-131.665 174.606,-128.445"/>
<text text-anchor="middle" x="194" y="-142.4" font-family="Nimbus" font-size="12.00">voz</text>
</g>
<!-- E -->
<g id="node5" class="node"><title>E</title>
<path fill="lightgray" stroke="lightgray" stroke-width="2" d="M272,-121C272,-121 218,-121 218,-121 212,-121 206,-115 206,-109 206,-109 206,-97 206,-97 206,-91 212,-85 218,-85 218,-85 272,-85 272,-85 278,-85 284,-91 284,-97 284,-97 284,-109 284,-109 284,-115 278,-121 272,-121"/>
<text text-anchor="middle" x="245" y="-99.3" font-family="Nimbus" font-size="14.00">Presente</text>
</g>
<!-- A&#45;&gt;E -->
<g id="edge4" class="edge"><title>A&#45;&gt;E</title>
<path fill="none" stroke="black" d="M210.117,-169.802C216.193,-158.34 224.295,-143.058 231.16,-130.106"/>
<polygon fill="black" stroke="black" points="234.303,-131.65 235.895,-121.176 228.119,-128.372 234.303,-131.65"/>
<text text-anchor="middle" x="246" y="-142.4" font-family="Nimbus" font-size="12.00">tiempo</text>
</g>
<!-- F -->
<g id="node6" class="node"><title>F</title>
<path fill="lightgray" stroke="lightgray" stroke-width="2" d="M344,-121C344,-121 314,-121 314,-121 308,-121 302,-115 302,-109 302,-109 302,-97 302,-97 302,-91 308,-85 314,-85 314,-85 344,-85 344,-85 350,-85 356,-91 356,-97 356,-97 356,-109 356,-109 356,-115 350,-121 344,-121"/>
<text text-anchor="middle" x="329" y="-99.3" font-family="Nimbus" font-size="14.00">Luis</text>
</g>
<!-- A&#45;&gt;F -->
<g id="edge5" class="edge"><title>A&#45;&gt;F</title>
<path fill="none" stroke="black" d="M237.625,-170.244C248.325,-164.868 259.863,-158.586 270,-152 281.073,-144.806 292.498,-135.908 302.31,-127.735"/>
<polygon fill="black" stroke="black" points="304.773,-130.234 310.13,-121.093 300.242,-124.899 304.773,-130.234"/>
<text text-anchor="middle" x="308" y="-142.4" font-family="Nimbus" font-size="12.00">agente</text>
</g>
<!-- C -->
<g id="node3" class="node"><title>C</title>
<path fill="lightgray" stroke="lightgray" stroke-width="2" d="M225.5,-36C225.5,-36 184.5,-36 184.5,-36 178.5,-36 172.5,-30 172.5,-24 172.5,-24 172.5,-12 172.5,-12 172.5,-6 178.5,-0 184.5,-0 184.5,-0 225.5,-0 225.5,-0 231.5,-0 237.5,-6 237.5,-12 237.5,-12 237.5,-24 237.5,-24 237.5,-30 231.5,-36 225.5,-36"/>
<text text-anchor="middle" x="205" y="-14.3" font-family="Nimbus" font-size="14.00">Suceso</text>
</g>
<!-- B&#45;&gt;C -->
<g id="edge2" class="edge"><title>B&#45;&gt;C</title>
<path fill="none" stroke="black" d="M86.0801,-84.8023C109.085,-72.0732 140.601,-54.6343 165.409,-40.9072"/>
<polygon fill="black" stroke="black" points="167.161,-43.9375 174.217,-36.0334 163.772,-37.8126 167.161,-43.9375"/>
<text text-anchor="middle" x="174" y="-57.4" font-family="Nimbus" font-size="12.00">subclase&#45;de</text>
</g>
<!-- H -->
<g id="node7" class="node"><title>H</title>
<path fill="lightgray" stroke="lightgray" stroke-width="2" d="M663,-206C663,-206 631,-206 631,-206 625,-206 619,-200 619,-194 619,-194 619,-182 619,-182 619,-176 625,-170 631,-170 631,-170 663,-170 663,-170 669,-170 675,-176 675,-182 675,-182 675,-194 675,-194 675,-200 669,-206 663,-206"/>
<text text-anchor="middle" x="647" y="-184.3" font-family="Nimbus" font-size="14.00">Ver_1</text>
</g>
<!-- G -->
<g id="node8" class="node"><title>G</title>
<path fill="lightgray" stroke="lightgray" stroke-width="2" d="M457.5,-121C457.5,-121 386.5,-121 386.5,-121 380.5,-121 374.5,-115 374.5,-109 374.5,-109 374.5,-97 374.5,-97 374.5,-91 380.5,-85 386.5,-85 386.5,-85 457.5,-85 457.5,-85 463.5,-85 469.5,-91 469.5,-97 469.5,-97 469.5,-109 469.5,-109 469.5,-115 463.5,-121 457.5,-121"/>
<text text-anchor="middle" x="422" y="-99.3" font-family="Nimbus" font-size="14.00">Suceso_ver</text>
</g>
<!-- H&#45;&gt;G -->
<g id="edge6" class="edge"><title>H&#45;&gt;G</title>
<path fill="none" stroke="black" d="M618.814,-183.023C588.599,-178.139 539.628,-168.414 500,-152 484.093,-145.411 467.688,-135.809 454.052,-126.921"/>
<polygon fill="black" stroke="black" points="455.783,-123.868 445.524,-121.222 451.894,-129.688 455.783,-123.868"/>
<text text-anchor="middle" x="526" y="-142.4" font-family="Nimbus" font-size="12.00">instancia</text>
</g>
<!-- I -->
<g id="node9" class="node"><title>I</title>
<path fill="lightgray" stroke="lightgray" stroke-width="2" d="M530,-121C530,-121 500,-121 500,-121 494,-121 488,-115 488,-109 488,-109 488,-97 488,-97 488,-91 494,-85 500,-85 500,-85 530,-85 530,-85 536,-85 542,-91 542,-97 542,-97 542,-109 542,-109 542,-115 536,-121 530,-121"/>
<text text-anchor="middle" x="515" y="-99.3" font-family="Nimbus" font-size="14.00">Pepe</text>
</g>
<!-- H&#45;&gt;I -->
<g id="edge8" class="edge"><title>H&#45;&gt;I</title>
<path fill="none" stroke="black" d="M618.652,-175.872C604.211,-169.688 586.654,-161.357 572,-152 561.096,-145.038 550.013,-136.19 540.555,-127.993"/>
<polygon fill="black" stroke="black" points="542.835,-125.337 533.032,-121.316 538.188,-130.572 542.835,-125.337"/>
<text text-anchor="middle" x="592" y="-142.4" font-family="Nimbus" font-size="12.00">agente</text>
</g>
<!-- J -->
<g id="node10" class="node"><title>J</title>
<path fill="lightgray" stroke="lightgray" stroke-width="2" d="M622,-121C622,-121 572,-121 572,-121 566,-121 560,-115 560,-109 560,-109 560,-97 560,-97 560,-91 566,-85 572,-85 572,-85 622,-85 622,-85 628,-85 634,-91 634,-97 634,-97 634,-109 634,-109 634,-115 628,-121 622,-121"/>
<text text-anchor="middle" x="597" y="-99.3" font-family="Nimbus" font-size="14.00">El Prado</text>
</g>
<!-- H&#45;&gt;J -->
<g id="edge9" class="edge"><title>H&#45;&gt;J</title>
<path fill="none" stroke="black" d="M634.671,-169.79C630.808,-164.197 626.613,-157.909 623,-152 618.786,-145.107 614.495,-137.482 610.646,-130.376"/>
<polygon fill="black" stroke="black" points="613.51,-128.308 605.72,-121.127 607.332,-131.599 613.51,-128.308"/>
<text text-anchor="middle" x="641.5" y="-142.4" font-family="Nimbus" font-size="12.00">objeto</text>
</g>
<!-- L -->
<g id="node12" class="node"><title>L</title>
<path fill="lightgray" stroke="lightgray" stroke-width="2" d="M703.5,-121C703.5,-121 664.5,-121 664.5,-121 658.5,-121 652.5,-115 652.5,-109 652.5,-109 652.5,-97 652.5,-97 652.5,-91 658.5,-85 664.5,-85 664.5,-85 703.5,-85 703.5,-85 709.5,-85 715.5,-91 715.5,-97 715.5,-97 715.5,-109 715.5,-109 715.5,-115 709.5,-121 703.5,-121"/>
<text text-anchor="middle" x="684" y="-99.3" font-family="Nimbus" font-size="14.00">Madrid</text>
</g>
<!-- H&#45;&gt;L -->
<g id="edge11" class="edge"><title>H&#45;&gt;L</title>
<path fill="none" stroke="black" d="M654.666,-169.802C659.727,-158.451 666.457,-143.354 672.194,-130.484"/>
<polygon fill="black" stroke="black" points="675.469,-131.734 676.343,-121.176 669.075,-128.884 675.469,-131.734"/>
<text text-anchor="middle" x="683" y="-142.4" font-family="Nimbus" font-size="12.00">lugar</text>
</g>
<!-- M -->
<g id="node13" class="node"><title>M</title>
<path fill="lightgray" stroke="lightgray" stroke-width="2" d="M786.5,-121C786.5,-121 745.5,-121 745.5,-121 739.5,-121 733.5,-115 733.5,-109 733.5,-109 733.5,-97 733.5,-97 733.5,-91 739.5,-85 745.5,-85 745.5,-85 786.5,-85 786.5,-85 792.5,-85 798.5,-91 798.5,-97 798.5,-97 798.5,-109 798.5,-109 798.5,-115 792.5,-121 786.5,-121"/>
<text text-anchor="middle" x="766" y="-99.3" font-family="Nimbus" font-size="14.00">Pasado</text>
</g>
<!-- H&#45;&gt;M -->
<g id="edge12" class="edge"><title>H&#45;&gt;M</title>
<path fill="none" stroke="black" d="M674.688,-169.962C683.51,-164.379 693.25,-158.052 702,-152 713.267,-144.207 725.352,-135.294 735.953,-127.281"/>
<polygon fill="black" stroke="black" points="738.254,-129.927 744.092,-121.085 734.015,-124.357 738.254,-129.927"/>
<text text-anchor="middle" x="739" y="-142.4" font-family="Nimbus" font-size="12.00">tiempo</text>
</g>
<!-- N -->
<g id="node14" class="node"><title>N</title>
<path fill="lightgray" stroke="lightgray" stroke-width="2" d="M863.5,-121C863.5,-121 828.5,-121 828.5,-121 822.5,-121 816.5,-115 816.5,-109 816.5,-109 816.5,-97 816.5,-97 816.5,-91 822.5,-85 828.5,-85 828.5,-85 863.5,-85 863.5,-85 869.5,-85 875.5,-91 875.5,-97 875.5,-97 875.5,-109 875.5,-109 875.5,-115 869.5,-121 863.5,-121"/>
<text text-anchor="middle" x="846" y="-99.3" font-family="Nimbus" font-size="14.00">Activa</text>
</g>
<!-- H&#45;&gt;N -->
<g id="edge13" class="edge"><title>H&#45;&gt;N</title>
<path fill="none" stroke="black" d="M675.301,-180.417C699.196,-174.4 734.045,-164.539 763,-152 779.445,-144.879 796.736,-135.258 811.255,-126.5"/>
<polygon fill="black" stroke="black" points="813.214,-129.404 819.904,-121.188 809.551,-123.439 813.214,-129.404"/>
<text text-anchor="middle" x="799" y="-142.4" font-family="Nimbus" font-size="12.00">voz</text>
</g>
<!-- G&#45;&gt;C -->
<g id="edge7" class="edge"><title>G&#45;&gt;C</title>
<path fill="none" stroke="black" d="M377.301,-84.903C339.147,-70.3095 284.668,-49.472 247.238,-35.1556"/>
<polygon fill="black" stroke="black" points="248.227,-31.7865 237.636,-31.483 245.726,-38.3245 248.227,-31.7865"/>
<text text-anchor="middle" x="362" y="-57.4" font-family="Nimbus" font-size="12.00">subclase&#45;de</text>
</g>
<!-- K -->
<g id="node11" class="node"><title>K</title>
<path fill="lightgray" stroke="lightgray" stroke-width="2" d="M615.5,-36C615.5,-36 578.5,-36 578.5,-36 572.5,-36 566.5,-30 566.5,-24 566.5,-24 566.5,-12 566.5,-12 566.5,-6 572.5,-0 578.5,-0 578.5,-0 615.5,-0 615.5,-0 621.5,-0 627.5,-6 627.5,-12 627.5,-12 627.5,-24 627.5,-24 627.5,-30 621.5,-36 615.5,-36"/>
<text text-anchor="middle" x="597" y="-14.3" font-family="Nimbus" font-size="14.00">Museo</text>
</g>
<!-- J&#45;&gt;K -->
<g id="edge10" class="edge"><title>J&#45;&gt;K</title>
<path fill="none" stroke="black" d="M597,-84.8023C597,-73.6736 597,-58.9448 597,-46.2439"/>
<polygon fill="black" stroke="black" points="600.5,-46.1756 597,-36.1756 593.5,-46.1757 600.5,-46.1756"/>
<text text-anchor="middle" x="623" y="-57.4" font-family="Nimbus" font-size="12.00">instancia</text>
</g>
</g>
</svg>
