<?xml version="1.0" encoding="UTF-8" standalone="no"?>
<!DOCTYPE svg PUBLIC "-//W3C//DTD SVG 1.1//EN"
 "http://www.w3.org/Graphics/SVG/1.1/DTD/svg11.dtd">
<!-- Generated by graphviz version 2.38.0 (20140413.2041)
 -->
<!-- Title: ejemplo Pages: 1 -->
<svg width="237pt" height="214pt"
 viewBox="0.00 0.00 237.00 214.00" xmlns="http://www.w3.org/2000/svg" xmlns:xlink="http://www.w3.org/1999/xlink">
<g id="graph0" class="graph" transform="scale(1 1) rotate(0) translate(4 210)">
<title>ejemplo</title>
<polygon fill="white" stroke="none" points="-4,4 -4,-210 233,-210 233,4 -4,4"/>
<!-- A -->
<g id="node1" class="node"><title>A</title>
<path fill="lightgray" stroke="lightgray" stroke-width="2" d="M58,-206C58,-206 12,-206 12,-206 6,-206 0,-200 0,-194 0,-194 0,-182 0,-182 0,-176 6,-170 12,-170 12,-170 58,-170 58,-170 64,-170 70,-176 70,-182 70,-182 70,-194 70,-194 70,-200 64,-206 58,-206"/>
<text text-anchor="middle" x="35" y="-184.3" font-family="Nimbus" font-size="14.00">Maguila</text>
</g>
<!-- B -->
<g id="node2" class="node"><title>B</title>
<path fill="lightgray" stroke="lightgray" stroke-width="2" d="M88,-121C88,-121 54,-121 54,-121 48,-121 42,-115 42,-109 42,-109 42,-97 42,-97 42,-91 48,-85 54,-85 54,-85 88,-85 88,-85 94,-85 100,-91 100,-97 100,-97 100,-109 100,-109 100,-115 94,-121 88,-121"/>
<text text-anchor="middle" x="71" y="-99.3" font-family="Nimbus" font-size="14.00">Gorila</text>
</g>
<!-- A&#45;&gt;B -->
<g id="edge1" class="edge"><title>A&#45;&gt;B</title>
<path fill="none" stroke="black" d="M32.3245,-169.911C31.5735,-160.439 31.8801,-148.66 36,-139 37.5043,-135.473 39.5477,-132.111 41.8965,-128.966"/>
<polygon fill="black" stroke="black" points="44.7485,-131.02 48.6668,-121.176 39.4651,-126.428 44.7485,-131.02"/>
<text text-anchor="middle" x="62" y="-142.4" font-family="Nimbus" font-size="12.00">instancia</text>
</g>
<!-- C -->
<g id="node4" class="node"><title>C</title>
<path fill="lightgray" stroke="lightgray" stroke-width="2" d="M92,-36C92,-36 50,-36 50,-36 44,-36 38,-30 38,-24 38,-24 38,-12 38,-12 38,-6 44,-0 50,-0 50,-0 92,-0 92,-0 98,-0 104,-6 104,-12 104,-12 104,-24 104,-24 104,-30 98,-36 92,-36"/>
<text text-anchor="middle" x="71" y="-14.3" font-family="Nimbus" font-size="14.00">Marrón</text>
</g>
<!-- B&#45;&gt;C -->
<g id="edge3" class="edge"><title>B&#45;&gt;C</title>
<path fill="none" stroke="black" d="M71,-84.8023C71,-73.6736 71,-58.9448 71,-46.2439"/>
<polygon fill="black" stroke="black" points="74.5001,-46.1756 71,-36.1756 67.5001,-46.1757 74.5001,-46.1756"/>
<text text-anchor="middle" x="86" y="-57.4" font-family="Nimbus" font-size="12.00">color</text>
</g>
<!-- D -->
<g id="node3" class="node"><title>D</title>
<path fill="lightgray" stroke="lightgray" stroke-width="2" d="M217,-206C217,-206 117,-206 117,-206 111,-206 105,-200 105,-194 105,-194 105,-182 105,-182 105,-176 111,-170 117,-170 117,-170 217,-170 217,-170 223,-170 229,-176 229,-182 229,-182 229,-194 229,-194 229,-200 223,-206 217,-206"/>
<text text-anchor="middle" x="167" y="-184.3" font-family="Nimbus" font-size="14.00">Copito de nieve</text>
</g>
<!-- D&#45;&gt;B -->
<g id="edge2" class="edge"><title>D&#45;&gt;B</title>
<path fill="none" stroke="black" d="M141.179,-169.834C133.507,-164.398 125.226,-158.187 118,-152 109.628,-144.832 101.032,-136.415 93.5191,-128.648"/>
<polygon fill="black" stroke="black" points="95.8395,-126.009 86.415,-121.168 90.7639,-130.83 95.8395,-126.009"/>
<text text-anchor="middle" x="144" y="-142.4" font-family="Nimbus" font-size="12.00">instancia</text>
</g>
<!-- E -->
<g id="node5" class="node"><title>E</title>
<path fill="lightgray" stroke="lightgray" stroke-width="2" d="M204,-121C204,-121 166,-121 166,-121 160,-121 154,-115 154,-109 154,-109 154,-97 154,-97 154,-91 160,-85 166,-85 166,-85 204,-85 204,-85 210,-85 216,-91 216,-97 216,-97 216,-109 216,-109 216,-115 210,-121 204,-121"/>
<text text-anchor="middle" x="185" y="-99.3" font-family="Nimbus" font-size="14.00">Blanco</text>
</g>
<!-- D&#45;&gt;E -->
<g id="edge4" class="edge"><title>D&#45;&gt;E</title>
<path fill="none" stroke="black" d="M170.73,-169.802C173.143,-158.674 176.337,-143.945 179.092,-131.244"/>
<polygon fill="black" stroke="black" points="182.576,-131.69 181.275,-121.176 175.735,-130.207 182.576,-131.69"/>
<text text-anchor="middle" x="192" y="-142.4" font-family="Nimbus" font-size="12.00">color</text>
</g>
</g>
</svg>
