<?xml version="1.0" encoding="UTF-8" standalone="no"?>
<!DOCTYPE svg PUBLIC "-//W3C//DTD SVG 1.1//EN"
 "http://www.w3.org/Graphics/SVG/1.1/DTD/svg11.dtd">
<!-- Generated by graphviz version 2.38.0 (20140413.2041)
 -->
<!-- Title: ejemplo Pages: 1 -->
<svg width="360pt" height="214pt"
 viewBox="0.00 0.00 360.00 214.00" xmlns="http://www.w3.org/2000/svg" xmlns:xlink="http://www.w3.org/1999/xlink">
<g id="graph0" class="graph" transform="scale(1 1) rotate(0) translate(4 210)">
<title>ejemplo</title>
<polygon fill="white" stroke="none" points="-4,4 -4,-210 356,-210 356,4 -4,4"/>
<!-- H -->
<g id="node1" class="node"><title>H</title>
<path fill="lightgray" stroke="lightgray" stroke-width="2" d="M198,-206C198,-206 167,-206 167,-206 161,-206 155,-200 155,-194 155,-194 155,-182 155,-182 155,-176 161,-170 167,-170 167,-170 198,-170 198,-170 204,-170 210,-176 210,-182 210,-182 210,-194 210,-194 210,-200 204,-206 198,-206"/>
<text text-anchor="middle" x="182.5" y="-184.3" font-family="Nimbus" font-size="14.00">Ver_?</text>
</g>
<!-- G -->
<g id="node2" class="node"><title>G</title>
<path fill="lightgray" stroke="lightgray" stroke-width="2" d="M83,-121C83,-121 12,-121 12,-121 6,-121 0,-115 0,-109 0,-109 0,-97 0,-97 0,-91 6,-85 12,-85 12,-85 83,-85 83,-85 89,-85 95,-91 95,-97 95,-97 95,-109 95,-109 95,-115 89,-121 83,-121"/>
<text text-anchor="middle" x="47.5" y="-99.3" font-family="Nimbus" font-size="14.00">Suceso_ver</text>
</g>
<!-- H&#45;&gt;G -->
<g id="edge1" class="edge"><title>H&#45;&gt;G</title>
<path fill="none" stroke="black" d="M154.786,-178.302C137.787,-172.291 116.001,-163.34 98.5,-152 88.3438,-145.419 78.3757,-136.7 69.9847,-128.499"/>
<polygon fill="black" stroke="black" points="72.2806,-125.843 62.7619,-121.191 67.3017,-130.764 72.2806,-125.843"/>
<text text-anchor="middle" x="124.5" y="-142.4" font-family="Nimbus" font-size="12.00">instancia</text>
</g>
<!-- I -->
<g id="node3" class="node"><title>I</title>
<path fill="lightgray" stroke="lightgray" stroke-width="2" d="M166,-121C166,-121 125,-121 125,-121 119,-121 113,-115 113,-109 113,-109 113,-97 113,-97 113,-91 119,-85 125,-85 125,-85 166,-85 166,-85 172,-85 178,-91 178,-97 178,-97 178,-109 178,-109 178,-115 172,-121 166,-121"/>
<text text-anchor="middle" x="145.5" y="-99.3" font-family="Nimbus" font-size="14.00">Varón?</text>
</g>
<!-- H&#45;&gt;I -->
<g id="edge2" class="edge"><title>H&#45;&gt;I</title>
<path fill="none" stroke="black" d="M169.071,-169.888C165.242,-164.404 161.343,-158.153 158.5,-152 155.483,-145.47 153.053,-138.107 151.148,-131.144"/>
<polygon fill="black" stroke="black" points="154.528,-130.236 148.723,-121.373 147.734,-131.922 154.528,-130.236"/>
<text text-anchor="middle" x="178.5" y="-142.4" font-family="Nimbus" font-size="12.00">agente</text>
</g>
<!-- J -->
<g id="node4" class="node"><title>J</title>
<path fill="lightgray" stroke="lightgray" stroke-width="2" d="M258.5,-121C258.5,-121 208.5,-121 208.5,-121 202.5,-121 196.5,-115 196.5,-109 196.5,-109 196.5,-97 196.5,-97 196.5,-91 202.5,-85 208.5,-85 208.5,-85 258.5,-85 258.5,-85 264.5,-85 270.5,-91 270.5,-97 270.5,-97 270.5,-109 270.5,-109 270.5,-115 264.5,-121 258.5,-121"/>
<text text-anchor="middle" x="233.5" y="-99.3" font-family="Nimbus" font-size="14.00">El Prado</text>
</g>
<!-- H&#45;&gt;J -->
<g id="edge3" class="edge"><title>H&#45;&gt;J</title>
<path fill="none" stroke="black" d="M193.067,-169.802C200.179,-158.228 209.683,-142.761 217.69,-129.73"/>
<polygon fill="black" stroke="black" points="220.693,-131.528 222.946,-121.176 214.729,-127.863 220.693,-131.528"/>
<text text-anchor="middle" x="230" y="-142.4" font-family="Nimbus" font-size="12.00">objeto</text>
</g>
<!-- L -->
<g id="node6" class="node"><title>L</title>
<path fill="lightgray" stroke="lightgray" stroke-width="2" d="M340,-121C340,-121 301,-121 301,-121 295,-121 289,-115 289,-109 289,-109 289,-97 289,-97 289,-91 295,-85 301,-85 301,-85 340,-85 340,-85 346,-85 352,-91 352,-97 352,-97 352,-109 352,-109 352,-115 346,-121 340,-121"/>
<text text-anchor="middle" x="320.5" y="-99.3" font-family="Nimbus" font-size="14.00">Madrid</text>
</g>
<!-- H&#45;&gt;L -->
<g id="edge5" class="edge"><title>H&#45;&gt;L</title>
<path fill="none" stroke="black" d="M210.272,-174.307C223.334,-168.037 238.975,-160.092 252.5,-152 265.05,-144.492 278.304,-135.418 289.745,-127.191"/>
<polygon fill="black" stroke="black" points="292.078,-129.822 298.098,-121.104 287.955,-124.164 292.078,-129.822"/>
<text text-anchor="middle" x="287.5" y="-142.4" font-family="Nimbus" font-size="12.00">lugar</text>
</g>
<!-- K -->
<g id="node5" class="node"><title>K</title>
<path fill="lightgray" stroke="lightgray" stroke-width="2" d="M252,-36C252,-36 215,-36 215,-36 209,-36 203,-30 203,-24 203,-24 203,-12 203,-12 203,-6 209,-0 215,-0 215,-0 252,-0 252,-0 258,-0 264,-6 264,-12 264,-12 264,-24 264,-24 264,-30 258,-36 252,-36"/>
<text text-anchor="middle" x="233.5" y="-14.3" font-family="Nimbus" font-size="14.00">Museo</text>
</g>
<!-- J&#45;&gt;K -->
<g id="edge4" class="edge"><title>J&#45;&gt;K</title>
<path fill="none" stroke="black" d="M233.5,-84.8023C233.5,-73.6736 233.5,-58.9448 233.5,-46.2439"/>
<polygon fill="black" stroke="black" points="237,-46.1756 233.5,-36.1756 230,-46.1757 237,-46.1756"/>
<text text-anchor="middle" x="259.5" y="-57.4" font-family="Nimbus" font-size="12.00">instancia</text>
</g>
</g>
</svg>
