<?xml version="1.0" encoding="UTF-8" standalone="no"?>
<!DOCTYPE svg PUBLIC "-//W3C//DTD SVG 1.1//EN"
 "http://www.w3.org/Graphics/SVG/1.1/DTD/svg11.dtd">
<!-- Generated by graphviz version 2.38.0 (20140413.2041)
 -->
<!-- Title: ejemplo Pages: 1 -->
<svg width="653pt" height="322pt"
 viewBox="0.00 0.00 652.50 322.00" xmlns="http://www.w3.org/2000/svg" xmlns:xlink="http://www.w3.org/1999/xlink">
<g id="graph0" class="graph" transform="scale(1 1) rotate(0) translate(4 318)">
<title>ejemplo</title>
<polygon fill="white" stroke="none" points="-4,4 -4,-318 648.5,-318 648.5,4 -4,4"/>
<!-- A -->
<g id="node1" class="node"><title>A</title>
<path fill="lightgray" stroke="lightgray" stroke-width="2" d="M239.5,-314C239.5,-314 190.5,-314 190.5,-314 184.5,-314 178.5,-308 178.5,-302 178.5,-302 178.5,-290 178.5,-290 178.5,-284 184.5,-278 190.5,-278 190.5,-278 239.5,-278 239.5,-278 245.5,-278 251.5,-284 251.5,-290 251.5,-290 251.5,-302 251.5,-302 251.5,-308 245.5,-314 239.5,-314"/>
<text text-anchor="middle" x="215" y="-292.3" font-family="Nimbus" font-size="14.00">Saber_1</text>
</g>
<!-- B -->
<g id="node2" class="node"><title>B</title>
<path fill="lightgray" stroke="lightgray" stroke-width="2" d="M98,-175C98,-175 12,-175 12,-175 6,-175 0,-169 0,-163 0,-163 0,-151 0,-151 0,-145 6,-139 12,-139 12,-139 98,-139 98,-139 104,-139 110,-145 110,-151 110,-151 110,-163 110,-163 110,-169 104,-175 98,-175"/>
<text text-anchor="middle" x="55" y="-153.3" font-family="Nimbus" font-size="14.00">Suceso_saber</text>
</g>
<!-- A&#45;&gt;B -->
<g id="edge1" class="edge"><title>A&#45;&gt;B</title>
<path fill="none" stroke="black" d="M178.173,-288.528C156.978,-283.432 130.725,-274.659 111,-260 86.0002,-241.421 70.8007,-208.222 62.6648,-184.753"/>
<polygon fill="black" stroke="black" points="65.9308,-183.478 59.5082,-175.052 59.2743,-185.644 65.9308,-183.478"/>
<text text-anchor="middle" x="137" y="-250.4" font-family="Nimbus" font-size="12.00">instancia</text>
</g>
<!-- D -->
<g id="node4" class="node"><title>D</title>
<path fill="lightgray" stroke="lightgray" stroke-width="2" d="M145.5,-229C145.5,-229 110.5,-229 110.5,-229 104.5,-229 98.5,-223 98.5,-217 98.5,-217 98.5,-205 98.5,-205 98.5,-199 104.5,-193 110.5,-193 110.5,-193 145.5,-193 145.5,-193 151.5,-193 157.5,-199 157.5,-205 157.5,-205 157.5,-217 157.5,-217 157.5,-223 151.5,-229 145.5,-229"/>
<text text-anchor="middle" x="128" y="-207.3" font-family="Nimbus" font-size="14.00">Activa</text>
</g>
<!-- A&#45;&gt;D -->
<g id="edge3" class="edge"><title>A&#45;&gt;D</title>
<path fill="none" stroke="black" d="M196.974,-277.802C184.375,-265.783 167.375,-249.565 153.406,-236.237"/>
<polygon fill="black" stroke="black" points="155.655,-233.546 146.003,-229.176 150.823,-238.611 155.655,-233.546"/>
<text text-anchor="middle" x="188" y="-250.4" font-family="Nimbus" font-size="12.00">voz</text>
</g>
<!-- E -->
<g id="node5" class="node"><title>E</title>
<path fill="lightgray" stroke="lightgray" stroke-width="2" d="M242,-229C242,-229 188,-229 188,-229 182,-229 176,-223 176,-217 176,-217 176,-205 176,-205 176,-199 182,-193 188,-193 188,-193 242,-193 242,-193 248,-193 254,-199 254,-205 254,-205 254,-217 254,-217 254,-223 248,-229 242,-229"/>
<text text-anchor="middle" x="215" y="-207.3" font-family="Nimbus" font-size="14.00">Presente</text>
</g>
<!-- A&#45;&gt;E -->
<g id="edge4" class="edge"><title>A&#45;&gt;E</title>
<path fill="none" stroke="black" d="M215,-277.802C215,-266.674 215,-251.945 215,-239.244"/>
<polygon fill="black" stroke="black" points="218.5,-239.176 215,-229.176 211.5,-239.176 218.5,-239.176"/>
<text text-anchor="middle" x="235" y="-250.4" font-family="Nimbus" font-size="12.00">tiempo</text>
</g>
<!-- F -->
<g id="node6" class="node"><title>F</title>
<path fill="lightgray" stroke="lightgray" stroke-width="2" d="M314,-229C314,-229 284,-229 284,-229 278,-229 272,-223 272,-217 272,-217 272,-205 272,-205 272,-199 278,-193 284,-193 284,-193 314,-193 314,-193 320,-193 326,-199 326,-205 326,-205 326,-217 326,-217 326,-223 320,-229 314,-229"/>
<text text-anchor="middle" x="299" y="-207.3" font-family="Nimbus" font-size="14.00">Luis</text>
</g>
<!-- A&#45;&gt;F -->
<g id="edge5" class="edge"><title>A&#45;&gt;F</title>
<path fill="none" stroke="black" d="M238.585,-277.682C245.415,-272.29 252.718,-266.141 259,-260 266.178,-252.984 273.393,-244.769 279.68,-237.138"/>
<polygon fill="black" stroke="black" points="282.549,-239.156 286.093,-229.171 277.096,-234.766 282.549,-239.156"/>
<text text-anchor="middle" x="291" y="-250.4" font-family="Nimbus" font-size="12.00">agente</text>
</g>
<!-- H -->
<g id="node7" class="node"><title>H</title>
<path fill="lightgray" stroke="lightgray" stroke-width="2" d="M388,-229C388,-229 356,-229 356,-229 350,-229 344,-223 344,-217 344,-217 344,-205 344,-205 344,-199 350,-193 356,-193 356,-193 388,-193 388,-193 394,-193 400,-199 400,-205 400,-205 400,-217 400,-217 400,-223 394,-229 388,-229"/>
<text text-anchor="middle" x="372" y="-207.3" font-family="Nimbus" font-size="14.00">Ver_1</text>
</g>
<!-- A&#45;&gt;H -->
<g id="edge14" class="edge"><title>A&#45;&gt;H</title>
<path fill="none" stroke="black" d="M251.54,-285.692C271.106,-279.864 295.187,-271.299 315,-260 326.414,-253.491 337.743,-244.592 347.258,-236.223"/>
<polygon fill="black" stroke="black" points="349.738,-238.698 354.785,-229.383 345.031,-233.517 349.738,-238.698"/>
<text text-anchor="middle" x="352.5" y="-250.4" font-family="Nimbus" font-size="12.00">objeto</text>
</g>
<!-- C -->
<g id="node3" class="node"><title>C</title>
<path fill="lightgray" stroke="lightgray" stroke-width="2" d="M118.5,-36C118.5,-36 77.5,-36 77.5,-36 71.5,-36 65.5,-30 65.5,-24 65.5,-24 65.5,-12 65.5,-12 65.5,-6 71.5,-0 77.5,-0 77.5,-0 118.5,-0 118.5,-0 124.5,-0 130.5,-6 130.5,-12 130.5,-12 130.5,-24 130.5,-24 130.5,-30 124.5,-36 118.5,-36"/>
<text text-anchor="middle" x="98" y="-14.3" font-family="Nimbus" font-size="14.00">Suceso</text>
</g>
<!-- B&#45;&gt;C -->
<g id="edge2" class="edge"><title>B&#45;&gt;C</title>
<path fill="none" stroke="black" d="M55.5102,-138.718C56.3358,-124.117 58.4764,-102.8 64,-85 68.2802,-71.2067 75.327,-56.8442 81.8985,-45.0531"/>
<polygon fill="black" stroke="black" points="85.0362,-46.6184 87.005,-36.2081 78.974,-43.1185 85.0362,-46.6184"/>
<text text-anchor="middle" x="99" y="-99.9" font-family="Nimbus" font-size="12.00">subclase&#45;de</text>
</g>
<!-- G -->
<g id="node8" class="node"><title>G</title>
<path fill="lightgray" stroke="lightgray" stroke-width="2" d="M226.5,-121C226.5,-121 155.5,-121 155.5,-121 149.5,-121 143.5,-115 143.5,-109 143.5,-109 143.5,-97 143.5,-97 143.5,-91 149.5,-85 155.5,-85 155.5,-85 226.5,-85 226.5,-85 232.5,-85 238.5,-91 238.5,-97 238.5,-97 238.5,-109 238.5,-109 238.5,-115 232.5,-121 226.5,-121"/>
<text text-anchor="middle" x="191" y="-99.3" font-family="Nimbus" font-size="14.00">Suceso_ver</text>
</g>
<!-- H&#45;&gt;G -->
<g id="edge6" class="edge"><title>H&#45;&gt;G</title>
<path fill="none" stroke="black" d="M343.988,-196.317C340.991,-195.099 337.957,-193.964 335,-193 296.631,-180.492 280.286,-196.287 246,-175 228.393,-164.068 214.243,-145.349 204.707,-129.875"/>
<polygon fill="black" stroke="black" points="207.711,-128.079 199.633,-121.223 201.672,-131.62 207.711,-128.079"/>
<text text-anchor="middle" x="272" y="-153.9" font-family="Nimbus" font-size="12.00">instancia</text>
</g>
<!-- I -->
<g id="node9" class="node"><title>I</title>
<path fill="lightgray" stroke="lightgray" stroke-width="2" d="M299,-121C299,-121 269,-121 269,-121 263,-121 257,-115 257,-109 257,-109 257,-97 257,-97 257,-91 263,-85 269,-85 269,-85 299,-85 299,-85 305,-85 311,-91 311,-97 311,-97 311,-109 311,-109 311,-115 305,-121 299,-121"/>
<text text-anchor="middle" x="284" y="-99.3" font-family="Nimbus" font-size="14.00">Pepe</text>
</g>
<!-- H&#45;&gt;I -->
<g id="edge8" class="edge"><title>H&#45;&gt;I</title>
<path fill="none" stroke="black" d="M345.043,-192.843C338.029,-187.631 330.816,-181.536 325,-175 313.16,-161.695 303.099,-144.435 295.907,-130.264"/>
<polygon fill="black" stroke="black" points="298.933,-128.483 291.4,-121.033 292.643,-131.555 298.933,-128.483"/>
<text text-anchor="middle" x="345" y="-153.9" font-family="Nimbus" font-size="12.00">agente</text>
</g>
<!-- J -->
<g id="node10" class="node"><title>J</title>
<path fill="lightgray" stroke="lightgray" stroke-width="2" d="M391,-121C391,-121 341,-121 341,-121 335,-121 329,-115 329,-109 329,-109 329,-97 329,-97 329,-91 335,-85 341,-85 341,-85 391,-85 391,-85 397,-85 403,-91 403,-97 403,-97 403,-109 403,-109 403,-115 397,-121 391,-121"/>
<text text-anchor="middle" x="366" y="-99.3" font-family="Nimbus" font-size="14.00">El Prado</text>
</g>
<!-- H&#45;&gt;J -->
<g id="edge9" class="edge"><title>H&#45;&gt;J</title>
<path fill="none" stroke="black" d="M371.036,-192.969C370.097,-176.378 368.654,-150.883 367.553,-131.431"/>
<polygon fill="black" stroke="black" points="371.041,-131.127 366.982,-121.341 364.052,-131.522 371.041,-131.127"/>
<text text-anchor="middle" x="388.5" y="-153.9" font-family="Nimbus" font-size="12.00">objeto</text>
</g>
<!-- L -->
<g id="node12" class="node"><title>L</title>
<path fill="lightgray" stroke="lightgray" stroke-width="2" d="M472.5,-121C472.5,-121 433.5,-121 433.5,-121 427.5,-121 421.5,-115 421.5,-109 421.5,-109 421.5,-97 421.5,-97 421.5,-91 427.5,-85 433.5,-85 433.5,-85 472.5,-85 472.5,-85 478.5,-85 484.5,-91 484.5,-97 484.5,-97 484.5,-109 484.5,-109 484.5,-115 478.5,-121 472.5,-121"/>
<text text-anchor="middle" x="453" y="-99.3" font-family="Nimbus" font-size="14.00">Madrid</text>
</g>
<!-- H&#45;&gt;L -->
<g id="edge11" class="edge"><title>H&#45;&gt;L</title>
<path fill="none" stroke="black" d="M393.38,-192.923C399.447,-187.537 405.808,-181.332 411,-175 422.288,-161.233 432.517,-144.094 440.054,-130.105"/>
<polygon fill="black" stroke="black" points="443.282,-131.485 444.821,-121.003 437.081,-128.237 443.282,-131.485"/>
<text text-anchor="middle" x="450" y="-153.9" font-family="Nimbus" font-size="12.00">lugar</text>
</g>
<!-- M -->
<g id="node13" class="node"><title>M</title>
<path fill="lightgray" stroke="lightgray" stroke-width="2" d="M555.5,-121C555.5,-121 514.5,-121 514.5,-121 508.5,-121 502.5,-115 502.5,-109 502.5,-109 502.5,-97 502.5,-97 502.5,-91 508.5,-85 514.5,-85 514.5,-85 555.5,-85 555.5,-85 561.5,-85 567.5,-91 567.5,-97 567.5,-97 567.5,-109 567.5,-109 567.5,-115 561.5,-121 555.5,-121"/>
<text text-anchor="middle" x="535" y="-99.3" font-family="Nimbus" font-size="14.00">Pasado</text>
</g>
<!-- H&#45;&gt;M -->
<g id="edge12" class="edge"><title>H&#45;&gt;M</title>
<path fill="none" stroke="black" d="M400.388,-203.584C420.654,-198.124 447.942,-188.92 469,-175 487.598,-162.706 504.621,-144.125 516.719,-129.054"/>
<polygon fill="black" stroke="black" points="519.527,-131.145 522.912,-121.105 514.005,-126.842 519.527,-131.145"/>
<text text-anchor="middle" x="527" y="-153.9" font-family="Nimbus" font-size="12.00">tiempo</text>
</g>
<!-- N -->
<g id="node14" class="node"><title>N</title>
<path fill="lightgray" stroke="lightgray" stroke-width="2" d="M632.5,-121C632.5,-121 597.5,-121 597.5,-121 591.5,-121 585.5,-115 585.5,-109 585.5,-109 585.5,-97 585.5,-97 585.5,-91 591.5,-85 597.5,-85 597.5,-85 632.5,-85 632.5,-85 638.5,-85 644.5,-91 644.5,-97 644.5,-97 644.5,-109 644.5,-109 644.5,-115 638.5,-121 632.5,-121"/>
<text text-anchor="middle" x="615" y="-99.3" font-family="Nimbus" font-size="14.00">Activa</text>
</g>
<!-- H&#45;&gt;N -->
<g id="edge13" class="edge"><title>H&#45;&gt;N</title>
<path fill="none" stroke="black" d="M400.255,-209.894C437.214,-208.595 502.916,-202.222 551,-175 570.374,-164.032 587.018,-145.061 598.473,-129.487"/>
<polygon fill="black" stroke="black" points="601.376,-131.444 604.288,-121.257 595.659,-127.405 601.376,-131.444"/>
<text text-anchor="middle" x="602" y="-153.9" font-family="Nimbus" font-size="12.00">voz</text>
</g>
<!-- G&#45;&gt;C -->
<g id="edge7" class="edge"><title>G&#45;&gt;C</title>
<path fill="none" stroke="black" d="M171.73,-84.8023C158.138,-72.672 139.754,-56.2644 124.744,-42.868"/>
<polygon fill="black" stroke="black" points="127.036,-40.2229 117.245,-36.1756 122.375,-45.4455 127.036,-40.2229"/>
<text text-anchor="middle" x="186" y="-57.4" font-family="Nimbus" font-size="12.00">subclase&#45;de</text>
</g>
<!-- K -->
<g id="node11" class="node"><title>K</title>
<path fill="lightgray" stroke="lightgray" stroke-width="2" d="M384.5,-36C384.5,-36 347.5,-36 347.5,-36 341.5,-36 335.5,-30 335.5,-24 335.5,-24 335.5,-12 335.5,-12 335.5,-6 341.5,-0 347.5,-0 347.5,-0 384.5,-0 384.5,-0 390.5,-0 396.5,-6 396.5,-12 396.5,-12 396.5,-24 396.5,-24 396.5,-30 390.5,-36 384.5,-36"/>
<text text-anchor="middle" x="366" y="-14.3" font-family="Nimbus" font-size="14.00">Museo</text>
</g>
<!-- J&#45;&gt;K -->
<g id="edge10" class="edge"><title>J&#45;&gt;K</title>
<path fill="none" stroke="black" d="M366,-84.8023C366,-73.6736 366,-58.9448 366,-46.2439"/>
<polygon fill="black" stroke="black" points="369.5,-46.1756 366,-36.1756 362.5,-46.1757 369.5,-46.1756"/>
<text text-anchor="middle" x="392" y="-57.4" font-family="Nimbus" font-size="12.00">instancia</text>
</g>
</g>
</svg>
