<?xml version="1.0" encoding="UTF-8" standalone="no"?>
<!DOCTYPE svg PUBLIC "-//W3C//DTD SVG 1.1//EN"
 "http://www.w3.org/Graphics/SVG/1.1/DTD/svg11.dtd">
<!-- Generated by graphviz version 2.43.0 (0)
 -->
<!-- Title: ejemplo Pages: 1 -->
<svg width="325pt" height="214pt"
 viewBox="0.00 0.00 324.50 214.00" xmlns="http://www.w3.org/2000/svg" xmlns:xlink="http://www.w3.org/1999/xlink">
<g id="graph0" class="graph" transform="scale(1 1) rotate(0) translate(4 210)">
<title>ejemplo</title>
<polygon fill="white" stroke="transparent" points="-4,4 -4,-210 320.5,-210 320.5,4 -4,4"/>
<!-- H -->
<g id="node1" class="node">
<title>H</title>
<path fill="lightgray" stroke="lightgray" stroke-width="2" d="M183,-206C183,-206 153,-206 153,-206 147,-206 141,-200 141,-194 141,-194 141,-182 141,-182 141,-176 147,-170 153,-170 153,-170 183,-170 183,-170 189,-170 195,-176 195,-182 195,-182 195,-194 195,-194 195,-200 189,-206 183,-206"/>
<text text-anchor="middle" x="168" y="-184.3" font-family="Nimbus" font-size="14.00">ver?</text>
</g>
<!-- G -->
<g id="node2" class="node">
<title>G</title>
<path fill="lightgray" stroke="lightgray" stroke-width="2" d="M70,-121C70,-121 12,-121 12,-121 6,-121 0,-115 0,-109 0,-109 0,-97 0,-97 0,-91 6,-85 12,-85 12,-85 70,-85 70,-85 76,-85 82,-91 82,-97 82,-97 82,-109 82,-109 82,-115 76,-121 70,-121"/>
<text text-anchor="middle" x="41" y="-99.3" font-family="Nimbus" font-size="14.00">SucesoVer</text>
</g>
<!-- H&#45;&gt;G -->
<g id="edge1" class="edge">
<title>H&#45;&gt;G</title>
<path fill="none" stroke="black" d="M140.72,-179.34C123.2,-173.59 100.52,-164.54 83,-152 74.22,-145.72 66.04,-137.26 59.27,-129.19"/>
<polygon fill="black" stroke="black" points="61.98,-126.97 53,-121.35 56.51,-131.34 61.98,-126.97"/>
<text text-anchor="middle" x="107.5" y="-142.4" font-family="Nimbus" font-size="12.00">instancia</text>
</g>
<!-- I -->
<g id="node3" class="node">
<title>I</title>
<path fill="lightgray" stroke="lightgray" stroke-width="2" d="M146,-121C146,-121 112,-121 112,-121 106,-121 100,-115 100,-109 100,-109 100,-97 100,-97 100,-91 106,-85 112,-85 112,-85 146,-85 146,-85 152,-85 158,-91 158,-97 158,-97 158,-109 158,-109 158,-115 152,-121 146,-121"/>
<text text-anchor="middle" x="129" y="-99.3" font-family="Nimbus" font-size="14.00">varón?</text>
</g>
<!-- H&#45;&gt;I -->
<g id="edge2" class="edge">
<title>H&#45;&gt;I</title>
<path fill="none" stroke="black" d="M151.79,-169.89C147.41,-164.5 143.05,-158.31 140,-152 136.85,-145.48 134.58,-138.03 132.96,-130.97"/>
<polygon fill="black" stroke="black" points="136.37,-130.19 131,-121.06 129.5,-131.55 136.37,-130.19"/>
<text text-anchor="middle" x="158.5" y="-142.4" font-family="Nimbus" font-size="12.00">agente</text>
</g>
<!-- J -->
<g id="node4" class="node">
<title>J</title>
<path fill="lightgray" stroke="lightgray" stroke-width="2" d="M227.5,-121C227.5,-121 188.5,-121 188.5,-121 182.5,-121 176.5,-115 176.5,-109 176.5,-109 176.5,-97 176.5,-97 176.5,-91 182.5,-85 188.5,-85 188.5,-85 227.5,-85 227.5,-85 233.5,-85 239.5,-91 239.5,-97 239.5,-97 239.5,-109 239.5,-109 239.5,-115 233.5,-121 227.5,-121"/>
<text text-anchor="middle" x="208" y="-99.3" font-family="Nimbus" font-size="14.00">elPrado</text>
</g>
<!-- H&#45;&gt;J -->
<g id="edge3" class="edge">
<title>H&#45;&gt;J</title>
<path fill="none" stroke="black" d="M176.29,-169.8C181.76,-158.45 189.03,-143.35 195.24,-130.48"/>
<polygon fill="black" stroke="black" points="198.53,-131.7 199.72,-121.18 192.23,-128.66 198.53,-131.7"/>
<text text-anchor="middle" x="208" y="-142.4" font-family="Nimbus" font-size="12.00">objeto</text>
</g>
<!-- L -->
<g id="node6" class="node">
<title>L</title>
<path fill="lightgray" stroke="lightgray" stroke-width="2" d="M304.5,-121C304.5,-121 269.5,-121 269.5,-121 263.5,-121 257.5,-115 257.5,-109 257.5,-109 257.5,-97 257.5,-97 257.5,-91 263.5,-85 269.5,-85 269.5,-85 304.5,-85 304.5,-85 310.5,-85 316.5,-91 316.5,-97 316.5,-97 316.5,-109 316.5,-109 316.5,-115 310.5,-121 304.5,-121"/>
<text text-anchor="middle" x="287" y="-99.3" font-family="Nimbus" font-size="14.00">madrid</text>
</g>
<!-- H&#45;&gt;L -->
<g id="edge5" class="edge">
<title>H&#45;&gt;L</title>
<path fill="none" stroke="black" d="M195.03,-172.8C205.84,-166.78 218.26,-159.44 229,-152 239.66,-144.61 250.77,-135.74 260.38,-127.65"/>
<polygon fill="black" stroke="black" points="262.73,-130.24 268.05,-121.08 258.18,-124.92 262.73,-130.24"/>
<text text-anchor="middle" x="260" y="-142.4" font-family="Nimbus" font-size="12.00">lugar</text>
</g>
<!-- K -->
<g id="node5" class="node">
<title>K</title>
<path fill="lightgray" stroke="lightgray" stroke-width="2" d="M225,-36C225,-36 191,-36 191,-36 185,-36 179,-30 179,-24 179,-24 179,-12 179,-12 179,-6 185,0 191,0 191,0 225,0 225,0 231,0 237,-6 237,-12 237,-12 237,-24 237,-24 237,-30 231,-36 225,-36"/>
<text text-anchor="middle" x="208" y="-14.3" font-family="Nimbus" font-size="14.00">Museo</text>
</g>
<!-- J&#45;&gt;K -->
<g id="edge4" class="edge">
<title>J&#45;&gt;K</title>
<path fill="none" stroke="black" d="M208,-84.8C208,-73.67 208,-58.94 208,-46.24"/>
<polygon fill="black" stroke="black" points="211.5,-46.18 208,-36.18 204.5,-46.18 211.5,-46.18"/>
<text text-anchor="middle" x="242.5" y="-57.4" font-family="Nimbus" font-size="12.00">instancia_de</text>
</g>
</g>
</svg>
