<svg xmlns:xlink="http://www.w3.org/1999/xlink" xmlns="http://www.w3.org/2000/svg" width="799px" height="482px" viewBox="0 0 799 482" style="overflow: hidden; display: block; width: 799px; height: 482px;"><defs/><g style="pointer-events:visiblePainted" transform="translate(-64 230)" image-rendering="auto" shape-rendering="auto"><g><path d="M 114,-180 L 813,-180 L 813,-101 L 114,-101 Z" stroke="rgb(0,0,0)" stroke-opacity="1" stroke-width="1" stroke-linecap="butt" stroke-linejoin="miter" stroke-miterlimit="10" fill="rgb(210,222,238)" fill-opacity="1"/></g><g><path d="M 114,-71 L 448,-71 L 448,8 L 114,8 Z" stroke="rgb(0,0,0)" stroke-opacity="1" stroke-width="1" stroke-linecap="butt" stroke-linejoin="miter" stroke-miterlimit="10" fill="rgb(210,222,238)" fill-opacity="1"/></g><g><path d="M 479,-71 L 813,-71 L 813,8 L 479,8 Z" stroke="rgb(0,0,0)" stroke-opacity="1" stroke-width="1" stroke-linecap="butt" stroke-linejoin="miter" stroke-miterlimit="10" fill="rgb(210,222,238)" fill-opacity="1"/></g><g><path d="M 258,38 L 379,38 L 379,117 L 258,117 Z" stroke="rgb(0,0,0)" stroke-opacity="1" stroke-width="1" stroke-linecap="butt" stroke-linejoin="miter" stroke-miterlimit="10" fill="rgb(210,222,238)" fill-opacity="1"/></g><g><path d="M 114,38 L 235,38 L 235,117 L 114,117 Z" stroke="rgb(0,0,0)" stroke-opacity="1" stroke-width="1" stroke-linecap="butt" stroke-linejoin="miter" stroke-miterlimit="10" fill="rgb(210,222,238)" fill-opacity="1"/></g><g><path d="M 692,38 L 813,38 L 813,117 L 692,117 Z" stroke="rgb(0,0,0)" stroke-opacity="1" stroke-width="1" stroke-linecap="butt" stroke-linejoin="miter" stroke-miterlimit="10" fill="rgb(210,222,238)" fill-opacity="1"/></g><g><path d="M 547.5,38 L 668.5,38 L 668.5,117 L 547.5,117 Z" stroke="rgb(0,0,0)" stroke-opacity="1" stroke-width="1" stroke-linecap="butt" stroke-linejoin="miter" stroke-miterlimit="10" fill="rgb(210,222,238)" fill-opacity="1"/></g><g><path d="M 403,38 L 524,38 L 524,117 L 403,117 Z" stroke="rgb(0,0,0)" stroke-opacity="1" stroke-width="1" stroke-linecap="butt" stroke-linejoin="miter" stroke-miterlimit="10" fill="rgb(210,222,238)" fill-opacity="1"/></g><g><path d="M 114,148 L 813,148 L 813,202 L 114,202 Z" stroke="rgb(0,0,0)" stroke-opacity="1" stroke-width="1" stroke-linecap="butt" stroke-linejoin="miter" stroke-miterlimit="10" fill="rgb(210,222,238)" fill-opacity="1"/></g><g transform="translate(114 -180)"><text font-family="Arial" font-size="12px" font-style="normal" font-weight="normal" text-anchor="middle" fill="rgb(0,0,0)" fill-opacity="1" transform="translate(349.5 32)"><tspan dy="1em" x="0">DIRECCIÓN</tspan></text></g><g transform="translate(114 -71)"><text font-family="Arial" font-size="12px" font-style="normal" font-weight="normal" text-anchor="middle" fill="rgb(0,0,0)" fill-opacity="1" transform="translate(167 32)"><tspan dy="1em" x="0">ÁREA DE ESTADÍSTICA</tspan></text></g><g transform="translate(479 -71)"><text font-family="Arial" font-size="12px" font-style="normal" font-weight="normal" text-anchor="middle" fill="rgb(0,0,0)" fill-opacity="1" transform="translate(167 32)"><tspan dy="1em" x="0">ÁREA DE INFORMÁTICA</tspan></text></g><g transform="translate(258 38)"><text font-family="Arial" font-size="12px" font-style="normal" font-weight="normal" text-anchor="middle" fill="rgb(0,0,0)" fill-opacity="1" transform="translate(60.5 32)"><tspan dy="1em" x="0">ANÁLISIS</tspan></text></g><g transform="translate(114 38)"><text font-family="Arial" font-size="12px" font-style="normal" font-weight="normal" text-anchor="middle" fill="rgb(0,0,0)" fill-opacity="1" transform="translate(60.5 32)"><tspan dy="1em" x="0">PRODUCCIÓN</tspan></text></g><g transform="translate(692 38)"><text font-family="Arial" font-size="12px" font-style="normal" font-weight="normal" text-anchor="middle" fill="rgb(0,0,0)" fill-opacity="1" transform="translate(60.5 32)"><tspan dy="1em" x="0">DESARROLLO</tspan></text></g><g transform="translate(547.5 38)"><text font-family="Arial" font-size="12px" font-style="normal" font-weight="normal" text-anchor="middle" fill="rgb(0,0,0)" fill-opacity="1" transform="translate(60.5 23)"><tspan dy="1em" x="0">TRATAMIENTO DE</tspan><tspan dy="1.5em" x="0">DATOS</tspan></text></g><g transform="translate(403 38)"><text font-family="Arial" font-size="12px" font-style="normal" font-weight="normal" text-anchor="middle" fill="rgb(0,0,0)" fill-opacity="1" transform="translate(60.5 32)"><tspan dy="1em" x="0">DIFUSIÓN</tspan></text></g><g transform="translate(114 148)"><text font-family="Arial" font-size="12px" font-style="normal" font-weight="normal" text-anchor="middle" fill="rgb(0,0,0)" fill-opacity="1" transform="translate(349.5 19.5)"><tspan dy="1em" x="0">OTROS SERVICIOS</tspan></text></g></g></svg>